SplineFontDB: 3.2
FontName: Samaano-Thin
FullName: Samaano Thin
FamilyName: Samaano
Weight: Thin
Copyright: Copyright 2024 The Samaano Project Authors (https://github.com/mitradranirban/samaano-fonts)
UComments: "2024-8-27: Created with FontForge (http://fontforge.org)"
Version: 1.600
StyleMapFamilyName: Samaano
ItalicAngle: 0
UnderlinePosition: 0
UnderlineWidth: 102
Ascent: 1638
Descent: 410
InvalidEm: 0
UFOAscent: 1638
UFODescent: -410
LayerCount: 2
Layer: 0 1 "Back" 1
Layer: 1 1 "public.default" 0 "glyphs"
StyleMap: 0x0040
FSType: 0
OS2Version: 0
OS2_WeightWidthSlopeOnly: 0
OS2_UseTypoMetrics: 0
CreationTime: 1731342366
ModificationTime: 1731342839
PfmFamily: 16
TTFWeight: 100
TTFWidth: 5
LineGap: 0
VLineGap: 0
Panose: 2 7 2 9 2 2 2 2 4 4
OS2TypoAscent: 2457
OS2TypoAOffset: 0
OS2TypoDescent: -615
OS2TypoDOffset: 0
OS2TypoLinegap: 0
OS2WinAscent: 3225
OS2WinAOffset: 0
OS2WinDescent: 978
OS2WinDOffset: 0
HheadAscent: 2457
HheadAOffset: 0
HheadDescent: -615
HheadDOffset: 0
OS2CapHeight: 1548
OS2XHeight: 1023
OS2FamilyClass: 1031
OS2Vendor: 'anir'
Lookup: 4 0 1 "ligaStandardLigaturesinLatinlookup0" { "ligaStandardLigaturesinLatinlookup0 subtable"  } ['liga' ('latn' <'dflt' > 'DFLT' <'dflt' > ) ]
Lookup: 4 0 0 "nuktNuktaFormsinDevanagari2lookup0" { "nuktNuktaFormsinDevanagari2lookup0 subtable"  } ['nukt' ('dev2' <'dflt' > 'DFLT' <'dflt' > ) ]
Lookup: 4 0 0 "akhnAkhandinDevanagari2lookup0" { "akhnAkhandinDevanagari2lookup0 subtable"  } ['akhn' ('dev2' <'dflt' > 'DFLT' <'dflt' > ) ]
Lookup: 4 0 0 "rphfRephForminDevanagari2lookup0" { "rphfRephForminDevanagari2lookup0 subtable"  } ['rphf' ('dev2' <'dflt' > 'DFLT' <'dflt' > ) ]
Lookup: 4 0 0 "rkrfRakarVariantsinDevanagari2lookup0" { "rkrfRakarVariantsinDevanagari2lookup0 subtable"  } ['rkrf' ('dev2' <'dflt' > 'DFLT' <'dflt' > ) ]
Lookup: 4 0 0 "blwfBelowBaseFormsinDevanagari2lookup0" { "blwfBelowBaseFormsinDevanagari2lookup0 subtable"  } ['blwf' ('dev2' <'dflt' > 'DFLT' <'dflt' > ) ]

StartChar: .notdef
Encoding: 0 0 0
GlifName: _notdef
Width: 1024
VWidth: 0
Flags: W
LayerCount: 2
Fore
SplineSet
22 -100 m 257,0,-1
 1020 -100 l 257,1,-1
 1020 1540 l 257,2,-1
 22 1540 l 257,3,-1
 22 -100 l 257,0,-1
96 -20 m 257,4,-1
 96 1462 l 257,5,-1
 489 743 l 257,6,-1
 96 -20 l 257,4,-1
188 -20 m 257,7,-1
 527 666 l 257,8,-1
 868 -20 l 257,9,-1
 188 -20 l 257,7,-1
216 1474 m 257,10,-1
 847 1474 l 257,11,-1
 529 825 l 257,12,-1
 216 1474 l 257,10,-1
567 748 m 257,13,-1
 943 1475 l 257,14,-1
 943 -20 l 257,15,-1
 567 748 l 257,13,-1
EndSplineSet
EndChar

StartChar: A
Encoding: 65 65 1
GlifName: A_
Width: 1024
VWidth: 0
GlyphClass: 2
Flags: W
AnchorPoint: "top" 525 1641 basechar 0
AnchorPoint: "base" 546 0 basechar 0
LayerCount: 2
Fore
SplineSet
102 16 m 257,0,-1
 161 16 l 257,1,-1
 161 1553 l 257,2,-1
 102 1553 l 257,3,-1
 102 16 l 257,0,-1
161 1492 m 257,4,-1
 878 1492 l 257,5,-1
 878 1553 l 257,6,-1
 161 1553 l 257,7,-1
 161 1492 l 257,4,-1
155 970 m 257,8,-1
 155 911 l 257,9,-1
 878 911 l 257,10,-1
 878 970 l 257,11,-1
 155 970 l 257,8,-1
862 5 m 257,12,-1
 922 5 l 257,13,-1
 922 1553 l 257,14,-1
 862 1553 l 257,15,-1
 862 5 l 257,12,-1
EndSplineSet
EndChar

StartChar: AE
Encoding: 198 198 2
GlifName: A_E_
Width: 1024
VWidth: 0
GlyphClass: 2
Flags: W
LayerCount: 2
Fore
SplineSet
528 62 m 257,0,-1
 528 0 l 257,1,-1
 948 0 l 257,2,-1
 948 62 l 257,3,-1
 528 62 l 257,0,-1
76 0 m 257,4,-1
 138 0 l 257,5,-1
 138 1550 l 257,6,-1
 76 1550 l 257,7,-1
 76 0 l 257,4,-1
120 1489 m 257,8,-1
 926 1489 l 257,9,-1
 926 1550 l 257,10,-1
 120 1550 l 257,11,-1
 120 1489 l 257,8,-1
124 1023 m 257,12,-1
 124 964 l 257,13,-1
 874 964 l 257,14,-1
 874 1023 l 257,15,-1
 124 1023 l 257,12,-1
502 0 m 257,16,-1
 562 0 l 257,17,-1
 562 1550 l 257,18,-1
 502 1550 l 257,19,-1
 502 0 l 257,16,-1
EndSplineSet
EndChar

StartChar: B
Encoding: 66 66 14
GlifName: B_
Width: 1024
VWidth: 0
GlyphClass: 2
Flags: W
AnchorPoint: "top" 262 1657 basechar 0
AnchorPoint: "base" 250 -67 basechar 0
LayerCount: 2
Fore
SplineSet
27 0 m 257,0,-1
 84 0 l 257,1,-1
 84 1553 l 257,2,-1
 27 1553 l 257,3,-1
 27 0 l 257,0,-1
123 1494 m 257,4,-1
 962 1023 l 257,5,-1
 962 1081 l 257,6,-1
 123 1550 l 257,7,-1
 123 1494 l 257,4,-1
146 811 m 257,8,-1
 962 1023 l 257,9,-1
 962 1079 l 257,10,-1
 146 870 l 257,11,-1
 146 811 l 257,8,-1
128 62 m 257,12,-1
 128 0 l 257,13,-1
 996 434 l 257,14,-1
 996 500 l 257,15,-1
 128 62 l 257,12,-1
141 746 m 257,16,-1
 997 430 l 257,17,-1
 997 501 l 257,18,-1
 141 808 l 257,19,-1
 141 746 l 257,16,-1
81 870 m 257,20,-1
 81 811 l 257,21,-1
 146 811 l 257,22,-1
 146 870 l 257,23,-1
 81 870 l 257,20,-1
81 808 m 257,24,-1
 81 748 l 257,25,-1
 141 748 l 257,26,-1
 141 808 l 257,27,-1
 81 808 l 257,24,-1
68 62 m 257,28,-1
 68 0 l 257,29,-1
 128 0 l 257,30,-1
 128 62 l 257,31,-1
 68 62 l 257,28,-1
63 1553 m 257,32,-1
 63 1494 l 257,33,-1
 123 1494 l 257,34,-1
 123 1553 l 257,35,-1
 63 1553 l 257,32,-1
EndSplineSet
EndChar

StartChar: C
Encoding: 67 67 15
GlifName: C_
Width: 1024
VWidth: 0
GlyphClass: 2
Flags: W
AnchorPoint: "top" 470 1637 basechar 0
AnchorPoint: "base" 518 -47 basechar 0
LayerCount: 2
Fore
SplineSet
71 1553 m 257,0,-1
 71 0 l 257,1,-1
 131 0 l 257,2,-1
 131 1553 l 257,3,-1
 71 1553 l 257,0,-1
100 1553 m 257,4,-1
 100 1495 l 257,5,-1
 953 1495 l 257,6,-1
 953 1553 l 257,7,-1
 100 1553 l 257,4,-1
105 58 m 257,8,-1
 105 0 l 257,9,-1
 951 0 l 257,10,-1
 951 58 l 257,11,-1
 105 58 l 257,8,-1
EndSplineSet
EndChar

StartChar: D
Encoding: 68 68 21
GlifName: D_
Width: 1024
VWidth: 0
GlyphClass: 2
Flags: W
AnchorPoint: "base" 290 -63 basechar 0
AnchorPoint: "top" 294 1641 basechar 0
LayerCount: 2
Fore
SplineSet
96 1553 m 257,0,-1
 96 0 l 257,1,-1
 156 0 l 257,2,-1
 156 1553 l 257,3,-1
 96 1553 l 257,0,-1
236 1550 m 257,4,-1
 236 1493 l 257,5,-1
 926 961 l 257,6,-1
 926 1023 l 257,7,-1
 236 1550 l 257,4,-1
236 58 m 257,8,-1
 236 0 l 257,9,-1
 928 960 l 257,10,-1
 928 1023 l 257,11,-1
 236 58 l 257,8,-1
156 1553 m 257,12,-1
 156 1493 l 257,13,-1
 236 1493 l 257,14,-1
 236 1553 l 257,15,-1
 156 1553 l 257,12,-1
158 58 m 257,16,-1
 158 0 l 257,17,-1
 236 0 l 257,18,-1
 236 58 l 257,19,-1
 158 58 l 257,16,-1
EndSplineSet
EndChar

StartChar: Dcroat
Encoding: 272 272 23
GlifName: D_croat
Width: 1024
VWidth: 0
GlyphClass: 2
Flags: W
AnchorPoint: "top" 336 1714 basechar 0
AnchorPoint: "base" 300 -152 basechar 0
LayerCount: 2
Fore
SplineSet
56 935 m 257,0,-1
 56 876 l 257,1,-1
 532 876 l 257,2,-1
 532 935 l 257,3,-1
 56 935 l 257,0,-1
162 1550 m 257,4,-1
 162 0 l 257,5,-1
 224 0 l 257,6,-1
 224 1550 l 257,7,-1
 162 1550 l 257,4,-1
488 1550 m 257,8,-1
 488 1488 l 257,9,-1
 968 906 l 257,10,-1
 968 1023 l 257,11,-1
 488 1550 l 257,8,-1
496 61 m 257,12,-1
 496 0 l 257,13,-1
 968 915 l 257,14,-1
 968 1023 l 257,15,-1
 496 61 l 257,12,-1
208 1550 m 257,16,-1
 208 1488 l 257,17,-1
 488 1488 l 257,18,-1
 488 1550 l 257,19,-1
 208 1550 l 257,16,-1
204 61 m 257,20,-1
 204 0 l 257,21,-1
 496 0 l 257,22,-1
 496 61 l 257,23,-1
 204 61 l 257,20,-1
EndSplineSet
EndChar

StartChar: E
Encoding: 69 69 24
GlifName: E_
Width: 1024
VWidth: 0
GlyphClass: 2
Flags: W
AnchorPoint: "top" 470 1641 basechar 0
AnchorPoint: "base" 546 -96 basechar 0
LayerCount: 2
Fore
SplineSet
106 1550 m 257,0,-1
 106 0 l 257,1,-1
 165 0 l 257,2,-1
 165 1550 l 257,3,-1
 106 1550 l 257,0,-1
142 1553 m 257,4,-1
 149 1490 l 257,5,-1
 903 1490 l 257,6,-1
 903 1553 l 257,7,-1
 142 1553 l 257,4,-1
149 60 m 257,8,-1
 149 0 l 257,9,-1
 918 0 l 257,10,-1
 918 60 l 257,11,-1
 149 60 l 257,8,-1
148 859 m 257,12,-1
 148 798 l 257,13,-1
 672 798 l 257,14,-1
 672 859 l 257,15,-1
 148 859 l 257,12,-1
EndSplineSet
EndChar

StartChar: Eng
Encoding: 330 330 33
GlifName: E_ng
Width: 1024
VWidth: 0
GlyphClass: 2
Flags: W
AnchorPoint: "top" 515 1644 basechar 0
AnchorPoint: "base" 517 -272 basechar 0
LayerCount: 2
Fore
SplineSet
524 -348 m 257,0,-1
 524 -408 l 257,1,-1
 911 -408 l 257,2,-1
 911 -348 l 257,3,-1
 524 -348 l 257,0,-1
186 1490 m 257,4,-1
 186 0 l 257,5,-1
 246 0 l 257,6,-1
 246 1490 l 257,7,-1
 186 1490 l 257,4,-1
852 1501 m 257,8,-1
 852 -408 l 257,9,-1
 912 -408 l 257,10,-1
 912 1501 l 257,11,-1
 852 1501 l 257,8,-1
112 1550 m 257,12,-1
 112 1490 l 257,13,-1
 911 1490 l 257,14,-1
 911 1550 l 257,15,-1
 112 1550 l 257,12,-1
EndSplineSet
EndChar

StartChar: Eth
Encoding: 208 208 35
GlifName: E_th
Width: 1024
VWidth: 0
GlyphClass: 2
Flags: W
AnchorPoint: "top" 268 1662 basechar 0
AnchorPoint: "base" 292 -132 basechar 0
LayerCount: 2
Fore
SplineSet
55 935 m 257,0,-1
 55 873 l 257,1,-1
 362 873 l 257,2,-1
 362 935 l 257,3,-1
 55 935 l 257,0,-1
162 1553 m 257,4,-1
 162 0 l 257,5,-1
 223 0 l 257,6,-1
 223 1553 l 257,7,-1
 162 1553 l 257,4,-1
488 1553 m 257,8,-1
 488 1484 l 257,9,-1
 969 964 l 257,10,-1
 969 1023 l 257,11,-1
 488 1553 l 257,8,-1
496 60 m 257,12,-1
 496 0 l 257,13,-1
 969 964 l 257,14,-1
 969 1023 l 257,15,-1
 496 60 l 257,12,-1
202 1553 m 257,16,-1
 202 1484 l 257,17,-1
 488 1484 l 257,18,-1
 488 1553 l 257,19,-1
 202 1553 l 257,16,-1
210 60 m 257,20,-1
 210 0 l 257,21,-1
 496 0 l 257,22,-1
 496 60 l 257,23,-1
 210 60 l 257,20,-1
EndSplineSet
EndChar

StartChar: Euro
Encoding: 8364 8364 36
GlifName: E_uro
Width: 1024
VWidth: 0
GlyphClass: 2
Flags: W
LayerCount: 2
Fore
SplineSet
176 520 m 257,0,-1
 176 451 l 257,1,-1
 813 451 l 257,2,-1
 813 520 l 257,3,-1
 176 520 l 257,0,-1
188 856 m 257,4,-1
 188 788 l 257,5,-1
 797 788 l 257,6,-1
 797 856 l 257,7,-1
 188 856 l 257,4,-1
444 1023 m 257,8,-1
 444 179 l 257,9,-1
 524 179 l 257,10,-1
 524 1023 l 257,11,-1
 444 1023 l 257,8,-1
762 1633 m 257,12,-1
 444 1023 l 257,13,-1
 524 1023 l 257,14,-1
 787 1607 l 257,15,-1
 762 1633 l 257,12,-1
444 179 m 257,16,-1
 788 -406 l 257,17,-1
 848 -406 l 257,18,-1
 524 179 l 257,19,-1
 444 179 l 257,16,-1
EndSplineSet
EndChar

StartChar: F
Encoding: 70 70 37
GlifName: F_
Width: 1024
VWidth: 0
GlyphClass: 2
Flags: W
AnchorPoint: "top" 518 1637 basechar 0
AnchorPoint: "base" 266 -71 basechar 0
LayerCount: 2
Fore
SplineSet
106 1553 m 257,0,-1
 106 0 l 257,1,-1
 164 0 l 257,2,-1
 164 1553 l 257,3,-1
 106 1553 l 257,0,-1
164 1553 m 257,4,-1
 164 1497 l 257,5,-1
 918 1497 l 257,6,-1
 918 1553 l 257,7,-1
 164 1553 l 257,4,-1
156 864 m 257,8,-1
 156 806 l 257,9,-1
 746 806 l 257,10,-1
 746 864 l 257,11,-1
 156 864 l 257,8,-1
EndSplineSet
EndChar

StartChar: G
Encoding: 71 71 38
GlifName: G_
Width: 1024
VWidth: 0
GlyphClass: 2
Flags: W
AnchorPoint: "top" 502 1649 basechar 0
AnchorPoint: "base" 540 -42 basechar 0
LayerCount: 2
Fore
SplineSet
115 1529 m 257,0,-1
 115 0 l 257,1,-1
 174 0 l 257,2,-1
 174 1529 l 257,3,-1
 115 1529 l 257,0,-1
168 1529 m 257,4,-1
 168 1469 l 257,5,-1
 873 1469 l 257,6,-1
 873 1529 l 257,7,-1
 168 1529 l 257,4,-1
146 60 m 257,8,-1
 146 0 l 257,9,-1
 909 0 l 257,10,-1
 909 60 l 257,11,-1
 146 60 l 257,8,-1
848 561 m 257,12,-1
 848 18 l 257,13,-1
 909 18 l 257,14,-1
 909 561 l 257,15,-1
 848 561 l 257,12,-1
EndSplineSet
EndChar

StartChar: H
Encoding: 72 72 42
GlifName: H_
Width: 1024
VWidth: 0
GlyphClass: 2
Flags: W
AnchorPoint: "top" 496 1638 basechar 0
AnchorPoint: "base" 496 -34 basechar 0
LayerCount: 2
Fore
SplineSet
114 1553 m 257,0,-1
 114 0 l 257,1,-1
 173 0 l 257,2,-1
 173 1553 l 257,3,-1
 114 1553 l 257,0,-1
849 1553 m 257,4,-1
 849 0 l 257,5,-1
 910 0 l 257,6,-1
 910 1553 l 257,7,-1
 849 1553 l 257,4,-1
156 923 m 257,8,-1
 156 864 l 257,9,-1
 873 864 l 257,10,-1
 873 923 l 257,11,-1
 156 923 l 257,8,-1
EndSplineSet
EndChar

StartChar: Hbar
Encoding: 294 294 43
GlifName: H_bar
Width: 1024
VWidth: 0
GlyphClass: 2
Flags: W
LayerCount: 2
Fore
SplineSet
110 1540 m 257,0,-1
 110 0 l 257,1,-1
 170 0 l 257,2,-1
 170 1540 l 257,3,-1
 110 1540 l 257,0,-1
846 1540 m 257,4,-1
 846 0 l 257,5,-1
 906 0 l 257,6,-1
 906 1540 l 257,7,-1
 846 1540 l 257,4,-1
150 1023 m 257,8,-1
 150 959 l 257,9,-1
 862 959 l 257,10,-1
 862 1023 l 257,11,-1
 150 1023 l 257,8,-1
50 1434 m 257,12,-1
 50 1374 l 257,13,-1
 974 1374 l 257,14,-1
 974 1434 l 257,15,-1
 50 1434 l 257,12,-1
EndSplineSet
EndChar

StartChar: I
Encoding: 73 73 45
GlifName: I_
Width: 1024
VWidth: 0
GlyphClass: 2
Flags: W
AnchorPoint: "top" 470 1641 basechar 0
AnchorPoint: "base" 736 -26 basechar 0
LayerCount: 2
Fore
SplineSet
154 1550 m 257,0,-1
 154 1489 l 257,1,-1
 855 1489 l 257,2,-1
 855 1550 l 257,3,-1
 154 1550 l 257,0,-1
478 1515 m 257,4,-1
 478 34 l 257,5,-1
 537 34 l 257,6,-1
 537 1515 l 257,7,-1
 478 1515 l 257,4,-1
134 66 m 257,8,-1
 134 6 l 257,9,-1
 890 6 l 257,10,-1
 890 66 l 257,11,-1
 134 66 l 257,8,-1
EndSplineSet
EndChar

StartChar: J
Encoding: 74 74 56
GlifName: J_
Width: 1024
VWidth: 0
GlyphClass: 2
Flags: W
AnchorPoint: "base" 606 -73 basechar 0
AnchorPoint: "top" 870 1643 basechar 0
LayerCount: 2
Fore
SplineSet
840 1527 m 257,0,-1
 840 0 l 257,1,-1
 900 0 l 257,2,-1
 900 1527 l 257,3,-1
 840 1527 l 257,0,-1
124 60 m 257,4,-1
 124 0 l 257,5,-1
 866 0 l 257,6,-1
 866 60 l 257,7,-1
 124 60 l 257,4,-1
124 503 m 257,8,-1
 124 27 l 257,9,-1
 184 27 l 257,10,-1
 184 503 l 257,11,-1
 124 503 l 257,8,-1
EndSplineSet
EndChar

StartChar: K
Encoding: 75 75 58
GlifName: K_
Width: 1024
VWidth: 0
GlyphClass: 2
Flags: W
AnchorPoint: "base" 494 -39 basechar 0
AnchorPoint: "top" 189 1633 basechar 0
LayerCount: 2
Fore
SplineSet
172 1553 m 257,0,-1
 172 5 l 257,1,-1
 232 5 l 257,2,-1
 232 1553 l 257,3,-1
 172 1553 l 257,0,-1
230 1015 m 257,4,-1
 230 944 l 257,5,-1
 818 1550 l 257,6,-1
 748 1550 l 257,7,-1
 230 1015 l 257,4,-1
230 934 m 257,8,-1
 210 844 l 257,9,-1
 802 0 l 257,10,-1
 852 0 l 257,11,-1
 230 934 l 257,8,-1
EndSplineSet
EndChar

StartChar: L
Encoding: 76 76 59
GlifName: L_
Width: 1024
VWidth: 0
GlyphClass: 2
Flags: W
AnchorPoint: "base" 498 -43 basechar 0
AnchorPoint: "top" 140 1650 basechar 0
LayerCount: 2
Fore
SplineSet
132 1553 m 257,0,-1
 132 0 l 257,1,-1
 192 0 l 257,2,-1
 192 1553 l 257,3,-1
 132 1553 l 257,0,-1
147 61 m 257,4,-1
 147 0 l 257,5,-1
 892 0 l 257,6,-1
 892 61 l 257,7,-1
 147 61 l 257,4,-1
EndSplineSet
EndChar

StartChar: Lcaron
Encoding: 317 317 61
GlifName: L_caron
Width: 1024
VWidth: 0
GlyphClass: 2
Flags: W
LayerCount: 2
Fore
SplineSet
94 1542 m 257,0,-1
 94 0 l 257,1,-1
 156 0 l 257,2,-1
 156 1542 l 257,3,-1
 94 1542 l 257,0,-1
122 62 m 257,4,-1
 122 0 l 257,5,-1
 930 0 l 257,6,-1
 930 62 l 257,7,-1
 122 62 l 257,4,-1
488 1496 m 257,8,-1
 488 1264 l 257,9,-1
 528 1264 l 257,10,-1
 528 1496 l 257,11,-1
 488 1496 l 257,8,-1
EndSplineSet
EndChar

StartChar: Lslash
Encoding: 321 321 63
GlifName: L_slash
Width: 1024
VWidth: 0
GlyphClass: 2
Flags: W
LayerCount: 2
Fore
SplineSet
171 1542 m 257,0,-1
 171 0 l 257,1,-1
 231 0 l 257,2,-1
 231 1542 l 257,3,-1
 171 1542 l 257,0,-1
195 64 m 257,4,-1
 195 0 l 257,5,-1
 1006 0 l 257,6,-1
 1006 64 l 257,7,-1
 195 64 l 257,4,-1
16 902 m 257,8,-1
 96 866 l 257,9,-1
 530 1068 l 257,10,-1
 450 1104 l 257,11,-1
 16 902 l 257,8,-1
EndSplineSet
EndChar

StartChar: M
Encoding: 77 77 64
GlifName: M_
Width: 1024
VWidth: 0
GlyphClass: 2
Flags: W
AnchorPoint: "base" 514 -39 basechar 0
AnchorPoint: "top" 532 1642 basechar 0
LayerCount: 2
Fore
SplineSet
100 1553 m 257,0,-1
 100 0 l 257,1,-1
 160 0 l 257,2,-1
 160 1553 l 257,3,-1
 100 1553 l 257,0,-1
862 1553 m 257,4,-1
 862 0 l 257,5,-1
 924 0 l 257,6,-1
 924 1553 l 257,7,-1
 862 1553 l 257,4,-1
100 1553 m 257,8,-1
 476 1033 l 257,9,-1
 544 1033 l 257,10,-1
 160 1553 l 257,11,-1
 100 1553 l 257,8,-1
862 1553 m 257,12,-1
 476 1033 l 257,13,-1
 544 1033 l 257,14,-1
 924 1553 l 257,15,-1
 862 1553 l 257,12,-1
EndSplineSet
EndChar

StartChar: N
Encoding: 78 78 65
GlifName: N_
Width: 1024
VWidth: 0
GlyphClass: 2
Flags: W
AnchorPoint: "top" 488 1642 basechar 0
AnchorPoint: "base" 522 -36 basechar 0
LayerCount: 2
Fore
SplineSet
98 1553 m 257,0,-1
 98 0 l 257,1,-1
 158 0 l 257,2,-1
 158 1553 l 257,3,-1
 98 1553 l 257,0,-1
866 1553 m 257,4,-1
 866 0 l 257,5,-1
 926 0 l 257,6,-1
 926 1553 l 257,7,-1
 866 1553 l 257,4,-1
98 1553 m 257,8,-1
 866 0 l 257,9,-1
 926 0 l 257,10,-1
 158 1553 l 257,11,-1
 98 1553 l 257,8,-1
EndSplineSet
EndChar

StartChar: O
Encoding: 79 79 69
GlifName: O_
Width: 1024
VWidth: 0
GlyphClass: 2
Flags: W
AnchorPoint: "top" 456 1646 basechar 0
AnchorPoint: "base" 832 -34 basechar 0
LayerCount: 2
Fore
SplineSet
112 1553 m 257,0,-1
 112 0 l 257,1,-1
 171 0 l 257,2,-1
 171 1553 l 257,3,-1
 112 1553 l 257,0,-1
853 1553 m 257,4,-1
 853 0 l 257,5,-1
 912 0 l 257,6,-1
 912 1553 l 257,7,-1
 853 1553 l 257,4,-1
150 1553 m 257,8,-1
 150 1493 l 257,9,-1
 882 1493 l 257,10,-1
 882 1553 l 257,11,-1
 150 1553 l 257,8,-1
152 61 m 257,12,-1
 152 0 l 257,13,-1
 890 0 l 257,14,-1
 890 61 l 257,15,-1
 152 61 l 257,12,-1
EndSplineSet
EndChar

StartChar: OE
Encoding: 338 338 70
GlifName: O_E_
Width: 1024
VWidth: 0
GlyphClass: 2
Flags: W
AnchorPoint: "top" 606 1636 basechar 0
AnchorPoint: "base" 594 -92 basechar 0
LayerCount: 2
Fore
SplineSet
123 1553 m 257,0,-1
 123 0 l 257,1,-1
 182 0 l 257,2,-1
 182 1553 l 257,3,-1
 123 1553 l 257,0,-1
587 1553 m 257,4,-1
 587 0 l 257,5,-1
 646 0 l 257,6,-1
 646 1553 l 257,7,-1
 587 1553 l 257,4,-1
161 1553 m 257,8,-1
 161 1493 l 257,9,-1
 893 1493 l 257,10,-1
 893 1553 l 257,11,-1
 161 1553 l 257,8,-1
163 61 m 257,12,-1
 163 0 l 257,13,-1
 901 0 l 257,14,-1
 901 61 l 257,15,-1
 163 61 l 257,12,-1
619 859 m 257,16,-1
 619 798 l 257,17,-1
 842 798 l 257,18,-1
 842 859 l 257,19,-1
 619 859 l 257,16,-1
EndSplineSet
EndChar

StartChar: Oslash
Encoding: 216 216 79
GlifName: O_slash
Width: 1024
VWidth: 0
GlyphClass: 2
Flags: W
AnchorPoint: "top" 510 1666 basechar 0
AnchorPoint: "base" 498 -122 basechar 0
LayerCount: 2
Fore
SplineSet
899 1630 m 257,0,-1
 69 -48 l 257,1,-1
 109 -75 l 257,2,-1
 955 1588 l 257,3,-1
 899 1630 l 257,0,-1
107 1540 m 257,4,-1
 107 0 l 257,5,-1
 167 0 l 257,6,-1
 167 1540 l 257,7,-1
 107 1540 l 257,4,-1
848 1537 m 257,8,-1
 848 0 l 257,9,-1
 907 0 l 257,10,-1
 907 1537 l 257,11,-1
 848 1537 l 257,8,-1
137 1538 m 257,12,-1
 137 1478 l 257,13,-1
 877 1478 l 257,14,-1
 877 1538 l 257,15,-1
 137 1538 l 257,12,-1
147 75 m 257,16,-1
 147 0 l 257,17,-1
 848 0 l 257,18,-1
 848 75 l 257,19,-1
 147 75 l 257,16,-1
EndSplineSet
EndChar

StartChar: P
Encoding: 80 80 82
GlifName: P_
Width: 1024
VWidth: 0
GlyphClass: 2
Flags: W
AnchorPoint: "base" 496 -29 basechar 0
AnchorPoint: "top" 473 1645 basechar 0
LayerCount: 2
Fore
SplineSet
132 1535 m 257,0,-1
 132 0 l 257,1,-1
 191 0 l 257,2,-1
 191 1535 l 257,3,-1
 132 1535 l 257,0,-1
132 1550 m 257,4,-1
 132 1472 l 257,5,-1
 892 1472 l 257,6,-1
 892 1550 l 257,7,-1
 132 1550 l 257,4,-1
831 1536 m 257,8,-1
 831 872 l 257,9,-1
 892 872 l 257,10,-1
 892 1536 l 257,11,-1
 831 1536 l 257,8,-1
177 931 m 257,12,-1
 177 871 l 257,13,-1
 864 871 l 257,14,-1
 864 931 l 257,15,-1
 177 931 l 257,12,-1
EndSplineSet
EndChar

StartChar: Q
Encoding: 81 81 83
GlifName: Q_
Width: 1024
VWidth: 0
GlyphClass: 2
Flags: W
AnchorPoint: "base" 514 -66 basechar 0
AnchorPoint: "top" 501 1636 basechar 0
LayerCount: 2
Fore
SplineSet
112 1553 m 257,0,-1
 112 0 l 257,1,-1
 170 0 l 257,2,-1
 170 1553 l 257,3,-1
 112 1553 l 257,0,-1
854 1553 m 257,4,-1
 854 0 l 257,5,-1
 912 0 l 257,6,-1
 912 1553 l 257,7,-1
 854 1553 l 257,4,-1
152 1553 m 257,8,-1
 152 1496 l 257,9,-1
 862 1496 l 257,10,-1
 862 1553 l 257,11,-1
 152 1553 l 257,8,-1
152 62 m 257,12,-1
 152 0 l 257,13,-1
 864 0 l 257,14,-1
 864 62 l 257,15,-1
 152 62 l 257,12,-1
616 13 m 257,16,-1
 722 -204 l 257,17,-1
 784 -165 l 257,18,-1
 664 52 l 257,19,-1
 616 13 l 257,16,-1
EndSplineSet
EndChar

StartChar: R
Encoding: 82 82 84
GlifName: R_
Width: 1024
VWidth: 0
GlyphClass: 2
Flags: W
AnchorPoint: "base" 510 -28 basechar 0
AnchorPoint: "top" 480 1642 basechar 0
LayerCount: 2
Fore
SplineSet
122 1550 m 257,0,-1
 122 0 l 257,1,-1
 182 0 l 257,2,-1
 182 1550 l 257,3,-1
 122 1550 l 257,0,-1
164 1550 m 257,4,-1
 164 1491 l 257,5,-1
 856 1491 l 257,6,-1
 856 1550 l 257,7,-1
 164 1550 l 257,4,-1
822 1550 m 257,8,-1
 822 872 l 257,9,-1
 884 872 l 257,10,-1
 884 1550 l 257,11,-1
 822 1550 l 257,8,-1
152 929 m 257,12,-1
 152 868 l 257,13,-1
 872 868 l 257,14,-1
 872 929 l 257,15,-1
 152 929 l 257,12,-1
414 875 m 257,16,-1
 846 0 l 257,17,-1
 902 0 l 257,18,-1
 472 875 l 257,19,-1
 414 875 l 257,16,-1
EndSplineSet
EndChar

StartChar: S
Encoding: 83 83 87
GlifName: S_
Width: 1024
VWidth: 0
GlyphClass: 2
Flags: W
AnchorPoint: "top" 508 1650 basechar 0
AnchorPoint: "base" 528 -58 basechar 0
LayerCount: 2
Fore
SplineSet
126 1553 m 257,0,-1
 126 1494 l 257,1,-1
 724 1494 l 257,2,-1
 724 1553 l 257,3,-1
 126 1553 l 257,0,-1
126 1542 m 257,4,-1
 126 1028 l 257,5,-1
 185 1028 l 257,6,-1
 185 1542 l 257,7,-1
 126 1542 l 257,4,-1
154 60 m 257,8,-1
 154 0 l 257,9,-1
 862 0 l 257,10,-1
 862 60 l 257,11,-1
 154 60 l 257,8,-1
839 0 m 257,12,-1
 898 0 l 257,13,-1
 898 355 l 257,14,-1
 839 355 l 257,15,-1
 839 0 l 257,12,-1
126 1028 m 257,16,-1
 839 355 l 257,17,-1
 898 355 l 257,18,-1
 185 1028 l 257,19,-1
 126 1028 l 257,16,-1
EndSplineSet
EndChar

StartChar: T
Encoding: 84 84 92
GlifName: T_
Width: 1024
VWidth: 0
GlyphClass: 2
Flags: W
AnchorPoint: "top" 516 1638 basechar 0
AnchorPoint: "base" 492 -54 basechar 0
LayerCount: 2
Fore
SplineSet
120 1553 m 257,0,-1
 120 1494 l 257,1,-1
 904 1494 l 257,2,-1
 904 1553 l 257,3,-1
 120 1553 l 257,0,-1
484 1512 m 257,4,-1
 484 12 l 257,5,-1
 542 12 l 257,6,-1
 542 1512 l 257,7,-1
 484 1512 l 257,4,-1
EndSplineSet
EndChar

StartChar: Thorn
Encoding: 222 222 94
GlifName: T_horn
Width: 1024
VWidth: 0
GlyphClass: 2
Flags: W
LayerCount: 2
Fore
SplineSet
134 1542 m 257,0,-1
 134 9 l 257,1,-1
 194 9 l 257,2,-1
 194 1542 l 257,3,-1
 134 1542 l 257,0,-1
182 1240 m 257,4,-1
 182 1187 l 257,5,-1
 870 1187 l 257,6,-1
 870 1240 l 257,7,-1
 182 1240 l 257,4,-1
830 1242 m 257,8,-1
 830 531 l 257,9,-1
 890 531 l 257,10,-1
 890 1242 l 257,11,-1
 830 1242 l 257,8,-1
202 544 m 257,12,-1
 202 484 l 257,13,-1
 888 484 l 257,14,-1
 888 544 l 257,15,-1
 202 544 l 257,12,-1
EndSplineSet
EndChar

StartChar: U
Encoding: 85 85 95
GlifName: U_
Width: 1024
VWidth: 0
GlyphClass: 2
Flags: W
AnchorPoint: "top" 508 1642 basechar 0
AnchorPoint: "base" 536 -94 basechar 0
LayerCount: 2
Fore
SplineSet
157 1553 m 257,0,-1
 157 0 l 257,1,-1
 219 0 l 257,2,-1
 219 1553 l 257,3,-1
 157 1553 l 257,0,-1
807 1553 m 257,4,-1
 807 0 l 257,5,-1
 867 0 l 257,6,-1
 867 1553 l 257,7,-1
 807 1553 l 257,4,-1
204 61 m 257,8,-1
 204 0 l 257,9,-1
 824 0 l 257,10,-1
 824 61 l 257,11,-1
 204 61 l 257,8,-1
EndSplineSet
EndChar

StartChar: V
Encoding: 86 86 107
GlifName: V_
Width: 1024
VWidth: 0
GlyphClass: 2
Flags: W
AnchorPoint: "top" 496 1642 basechar 0
AnchorPoint: "base" 564 -54 basechar 0
LayerCount: 2
Fore
SplineSet
106 1553 m 257,0,-1
 514 0 l 257,1,-1
 574 0 l 257,2,-1
 170 1553 l 257,3,-1
 106 1553 l 257,0,-1
848 1553 m 257,4,-1
 514 0 l 257,5,-1
 574 0 l 257,6,-1
 918 1553 l 257,7,-1
 848 1553 l 257,4,-1
EndSplineSet
EndChar

StartChar: W
Encoding: 87 87 108
GlifName: W_
Width: 1024
VWidth: 0
GlyphClass: 2
Flags: W
AnchorPoint: "base" 526 -64 basechar 0
AnchorPoint: "top" 508 1646 basechar 0
LayerCount: 2
Fore
SplineSet
103 1550 m 257,0,-1
 103 0 l 257,1,-1
 163 0 l 257,2,-1
 163 1550 l 257,3,-1
 103 1550 l 257,0,-1
861 1533 m 257,4,-1
 861 12 l 257,5,-1
 921 12 l 257,6,-1
 921 1533 l 257,7,-1
 861 1533 l 257,4,-1
482 1028 m 257,8,-1
 482 0 l 257,9,-1
 542 0 l 257,10,-1
 542 1028 l 257,11,-1
 482 1028 l 257,8,-1
111 60 m 257,12,-1
 111 0 l 257,13,-1
 921 0 l 257,14,-1
 921 60 l 257,15,-1
 111 60 l 257,12,-1
EndSplineSet
EndChar

StartChar: X
Encoding: 88 88 113
GlifName: X_
Width: 1024
VWidth: 0
GlyphClass: 2
Flags: W
AnchorPoint: "top" 498 1636 basechar 0
AnchorPoint: "base" 486 -32 basechar 0
LayerCount: 2
Fore
SplineSet
54 1553 m 257,0,-1
 896 0 l 257,1,-1
 970 0 l 257,2,-1
 126 1553 l 257,3,-1
 54 1553 l 257,0,-1
70 0 m 257,4,-1
 128 0 l 257,5,-1
 874 1553 l 257,6,-1
 798 1553 l 257,7,-1
 70 0 l 257,4,-1
EndSplineSet
EndChar

StartChar: Y
Encoding: 89 89 114
GlifName: Y_
Width: 1024
VWidth: 0
GlyphClass: 2
Flags: W
AnchorPoint: "top" 524 1638 basechar 0
AnchorPoint: "base" 508 -70 basechar 0
LayerCount: 2
Fore
SplineSet
480 895 m 257,0,-1
 480 0 l 257,1,-1
 539 0 l 257,2,-1
 539 895 l 257,3,-1
 480 895 l 257,0,-1
171 1550 m 257,4,-1
 171 859 l 257,5,-1
 232 859 l 257,6,-1
 232 1550 l 257,7,-1
 171 1550 l 257,4,-1
793 1536 m 257,8,-1
 793 859 l 257,9,-1
 853 859 l 257,10,-1
 853 1536 l 257,11,-1
 793 1536 l 257,8,-1
217 919 m 257,12,-1
 217 859 l 257,13,-1
 826 859 l 257,14,-1
 826 919 l 257,15,-1
 217 919 l 257,12,-1
EndSplineSet
EndChar

StartChar: Z
Encoding: 90 90 119
GlifName: Z_
Width: 1024
VWidth: 0
GlyphClass: 2
Flags: W
AnchorPoint: "top" 496 1646 basechar 0
AnchorPoint: "base" 560 -46 basechar 0
LayerCount: 2
Fore
SplineSet
98 1550 m 257,0,-1
 98 1491 l 257,1,-1
 926 1491 l 257,2,-1
 926 1550 l 257,3,-1
 98 1550 l 257,0,-1
99 60 m 257,4,-1
 99 0 l 257,5,-1
 926 0 l 257,6,-1
 926 60 l 257,7,-1
 99 60 l 257,4,-1
866 1491 m 257,8,-1
 99 60 l 257,9,-1
 159 60 l 257,10,-1
 926 1491 l 257,11,-1
 866 1491 l 257,8,-1
EndSplineSet
EndChar

StartChar: a
Encoding: 97 97 123
GlifName: a
Width: 1024
VWidth: 0
GlyphClass: 2
Flags: W
AnchorPoint: "top" 500 1134 basechar 0
AnchorPoint: "base" 752 -62 basechar 0
LayerCount: 2
Fore
SplineSet
168 1024 m 257,0,-1
 168 957 l 257,1,-1
 817 957 l 257,2,-1
 817 1023 l 257,3,-1
 168 1024 l 257,0,-1
779 1023 m 257,4,-1
 779 0 l 257,5,-1
 856 0 l 257,6,-1
 856 1023 l 257,7,-1
 779 1023 l 257,4,-1
171 600 m 257,8,-1
 171 538 l 257,9,-1
 795 538 l 257,10,-1
 795 600 l 257,11,-1
 171 600 l 257,8,-1
172 577 m 257,12,-1
 172 0 l 257,13,-1
 243 0 l 257,14,-1
 243 577 l 257,15,-1
 172 577 l 257,12,-1
181 74 m 257,16,-1
 181 0 l 257,17,-1
 845 0 l 257,18,-1
 845 74 l 257,19,-1
 181 74 l 257,16,-1
EndSplineSet
EndChar

StartChar: acute
Encoding: 180 180 127
GlifName: acute
Width: 1024
VWidth: 0
GlyphClass: 2
Flags: W
LayerCount: 2
Fore
SplineSet
525 1341 m 257,0,-1
 446 1156 l 257,1,-1
 499 1122 l 257,2,-1
 578 1307 l 257,3,-1
 525 1341 l 257,0,-1
EndSplineSet
EndChar

StartChar: acutecomb
Encoding: 769 769 128
GlifName: acutecomb
Width: 0
VWidth: 0
GlyphClass: 4
Flags: W
AnchorPoint: "top" 10 785 mark 0
LayerCount: 2
Fore
SplineSet
58 1032 m 257,0,-1
 -21 847 l 257,1,-1
 32 813 l 257,2,-1
 111 998 l 257,3,-1
 58 1032 l 257,0,-1
EndSplineSet
EndChar

StartChar: ae
Encoding: 230 230 130
GlifName: ae
Width: 1024
VWidth: 0
GlyphClass: 2
Flags: W
AnchorPoint: "top" 534 1156 basechar 0
AnchorPoint: "base" 522 -92 basechar 0
LayerCount: 2
Fore
SplineSet
42 1023 m 257,0,-1
 42 961 l 257,1,-1
 932 961 l 257,2,-1
 932 1023 l 257,3,-1
 42 1023 l 257,0,-1
512 1023 m 257,4,-1
 512 0 l 257,5,-1
 572 0 l 257,6,-1
 572 1023 l 257,7,-1
 512 1023 l 257,4,-1
66 599 m 257,8,-1
 66 538 l 257,9,-1
 906 538 l 257,10,-1
 906 599 l 257,11,-1
 66 599 l 257,8,-1
66 575 m 257,12,-1
 66 0 l 257,13,-1
 126 0 l 257,14,-1
 126 575 l 257,15,-1
 66 575 l 257,12,-1
64 61 m 257,16,-1
 64 0 l 257,17,-1
 984 0 l 257,18,-1
 984 61 l 257,19,-1
 64 61 l 257,16,-1
900 1023 m 257,20,-1
 900 538 l 257,21,-1
 962 538 l 257,22,-1
 962 1023 l 257,23,-1
 900 1023 l 257,20,-1
EndSplineSet
EndChar

StartChar: ampersand
Encoding: 38 38 134
GlifName: ampersand
Width: 1024
VWidth: 0
GlyphClass: 2
Flags: W
LayerCount: 2
Fore
SplineSet
260 1534 m 257,0,-1
 778 43 l 257,1,-1
 854 56 l 257,2,-1
 338 1534 l 257,3,-1
 260 1534 l 257,0,-1
804 1467 m 257,4,-1
 804 1536 l 257,5,-1
 338 1536 l 257,6,-1
 338 1467 l 257,7,-1
 804 1467 l 257,4,-1
746 1485 m 257,8,-1
 746 1006 l 257,9,-1
 804 1006 l 257,10,-1
 804 1485 l 257,11,-1
 746 1485 l 257,8,-1
108 1045 m 257,12,-1
 108 985 l 257,13,-1
 804 985 l 257,14,-1
 804 1045 l 257,15,-1
 108 1045 l 257,12,-1
108 1045 m 257,16,-1
 108 24 l 257,17,-1
 198 24 l 257,18,-1
 198 1045 l 257,19,-1
 108 1045 l 257,16,-1
108 71 m 257,20,-1
 108 6 l 257,21,-1
 916 6 l 257,22,-1
 916 71 l 257,23,-1
 108 71 l 257,20,-1
EndSplineSet
EndChar

StartChar: approxequal
Encoding: 8776 8776 136
GlifName: approxequal
Width: 1024
VWidth: 0
GlyphClass: 2
Flags: W
LayerCount: 2
Fore
SplineSet
330 528 m 257,0,-1
 330 460 l 257,1,-1
 680 399 l 257,2,-1
 680 467 l 257,3,-1
 330 528 l 257,0,-1
92 470 m 257,4,-1
 107 403 l 257,5,-1
 330 460 l 257,6,-1
 330 528 l 257,7,-1
 92 470 l 257,4,-1
680 467 m 257,8,-1
 680 399 l 257,9,-1
 861 540 l 257,10,-1
 837 605 l 257,11,-1
 680 467 l 257,8,-1
330 815 m 257,12,-1
 330 752 l 257,13,-1
 680 691 l 257,14,-1
 680 754 l 257,15,-1
 330 815 l 257,12,-1
92 757 m 257,16,-1
 107 695 l 257,17,-1
 330 752 l 257,18,-1
 330 815 l 257,19,-1
 92 757 l 257,16,-1
680 754 m 257,20,-1
 680 691 l 257,21,-1
 861 832 l 257,22,-1
 837 892 l 257,23,-1
 680 754 l 257,20,-1
EndSplineSet
EndChar

StartChar: asciicircum
Encoding: 94 94 139
GlifName: asciicircum
Width: 1024
VWidth: 0
GlyphClass: 2
Flags: W
LayerCount: 2
Fore
SplineSet
510 1023 m 257,0,-1
 438 1023 l 257,1,-1
 174 407 l 257,2,-1
 228 373 l 257,3,-1
 510 1023 l 257,0,-1
444 1030 m 257,4,-1
 768 364 l 257,5,-1
 850 400 l 257,6,-1
 518 1030 l 257,7,-1
 444 1030 l 257,4,-1
EndSplineSet
EndChar

StartChar: asciitilde
Encoding: 126 126 140
GlifName: asciitilde
Width: 1024
VWidth: 0
GlyphClass: 2
Flags: W
LayerCount: 2
Fore
SplineSet
366 766 m 257,0,-1
 366 716 l 257,1,-1
 716 645 l 257,2,-1
 716 695 l 257,3,-1
 366 766 l 257,0,-1
126 710 m 257,4,-1
 140 652 l 257,5,-1
 366 716 l 257,6,-1
 366 766 l 257,7,-1
 126 710 l 257,4,-1
716 695 m 257,8,-1
 716 645 l 257,9,-1
 898 796 l 257,10,-1
 884 843 l 257,11,-1
 716 695 l 257,8,-1
EndSplineSet
EndChar

StartChar: asterisk
Encoding: 42 42 141
GlifName: asterisk
Width: 1024
VWidth: 0
GlyphClass: 2
Flags: W
LayerCount: 2
Fore
SplineSet
486 1297 m 257,0,-1
 486 289 l 257,1,-1
 586 289 l 257,2,-1
 586 1297 l 257,3,-1
 486 1297 l 257,0,-1
140 1153 m 257,4,-1
 864 424 l 257,5,-1
 932 496 l 257,6,-1
 200 1222 l 257,7,-1
 140 1153 l 257,4,-1
840 1200 m 257,8,-1
 92 449 l 257,9,-1
 148 399 l 257,10,-1
 892 1134 l 257,11,-1
 840 1200 l 257,8,-1
EndSplineSet
EndChar

StartChar: at
Encoding: 64 64 142
GlifName: at
Width: 1024
VWidth: 0
GlyphClass: 2
Flags: W
LayerCount: 2
Fore
SplineSet
82 1023 m 257,0,-1
 82 956 l 257,1,-1
 980 956 l 257,2,-1
 980 1023 l 257,3,-1
 82 1023 l 257,0,-1
740 598 m 257,4,-1
 740 0 l 257,5,-1
 808 0 l 257,6,-1
 808 598 l 257,7,-1
 740 598 l 257,4,-1
320 601 m 257,8,-1
 320 551 l 257,9,-1
 744 551 l 257,10,-1
 744 601 l 257,11,-1
 320 601 l 257,8,-1
316 589 m 257,12,-1
 316 12 l 257,13,-1
 370 12 l 257,14,-1
 370 589 l 257,15,-1
 316 589 l 257,12,-1
314 76 m 257,16,-1
 314 0 l 257,17,-1
 808 0 l 257,18,-1
 808 76 l 257,19,-1
 314 76 l 257,16,-1
28 1023 m 257,20,-1
 28 -223 l 257,21,-1
 94 -223 l 257,22,-1
 94 1023 l 257,23,-1
 28 1023 l 257,20,-1
26 -179 m 257,24,-1
 26 -258 l 257,25,-1
 974 -258 l 257,26,-1
 974 -179 l 257,27,-1
 26 -179 l 257,24,-1
912 1033 m 257,28,-1
 912 0 l 257,29,-1
 998 0 l 257,30,-1
 998 1033 l 257,31,-1
 912 1033 l 257,28,-1
754 76 m 257,32,-1
 754 0 l 257,33,-1
 944 0 l 257,34,-1
 944 76 l 257,35,-1
 754 76 l 257,32,-1
EndSplineSet
EndChar

StartChar: b
Encoding: 98 98 144
GlifName: b
Width: 1024
VWidth: 0
GlyphClass: 2
Flags: W
AnchorPoint: "base" 498 -36 basechar 0
AnchorPoint: "top" 220 1646 basechar 0
LayerCount: 2
Fore
SplineSet
135 1536 m 257,0,-1
 135 0 l 257,1,-1
 195 0 l 257,2,-1
 195 1536 l 257,3,-1
 135 1536 l 257,0,-1
178 1033 m 257,4,-1
 178 972 l 257,5,-1
 842 972 l 257,6,-1
 842 1033 l 257,7,-1
 178 1033 l 257,4,-1
829 1033 m 257,8,-1
 829 0 l 257,9,-1
 889 0 l 257,10,-1
 889 1033 l 257,11,-1
 829 1033 l 257,8,-1
170 60 m 257,12,-1
 170 0 l 257,13,-1
 867 0 l 257,14,-1
 867 60 l 257,15,-1
 170 60 l 257,12,-1
EndSplineSet
EndChar

StartChar: backslash
Encoding: 92 92 145
GlifName: backslash
Width: 1024
VWidth: 0
GlyphClass: 2
Flags: W
LayerCount: 2
Fore
SplineSet
195 1550 m 257,0,-1
 751 0 l 257,1,-1
 829 0 l 257,2,-1
 278 1550 l 257,3,-1
 195 1550 l 257,0,-1
EndSplineSet
EndChar

StartChar: bar
Encoding: 124 124 146
GlifName: bar
Width: 1024
VWidth: 0
GlyphClass: 2
Flags: W
LayerCount: 2
Fore
SplineSet
472 1435 m 257,0,-1
 472 -90 l 257,1,-1
 552 -90 l 257,2,-1
 552 1435 l 257,3,-1
 472 1435 l 257,0,-1
EndSplineSet
EndChar

StartChar: braceleft
Encoding: 123 123 147
GlifName: braceleft
Width: 1024
VWidth: 0
GlyphClass: 2
Flags: W
LayerCount: 2
Fore
SplineSet
512 1544 m 257,0,-1
 512 838 l 257,1,-1
 596 838 l 257,2,-1
 596 1544 l 257,3,-1
 512 1544 l 257,0,-1
524 424 m 257,4,-1
 524 -286 l 257,5,-1
 614 -286 l 257,6,-1
 614 424 l 257,7,-1
 524 424 l 257,4,-1
223 690 m 257,8,-1
 223 630 l 257,9,-1
 596 838 l 257,10,-1
 512 838 l 257,11,-1
 223 690 l 257,8,-1
223 690 m 257,12,-1
 223 630 l 257,13,-1
 522 425 l 257,14,-1
 615 425 l 257,15,-1
 223 690 l 257,12,-1
513 1603 m 257,16,-1
 513 1452 l 257,17,-1
 781 1574 l 257,18,-1
 785 1603 l 257,19,-1
 513 1603 l 257,16,-1
525 -140 m 257,20,-1
 525 -287 l 257,21,-1
 801 -287 l 257,22,-1
 801 -274 l 257,23,-1
 525 -140 l 257,20,-1
EndSplineSet
EndChar

StartChar: braceright
Encoding: 125 125 148
GlifName: braceright
Width: 1024
VWidth: 0
GlyphClass: 2
Flags: W
LayerCount: 2
Fore
SplineSet
528 1544 m 257,0,-1
 428 1544 l 257,1,-1
 428 838 l 257,2,-1
 528 838 l 257,3,-1
 528 1544 l 257,0,-1
514 424 m 257,4,-1
 421 424 l 257,5,-1
 421 -286 l 257,6,-1
 514 -286 l 257,7,-1
 514 424 l 257,4,-1
801 690 m 257,8,-1
 523 838 l 257,9,-1
 424 838 l 257,10,-1
 801 630 l 257,11,-1
 801 690 l 257,8,-1
801 690 m 257,12,-1
 421 424 l 257,13,-1
 514 424 l 257,14,-1
 801 630 l 257,15,-1
 801 690 l 257,12,-1
529 1603 m 257,16,-1
 254 1603 l 257,17,-1
 258 1574 l 257,18,-1
 529 1452 l 257,19,-1
 529 1603 l 257,16,-1
499 -140 m 257,20,-1
 223 -274 l 257,21,-1
 223 -284 l 257,22,-1
 499 -284 l 257,23,-1
 499 -140 l 257,20,-1
EndSplineSet
EndChar

StartChar: bracketleft
Encoding: 91 91 149
GlifName: bracketleft
Width: 1024
VWidth: 0
GlyphClass: 2
Flags: W
LayerCount: 2
Fore
SplineSet
378 1542 m 257,0,-1
 378 -242 l 257,1,-1
 435 -242 l 257,2,-1
 435 1542 l 257,3,-1
 378 1542 l 257,0,-1
432 1543 m 257,4,-1
 432 1481 l 257,5,-1
 641 1481 l 257,6,-1
 641 1543 l 257,7,-1
 432 1543 l 257,4,-1
414 -168 m 257,8,-1
 414 -242 l 257,9,-1
 646 -242 l 257,10,-1
 646 -168 l 257,11,-1
 414 -168 l 257,8,-1
EndSplineSet
EndChar

StartChar: bracketright
Encoding: 93 93 150
GlifName: bracketright
Width: 1024
VWidth: 0
GlyphClass: 2
Flags: W
LayerCount: 2
Fore
SplineSet
587 1542 m 257,0,-1
 587 -242 l 257,1,-1
 649 -242 l 257,2,-1
 649 1542 l 257,3,-1
 587 1542 l 257,0,-1
375 1543 m 257,4,-1
 375 1478 l 257,5,-1
 603 1478 l 257,6,-1
 603 1543 l 257,7,-1
 375 1543 l 257,4,-1
375 -165 m 257,8,-1
 375 -242 l 257,9,-1
 614 -242 l 257,10,-1
 614 -165 l 257,11,-1
 375 -165 l 257,8,-1
EndSplineSet
EndChar

StartChar: breve
Encoding: 728 728 151
GlifName: breve
Width: 1024
VWidth: 0
GlyphClass: 2
Flags: W
LayerCount: 2
Fore
SplineSet
656 1550 m 257,0,-1
 656 1480 l 257,1,-1
 821 1550 l 257,2,-1
 821 1645 l 257,3,-1
 656 1550 l 257,0,-1
332 1550 m 257,4,-1
 332 1480 l 257,5,-1
 656 1480 l 257,6,-1
 656 1550 l 257,7,-1
 332 1550 l 257,4,-1
161 1630 m 257,8,-1
 161 1550 l 257,9,-1
 332 1480 l 257,10,-1
 332 1550 l 257,11,-1
 161 1630 l 257,8,-1
EndSplineSet
EndChar

StartChar: brokenbar
Encoding: 166 166 152
GlifName: brokenbar
Width: 1024
VWidth: 0
GlyphClass: 2
Flags: W
LayerCount: 2
Fore
SplineSet
490 -332 m 257,0,-1
 534 -332 l 257,1,-1
 534 682 l 257,2,-1
 490 682 l 257,3,-1
 490 -332 l 257,0,-1
497 790 m 257,4,-1
 534 790 l 257,5,-1
 534 1636 l 257,6,-1
 497 1636 l 257,7,-1
 497 790 l 257,4,-1
EndSplineSet
EndChar

StartChar: bullet
Encoding: 8226 8226 153
GlifName: bullet
Width: 1024
VWidth: 0
GlyphClass: 2
Flags: W
LayerCount: 2
Fore
SplineSet
435 1009 m 257,0,-1
 435 844 l 257,1,-1
 589 844 l 257,2,-1
 589 1009 l 257,3,-1
 435 1009 l 257,0,-1
EndSplineSet
EndChar

StartChar: c
Encoding: 99 99 154
GlifName: c
Width: 1024
VWidth: 0
GlyphClass: 2
Flags: W
AnchorPoint: "base" 498 -36 basechar 0
AnchorPoint: "top" 521 1116 basechar 0
LayerCount: 2
Fore
SplineSet
164 1023 m 257,0,-1
 164 967 l 257,1,-1
 860 967 l 257,2,-1
 860 1023 l 257,3,-1
 164 1023 l 257,0,-1
166 984 m 257,4,-1
 166 0 l 257,5,-1
 226 0 l 257,6,-1
 226 984 l 257,7,-1
 166 984 l 257,4,-1
214 60 m 257,8,-1
 214 0 l 257,9,-1
 854 0 l 257,10,-1
 854 60 l 257,11,-1
 214 60 l 257,8,-1
EndSplineSet
EndChar

StartChar: caron
Encoding: 711 711 156
GlifName: caron
Width: 1024
VWidth: 0
GlyphClass: 2
Flags: W
LayerCount: 2
Fore
SplineSet
524 1068 m 257,0,-1
 383 1395 l 257,1,-1
 356 1378 l 257,2,-1
 488 1068 l 257,3,-1
 524 1068 l 257,0,-1
491 1067 m 257,4,-1
 528 1067 l 257,5,-1
 694 1382 l 257,6,-1
 653 1400 l 257,7,-1
 491 1067 l 257,4,-1
EndSplineSet
EndChar

StartChar: cedilla
Encoding: 184 184 161
GlifName: cedilla
Width: 1024
VWidth: 0
GlyphClass: 2
Flags: W
LayerCount: 2
Fore
SplineSet
286 20 m 257,0,-1
 286 -220 l 257,1,-1
 344 -220 l 257,2,-1
 344 20 l 257,3,-1
 286 20 l 257,0,-1
292 -507 m 257,4,-1
 292 -566 l 257,5,-1
 738 -566 l 257,6,-1
 738 -507 l 257,7,-1
 292 -507 l 257,4,-1
679 -160 m 257,8,-1
 679 -532 l 257,9,-1
 738 -532 l 257,10,-1
 738 -160 l 257,11,-1
 679 -160 l 257,8,-1
292 -160 m 257,12,-1
 292 -220 l 257,13,-1
 738 -220 l 257,14,-1
 738 -160 l 257,15,-1
 292 -160 l 257,12,-1
EndSplineSet
EndChar

StartChar: cent
Encoding: 162 162 162
GlifName: cent
Width: 1024
VWidth: 0
GlyphClass: 2
Flags: W
LayerCount: 2
Fore
SplineSet
604 1183 m 257,0,-1
 544 1183 l 257,1,-1
 544 -86 l 257,2,-1
 604 -86 l 257,3,-1
 604 1183 l 257,0,-1
164 1023 m 257,4,-1
 164 966 l 257,5,-1
 860 966 l 257,6,-1
 860 1023 l 257,7,-1
 164 1023 l 257,4,-1
166 984 m 257,8,-1
 166 0 l 257,9,-1
 231 0 l 257,10,-1
 231 984 l 257,11,-1
 166 984 l 257,8,-1
215 61 m 257,12,-1
 215 0 l 257,13,-1
 854 0 l 257,14,-1
 854 61 l 257,15,-1
 215 61 l 257,12,-1
EndSplineSet
EndChar

StartChar: circumflex
Encoding: 710 710 163
GlifName: circumflex
Width: 1024
VWidth: 0
GlyphClass: 2
Flags: W
LayerCount: 2
Fore
SplineSet
511 1308 m 257,0,-1
 475 1308 l 257,1,-1
 343 998 l 257,2,-1
 370 981 l 257,3,-1
 511 1308 l 257,0,-1
478 1310 m 257,4,-1
 640 976 l 257,5,-1
 681 994 l 257,6,-1
 515 1310 l 257,7,-1
 478 1310 l 257,4,-1
EndSplineSet
EndChar

StartChar: colon
Encoding: 58 58 164
GlifName: colon
Width: 1024
VWidth: 0
GlyphClass: 2
Flags: W
LayerCount: 2
Fore
SplineSet
444 164 m 257,0,-1
 444 7 l 257,1,-1
 580 7 l 257,2,-1
 580 164 l 257,3,-1
 444 164 l 257,0,-1
462 1035 m 257,4,-1
 462 878 l 257,5,-1
 598 878 l 257,6,-1
 598 1035 l 257,7,-1
 462 1035 l 257,4,-1
EndSplineSet
EndChar

StartChar: colonmonetary
Encoding: 8353 8353 165
GlifName: colonmonetary
Width: 1024
VWidth: 0
GlyphClass: 2
Flags: W
VStem: 124 5<1508 1508>
LayerCount: 2
Fore
SplineSet
871 1650 m 257,0,-1
 256 42 l 257,1,-1
 301 -31 l 257,2,-1
 930 1636 l 257,3,-1
 871 1650 l 257,0,-1
561 1642 m 257,4,-1
 -9 165 l 257,5,-1
 47 140 l 257,6,-1
 617 1617 l 257,7,-1
 561 1642 l 257,4,-1
71 1573 m 257,8,-1
 71 36 l 257,9,-1
 129 36 l 257,10,-1
 129 1573 l 257,11,-1
 71 1573 l 257,8,-1
125 1573 m 257,12,-1
 124 1508 l 257,13,-1
 952 1508 l 257,14,-1
 953 1573 l 257,15,-1
 125 1573 l 257,12,-1
112 92 m 257,16,-1
 112 36 l 257,17,-1
 951 36 l 257,18,-1
 951 92 l 257,19,-1
 112 92 l 257,16,-1
EndSplineSet
PickledDataWithLists: "(dp0
Vcom.fontlab.hintData
p1
(dp2
Vvhints
p3
(lp4
(dp5
Vposition
p6
I124
sVwidth
p7
I5
sass."
EndChar

StartChar: comma
Encoding: 44 44 166
GlifName: comma
Width: 1024
VWidth: 0
GlyphClass: 2
Flags: W
LayerCount: 2
Fore
SplineSet
444 165 m 257,0,-1
 444 8 l 257,1,-1
 580 8 l 257,2,-1
 580 165 l 257,3,-1
 444 165 l 257,0,-1
528 135 m 257,4,-1
 486 -99 l 257,5,-1
 536 -148 l 257,6,-1
 578 26 l 257,7,-1
 528 135 l 257,4,-1
EndSplineSet
EndChar

StartChar: copyright
Encoding: 169 169 167
GlifName: copyright
Width: 1024
VWidth: 0
GlyphClass: 2
Flags: W
LayerCount: 2
Fore
SplineSet
12 1540 m 257,0,-1
 12 0 l 257,1,-1
 72 0 l 257,2,-1
 72 1540 l 257,3,-1
 12 1540 l 257,0,-1
952 1537 m 257,4,-1
 952 0 l 257,5,-1
 1012 0 l 257,6,-1
 1012 1537 l 257,7,-1
 952 1537 l 257,4,-1
64 1538 m 257,8,-1
 64 1476 l 257,9,-1
 1008 1476 l 257,10,-1
 1008 1538 l 257,11,-1
 64 1538 l 257,8,-1
24 60 m 257,12,-1
 24 0 l 257,13,-1
 994 0 l 257,14,-1
 994 60 l 257,15,-1
 24 60 l 257,12,-1
258 1197 m 257,16,-1
 258 1135 l 257,17,-1
 692 1135 l 257,18,-1
 692 1197 l 257,19,-1
 258 1197 l 257,16,-1
258 1154 m 257,20,-1
 258 340 l 257,21,-1
 318 340 l 257,22,-1
 318 1154 l 257,23,-1
 258 1154 l 257,20,-1
258 356 m 257,24,-1
 258 294 l 257,25,-1
 698 294 l 257,26,-1
 698 356 l 257,27,-1
 258 356 l 257,24,-1
EndSplineSet
EndChar

StartChar: currency
Encoding: 164 164 168
GlifName: currency
Width: 1024
VWidth: 0
GlyphClass: 2
Flags: W
LayerCount: 2
Fore
SplineSet
98 1182 m 257,0,-1
 98 160 l 257,1,-1
 158 160 l 257,2,-1
 158 1182 l 257,3,-1
 98 1182 l 257,0,-1
856 1184 m 257,4,-1
 856 160 l 257,5,-1
 916 160 l 257,6,-1
 916 1184 l 257,7,-1
 856 1184 l 257,4,-1
160 1187 m 257,8,-1
 160 1127 l 257,9,-1
 860 1127 l 257,10,-1
 860 1187 l 257,11,-1
 160 1187 l 257,8,-1
144 222 m 257,12,-1
 144 160 l 257,13,-1
 864 160 l 257,14,-1
 864 222 l 257,15,-1
 144 222 l 257,12,-1
24 1251 m 257,16,-1
 24 1137 l 257,17,-1
 168 1137 l 257,18,-1
 168 1251 l 257,19,-1
 24 1251 l 257,16,-1
860 1241 m 257,20,-1
 860 1127 l 257,21,-1
 1002 1127 l 257,22,-1
 1002 1241 l 257,23,-1
 860 1241 l 257,20,-1
18 223 m 257,24,-1
 18 109 l 257,25,-1
 162 109 l 257,26,-1
 162 223 l 257,27,-1
 18 223 l 257,24,-1
862 220 m 257,28,-1
 862 106 l 257,29,-1
 1006 106 l 257,30,-1
 1006 220 l 257,31,-1
 862 220 l 257,28,-1
EndSplineSet
EndChar

StartChar: d
Encoding: 100 100 169
GlifName: d
Width: 1024
VWidth: 0
GlyphClass: 2
Flags: W
AnchorPoint: "base" 506 -56 basechar 0
AnchorPoint: "top" 824 1642 basechar 0
LayerCount: 2
Fore
SplineSet
832 1527 m 257,0,-1
 832 0 l 257,1,-1
 892 0 l 257,2,-1
 892 1527 l 257,3,-1
 832 1527 l 257,0,-1
176 1023 m 257,4,-1
 176 966 l 257,5,-1
 866 966 l 257,6,-1
 866 1023 l 257,7,-1
 176 1023 l 257,4,-1
132 1023 m 257,8,-1
 132 0 l 257,9,-1
 192 0 l 257,10,-1
 192 1023 l 257,11,-1
 132 1023 l 257,8,-1
172 59 m 257,12,-1
 172 0 l 257,13,-1
 844 0 l 257,14,-1
 844 59 l 257,15,-1
 172 59 l 257,12,-1
EndSplineSet
EndChar

StartChar: dagger
Encoding: 8224 8224 170
GlifName: dagger
Width: 1024
VWidth: 0
GlyphClass: 2
Flags: W
LayerCount: 2
Fore
SplineSet
209 1251 m 257,0,-1
 209 1200 l 257,1,-1
 815 1200 l 257,2,-1
 815 1251 l 257,3,-1
 209 1251 l 257,0,-1
481 1550 m 257,4,-1
 481 0 l 257,5,-1
 547 0 l 257,6,-1
 547 1550 l 257,7,-1
 481 1550 l 257,4,-1
EndSplineSet
EndChar

StartChar: daggerdbl
Encoding: 8225 8225 171
GlifName: daggerdbl
Width: 1024
VWidth: 0
GlyphClass: 2
Flags: W
LayerCount: 2
Fore
SplineSet
209 823 m 257,0,-1
 209 772 l 257,1,-1
 815 772 l 257,2,-1
 815 823 l 257,3,-1
 209 823 l 257,0,-1
209 1251 m 257,4,-1
 209 1200 l 257,5,-1
 815 1200 l 257,6,-1
 815 1251 l 257,7,-1
 209 1251 l 257,4,-1
490 1550 m 257,8,-1
 490 0 l 257,9,-1
 552 0 l 257,10,-1
 552 1550 l 257,11,-1
 490 1550 l 257,8,-1
EndSplineSet
EndChar

StartChar: dcaron
Encoding: 271 271 172
GlifName: dcaron
Width: 1024
VWidth: 0
GlyphClass: 2
Flags: W
LayerCount: 2
Fore
SplineSet
758 1527 m 257,0,-1
 758 0 l 257,1,-1
 818 0 l 257,2,-1
 818 1527 l 257,3,-1
 758 1527 l 257,0,-1
102 1023 m 257,4,-1
 102 962 l 257,5,-1
 778 962 l 257,6,-1
 778 1023 l 257,7,-1
 102 1023 l 257,4,-1
58 1023 m 257,8,-1
 58 0 l 257,9,-1
 116 0 l 257,10,-1
 116 1023 l 257,11,-1
 58 1023 l 257,8,-1
74 60 m 257,12,-1
 74 0 l 257,13,-1
 770 0 l 257,14,-1
 770 60 l 257,15,-1
 74 60 l 257,12,-1
916 1496 m 257,16,-1
 916 1264 l 257,17,-1
 966 1264 l 257,18,-1
 966 1496 l 257,19,-1
 916 1496 l 257,16,-1
EndSplineSet
EndChar

StartChar: dcroat
Encoding: 273 273 173
GlifName: dcroat
Width: 1024
VWidth: 0
GlyphClass: 2
Flags: W
AnchorPoint: "top" 792 1648 basechar 0
AnchorPoint: "base" 522 -86 basechar 0
LayerCount: 2
Fore
SplineSet
780 1527 m 257,0,-1
 780 0 l 257,1,-1
 840 0 l 257,2,-1
 840 1527 l 257,3,-1
 780 1527 l 257,0,-1
110 1023 m 257,4,-1
 110 962 l 257,5,-1
 802 962 l 257,6,-1
 802 1023 l 257,7,-1
 110 1023 l 257,4,-1
78 1023 m 257,8,-1
 78 0 l 257,9,-1
 138 0 l 257,10,-1
 138 1023 l 257,11,-1
 78 1023 l 257,8,-1
126 61 m 257,12,-1
 126 0 l 257,13,-1
 792 0 l 257,14,-1
 792 61 l 257,15,-1
 126 61 l 257,12,-1
638 1260 m 257,16,-1
 638 1202 l 257,17,-1
 946 1202 l 257,18,-1
 946 1260 l 257,19,-1
 638 1260 l 257,16,-1
EndSplineSet
EndChar

StartChar: degree
Encoding: 176 176 174
GlifName: degree
Width: 1024
VWidth: 0
GlyphClass: 2
Flags: W
LayerCount: 2
Fore
SplineSet
391 1439 m 257,0,-1
 641 1439 l 257,1,-1
 641 1231 l 257,2,-1
 391 1231 l 257,3,-1
 391 1439 l 257,0,-1
332 1488 m 257,4,-1
 332 1179 l 257,5,-1
 692 1179 l 257,6,-1
 692 1488 l 257,7,-1
 332 1488 l 257,4,-1
EndSplineSet
EndChar

StartChar: dieresis
Encoding: 168 168 175
GlifName: dieresis
Width: 1024
VWidth: 0
GlyphClass: 2
Flags: W
LayerCount: 2
Fore
SplineSet
360 1023 m 257,0,-1
 360 950 l 257,1,-1
 427 950 l 257,2,-1
 427 1023 l 257,3,-1
 360 1023 l 257,0,-1
539 1020 m 257,4,-1
 539 938 l 257,5,-1
 605 940 l 257,6,-1
 605 1022 l 257,7,-1
 539 1020 l 257,4,-1
EndSplineSet
EndChar

StartChar: divide
Encoding: 247 247 176
GlifName: divide
Width: 1024
VWidth: 0
GlyphClass: 2
Flags: W
LayerCount: 2
Fore
SplineSet
477 264 m 257,0,-1
 477 201 l 257,1,-1
 579 201 l 257,2,-1
 579 264 l 257,3,-1
 477 264 l 257,0,-1
466 1111 m 257,4,-1
 466 1047 l 257,5,-1
 557 1047 l 257,6,-1
 557 1111 l 257,7,-1
 466 1111 l 257,4,-1
99 662 m 257,8,-1
 99 600 l 257,9,-1
 925 600 l 257,10,-1
 925 662 l 257,11,-1
 99 662 l 257,8,-1
EndSplineSet
EndChar

StartChar: dollar
Encoding: 36 36 177
GlifName: dollar
Width: 1024
VWidth: 0
GlyphClass: 2
Flags: W
LayerCount: 2
Fore
SplineSet
126 1539 m 257,0,-1
 126 1457 l 257,1,-1
 724 1457 l 257,2,-1
 724 1539 l 257,3,-1
 126 1539 l 257,0,-1
126 1542 m 257,4,-1
 126 1028 l 257,5,-1
 210 1028 l 257,6,-1
 210 1542 l 257,7,-1
 126 1542 l 257,4,-1
154 69 m 257,8,-1
 154 0 l 257,9,-1
 862 0 l 257,10,-1
 862 69 l 257,11,-1
 154 69 l 257,8,-1
818 0 m 257,12,-1
 898 0 l 257,13,-1
 898 355 l 257,14,-1
 818 355 l 257,15,-1
 818 0 l 257,12,-1
126 1028 m 257,16,-1
 817 355 l 257,17,-1
 898 355 l 257,18,-1
 210 1028 l 257,19,-1
 126 1028 l 257,16,-1
421 1636 m 257,20,-1
 421 -215 l 257,21,-1
 491 -215 l 257,22,-1
 491 1636 l 257,23,-1
 421 1636 l 257,20,-1
EndSplineSet
EndChar

StartChar: dong
Encoding: 8363 8363 178
GlifName: dong
Width: 1024
VWidth: 0
GlyphClass: 2
Flags: W
VStem: 198 7<98 174 98 1023 949 1023 949 949>
LayerCount: 2
Fore
SplineSet
228 18 m 257,0,-1
 228 -56 l 257,1,-1
 845 -56 l 257,2,-1
 845 18 l 257,3,-1
 228 18 l 257,0,-1
819 1527 m 257,4,-1
 819 98 l 257,5,-1
 893 98 l 257,6,-1
 893 1527 l 257,7,-1
 819 1527 l 257,4,-1
198 1023 m 257,8,-1
 198 949 l 257,9,-1
 882 949 l 257,10,-1
 882 1023 l 257,11,-1
 198 1023 l 257,8,-1
132 1023 m 257,12,-1
 132 98 l 257,13,-1
 205 98 l 257,14,-1
 205 1023 l 257,15,-1
 132 1023 l 257,12,-1
198 174 m 257,16,-1
 198 98 l 257,17,-1
 845 98 l 257,18,-1
 845 174 l 257,19,-1
 198 174 l 257,16,-1
704 1403 m 257,20,-1
 704 1324 l 257,21,-1
 999 1324 l 257,22,-1
 999 1403 l 257,23,-1
 704 1403 l 257,20,-1
EndSplineSet
PickledDataWithLists: "(dp0
Vcom.fontlab.hintData
p1
(dp2
Vvhints
p3
(lp4
(dp5
Vposition
p6
I198
sVwidth
p7
I7
sass."
EndChar

StartChar: dotaccent
Encoding: 729 729 179
GlifName: dotaccent
Width: 1024
VWidth: 0
GlyphClass: 2
Flags: W
LayerCount: 2
Fore
SplineSet
490 1078 m 257,0,-1
 490 977 l 257,1,-1
 602 977 l 257,2,-1
 602 1078 l 257,3,-1
 490 1078 l 257,0,-1
EndSplineSet
EndChar

StartChar: dotbelowcomb
Encoding: 803 803 180
GlifName: dotbelowcomb
Width: 0
VWidth: 0
GlyphClass: 4
Flags: W
AnchorPoint: "base" 2 -281 mark 0
LayerCount: 2
Fore
SplineSet
-40 -290 m 257,0,-1
 -40 -365 l 257,1,-1
 40 -365 l 257,2,-1
 40 -290 l 257,3,-1
 -40 -290 l 257,0,-1
EndSplineSet
EndChar

StartChar: dotlessi
Encoding: 305 305 181
GlifName: dotlessi
Width: 1024
VWidth: 0
GlyphClass: 2
Flags: W
AnchorPoint: "top" 492 1191 basechar 0
AnchorPoint: "base" 1182 -9 basechar 0
LayerCount: 2
Fore
SplineSet
510 1023 m 257,0,-1
 510 52 l 257,1,-1
 570 52 l 257,2,-1
 570 1023 l 257,3,-1
 510 1023 l 257,0,-1
141 60 m 257,4,-1
 141 0 l 257,5,-1
 883 0 l 257,6,-1
 883 60 l 257,7,-1
 141 60 l 257,4,-1
191 1023 m 257,8,-1
 191 962 l 257,9,-1
 527 962 l 257,10,-1
 527 1023 l 257,11,-1
 191 1023 l 257,8,-1
EndSplineSet
EndChar

StartChar: e
Encoding: 101 101 182
GlifName: e
Width: 1024
VWidth: 0
GlyphClass: 2
Flags: W
AnchorPoint: "top" 512 1166 basechar 0
AnchorPoint: "base" 492 -96 basechar 0
LayerCount: 2
Fore
SplineSet
218 1023 m 257,0,-1
 204 972 l 257,1,-1
 843 972 l 257,2,-1
 857 1023 l 257,3,-1
 218 1023 l 257,0,-1
166 1023 m 257,4,-1
 166 0 l 257,5,-1
 224 0 l 257,6,-1
 224 1023 l 257,7,-1
 166 1023 l 257,4,-1
208 61 m 257,8,-1
 208 0 l 257,9,-1
 853 0 l 257,10,-1
 853 61 l 257,11,-1
 208 61 l 257,8,-1
187 506 m 257,12,-1
 195 446 l 257,13,-1
 824 446 l 257,14,-1
 824 506 l 257,15,-1
 187 506 l 257,12,-1
799 1023 m 257,16,-1
 799 445 l 257,17,-1
 858 445 l 257,18,-1
 858 1023 l 257,19,-1
 799 1023 l 257,16,-1
EndSplineSet
EndChar

StartChar: eight
Encoding: 56 56 190
GlifName: eight
Width: 1024
VWidth: 0
GlyphClass: 2
Flags: W
LayerCount: 2
Fore
SplineSet
56 1550 m 257,0,-1
 56 0 l 257,1,-1
 969 0 l 257,2,-1
 969 1550 l 257,3,-1
 56 1550 l 257,0,-1
907 899 m 257,4,-1
 907 57 l 257,5,-1
 119 57 l 257,6,-1
 119 899 l 257,7,-1
 907 899 l 257,4,-1
908 959 m 257,8,-1
 118 959 l 257,9,-1
 118 1489 l 257,10,-1
 908 1489 l 257,11,-1
 908 959 l 257,8,-1
EndSplineSet
EndChar

StartChar: ellipsis
Encoding: 8230 8230 191
GlifName: ellipsis
Width: 1024
VWidth: 0
GlyphClass: 2
Flags: W
LayerCount: 2
Fore
SplineSet
180 114 m 257,0,-1
 180 0 l 257,1,-1
 322 0 l 257,2,-1
 322 114 l 257,3,-1
 180 114 l 257,0,-1
436 114 m 257,4,-1
 436 0 l 257,5,-1
 580 0 l 257,6,-1
 580 114 l 257,7,-1
 436 114 l 257,4,-1
702 114 m 257,8,-1
 702 0 l 257,9,-1
 844 0 l 257,10,-1
 844 114 l 257,11,-1
 702 114 l 257,8,-1
EndSplineSet
EndChar

StartChar: emdash
Encoding: 8212 8212 193
GlifName: emdash
Width: 1024
VWidth: 0
GlyphClass: 2
Flags: W
LayerCount: 2
Fore
SplineSet
0 600 m 257,0,-1
 1024 600 l 257,1,-1
 1024 651 l 257,2,-1
 0 651 l 257,3,-1
 0 600 l 257,0,-1
EndSplineSet
EndChar

StartChar: endash
Encoding: 8211 8211 194
GlifName: endash
Width: 1024
VWidth: 0
GlyphClass: 2
Flags: W
LayerCount: 2
Fore
SplineSet
99 600 m 257,0,-1
 925 600 l 257,1,-1
 925 680 l 257,2,-1
 99 680 l 257,3,-1
 99 600 l 257,0,-1
EndSplineSet
EndChar

StartChar: eng
Encoding: 331 331 195
GlifName: eng
Width: 1024
VWidth: 0
GlyphClass: 2
Flags: W
AnchorPoint: "top" 474 1150 basechar 0
AnchorPoint: "base" 516 -500 basechar 0
LayerCount: 2
Fore
SplineSet
456 -348 m 257,0,-1
 456 -408 l 257,1,-1
 843 -408 l 257,2,-1
 843 -348 l 257,3,-1
 456 -348 l 257,0,-1
244 990 m 257,4,-1
 244 0 l 257,5,-1
 304 0 l 257,6,-1
 304 990 l 257,7,-1
 244 990 l 257,4,-1
784 976 m 257,8,-1
 784 -408 l 257,9,-1
 844 -408 l 257,10,-1
 844 976 l 257,11,-1
 784 976 l 257,8,-1
65 1023 m 257,12,-1
 65 963 l 257,13,-1
 843 963 l 257,14,-1
 843 1023 l 257,15,-1
 65 1023 l 257,12,-1
EndSplineSet
EndChar

StartChar: equal
Encoding: 61 61 197
GlifName: equal
Width: 1024
VWidth: 0
GlyphClass: 2
Flags: W
LayerCount: 2
Fore
SplineSet
104 824 m 257,0,-1
 104 724 l 257,1,-1
 920 724 l 257,2,-1
 920 824 l 257,3,-1
 104 824 l 257,0,-1
104 540 m 257,4,-1
 104 450 l 257,5,-1
 920 450 l 257,6,-1
 920 540 l 257,7,-1
 104 540 l 257,4,-1
EndSplineSet
EndChar

StartChar: eth
Encoding: 240 240 198
GlifName: eth
Width: 1024
VWidth: 0
GlyphClass: 2
Flags: W
AnchorPoint: "top" 251 1604 basechar 0
AnchorPoint: "base" 507 -118 basechar 0
LayerCount: 2
Fore
SplineSet
240 1550 m 257,0,-1
 844 0 l 257,1,-1
 892 0 l 257,2,-1
 296 1550 l 257,3,-1
 240 1550 l 257,0,-1
172 1023 m 257,4,-1
 172 964 l 257,5,-1
 496 964 l 257,6,-1
 496 1023 l 257,7,-1
 172 1023 l 257,4,-1
132 1023 m 257,8,-1
 132 0 l 257,9,-1
 192 0 l 257,10,-1
 192 1023 l 257,11,-1
 132 1023 l 257,8,-1
178 59 m 257,12,-1
 178 0 l 257,13,-1
 844 0 l 257,14,-1
 844 59 l 257,15,-1
 178 59 l 257,12,-1
160 1416 m 257,16,-1
 160 1351 l 257,17,-1
 504 1351 l 257,18,-1
 504 1416 l 257,19,-1
 160 1416 l 257,16,-1
EndSplineSet
EndChar

StartChar: exclam
Encoding: 33 33 199
GlifName: exclam
Width: 1024
VWidth: 0
GlyphClass: 2
Flags: W
LayerCount: 2
Fore
SplineSet
478 9 m 257,0,-1
 545 9 l 257,1,-1
 545 107 l 257,2,-1
 478 107 l 257,3,-1
 478 9 l 257,0,-1
476 344 m 257,4,-1
 548 344 l 257,5,-1
 548 1362 l 257,6,-1
 476 1362 l 257,7,-1
 476 344 l 257,4,-1
EndSplineSet
EndChar

StartChar: exclamdown
Encoding: 161 161 200
GlifName: exclamdown
Width: 1024
VWidth: 0
GlyphClass: 2
Flags: W
LayerCount: 2
Fore
SplineSet
542 1520 m 257,0,-1
 482 1520 l 257,1,-1
 482 1272 l 257,2,-1
 542 1272 l 257,3,-1
 542 1520 l 257,0,-1
538 1035 m 257,4,-1
 484 1035 l 257,5,-1
 484 17 l 257,6,-1
 542 17 l 257,7,-1
 538 1035 l 257,4,-1
EndSplineSet
EndChar

StartChar: f
Encoding: 102 102 201
GlifName: f
Width: 1024
VWidth: 0
GlyphClass: 2
Flags: W
AnchorPoint: "top" 610 1637 basechar 0
AnchorPoint: "base" 448 -116 basechar 0
LayerCount: 2
Fore
SplineSet
428 1558 m 257,0,-1
 418 -6 l 257,1,-1
 478 -6 l 257,2,-1
 488 1558 l 257,3,-1
 428 1558 l 257,0,-1
428 1558 m 257,4,-1
 428 1498 l 257,5,-1
 826 1498 l 257,6,-1
 826 1558 l 257,7,-1
 428 1558 l 257,4,-1
208 862 m 257,8,-1
 208 802 l 257,9,-1
 686 802 l 257,10,-1
 686 862 l 257,11,-1
 208 862 l 257,8,-1
EndSplineSet
EndChar

StartChar: five
Encoding: 53 53 202
GlifName: five
Width: 1024
VWidth: 0
GlyphClass: 2
Flags: W
LayerCount: 2
Fore
SplineSet
917 899 m 257,0,-1
 917 58 l 257,1,-1
 59 58 l 257,2,-1
 59 0 l 257,3,-1
 977 0 l 257,4,-1
 977 959 l 257,5,-1
 120 959 l 257,6,-1
 120 1492 l 257,7,-1
 987 1492 l 257,8,-1
 987 1550 l 257,9,-1
 60 1550 l 257,10,-1
 60 899 l 257,11,-1
 917 899 l 257,0,-1
EndSplineSet
EndChar

StartChar: four
Encoding: 52 52 203
GlifName: four
Width: 1024
VWidth: 0
GlyphClass: 2
Flags: W
LayerCount: 2
Fore
SplineSet
91 761 m 257,0,-1
 872 761 l 257,1,-1
 872 7 l 257,2,-1
 929 7 l 257,3,-1
 929 1550 l 257,4,-1
 869 1550 l 257,5,-1
 869 821 l 257,6,-1
 151 821 l 257,7,-1
 151 1550 l 257,8,-1
 91 1550 l 257,9,-1
 91 761 l 257,0,-1
EndSplineSet
EndChar

StartChar: franc
Encoding: 8355 8355 204
GlifName: franc
Width: 1024
VWidth: 0
GlyphClass: 2
Flags: W
VStem: 175 4<1501 1548 1501 1501>
LayerCount: 2
Fore
SplineSet
0 565 m 257,0,-1
 0 531 l 257,1,-1
 334 531 l 257,2,-1
 334 565 l 257,3,-1
 0 565 l 257,0,-1
141 1548 m 257,4,-1
 141 0 l 257,5,-1
 179 0 l 257,6,-1
 179 1548 l 257,7,-1
 141 1548 l 257,4,-1
175 1548 m 257,8,-1
 175 1501 l 257,9,-1
 877 1501 l 257,10,-1
 877 1548 l 257,11,-1
 175 1548 l 257,8,-1
156 828 m 257,12,-1
 156 791 l 257,13,-1
 780 791 l 257,14,-1
 780 828 l 257,15,-1
 156 828 l 257,12,-1
EndSplineSet
PickledDataWithLists: "(dp0
Vcom.fontlab.hintData
p1
(dp2
Vvhints
p3
(lp4
(dp5
Vposition
p6
I175
sVwidth
p7
I4
sass."
EndChar

StartChar: g
Encoding: 103 103 205
GlifName: g
Width: 1024
VWidth: 0
GlyphClass: 2
Flags: W
AnchorPoint: "top" 578 1176 basechar 0
AnchorPoint: "base" 570 -460 basechar 0
LayerCount: 2
Fore
SplineSet
223 1023 m 257,0,-1
 223 0 l 257,1,-1
 283 0 l 257,2,-1
 283 1023 l 257,3,-1
 223 1023 l 257,0,-1
263 1023 m 257,4,-1
 263 962 l 257,5,-1
 779 962 l 257,6,-1
 779 1023 l 257,7,-1
 263 1023 l 257,4,-1
741 1023 m 257,8,-1
 741 -411 l 257,9,-1
 801 -411 l 257,10,-1
 801 1023 l 257,11,-1
 741 1023 l 257,8,-1
286 58 m 257,12,-1
 286 0 l 257,13,-1
 743 0 l 257,14,-1
 743 58 l 257,15,-1
 286 58 l 257,12,-1
263 -354 m 257,16,-1
 263 -413 l 257,17,-1
 752 -413 l 257,18,-1
 752 -354 l 257,19,-1
 263 -354 l 257,16,-1
EndSplineSet
EndChar

StartChar: germandbls
Encoding: 223 223 209
GlifName: germandbls
Width: 1024
VWidth: 0
GlyphClass: 2
Flags: W
LayerCount: 2
Fore
SplineSet
76 1084 m 257,0,-1
 76 1023 l 257,1,-1
 327 1023 l 257,2,-1
 327 1084 l 257,3,-1
 76 1084 l 257,0,-1
261 1550 m 257,4,-1
 261 0 l 257,5,-1
 325 0 l 257,6,-1
 325 1550 l 257,7,-1
 261 1550 l 257,4,-1
313 1550 m 257,8,-1
 313 1488 l 257,9,-1
 920 1488 l 257,10,-1
 920 1550 l 257,11,-1
 313 1550 l 257,8,-1
886 1550 m 257,12,-1
 886 1023 l 257,13,-1
 947 1023 l 257,14,-1
 947 1550 l 257,15,-1
 886 1550 l 257,12,-1
890 1062 m 257,16,-1
 652 1062 l 257,17,-1
 652 826 l 257,18,-1
 890 826 l 257,19,-1
 890 1062 l 257,16,-1
888 848 m 257,20,-1
 888 175 l 257,21,-1
 946 175 l 257,22,-1
 946 848 l 257,23,-1
 888 848 l 257,20,-1
605 187 m 257,24,-1
 605 131 l 257,25,-1
 948 131 l 257,26,-1
 948 187 l 257,27,-1
 605 187 l 257,24,-1
EndSplineSet
EndChar

StartChar: grave
Encoding: 96 96 210
GlifName: grave
Width: 1024
VWidth: 0
GlyphClass: 2
Flags: W
LayerCount: 2
Fore
SplineSet
426 1286 m 257,0,-1
 510 1057 l 257,1,-1
 598 1112 l 257,2,-1
 506 1340 l 257,3,-1
 426 1286 l 257,0,-1
EndSplineSet
EndChar

StartChar: gravecomb
Encoding: 768 768 211
GlifName: gravecomb
Width: 0
VWidth: 0
GlyphClass: 4
Flags: W
AnchorPoint: "top" 7 776 mark 0
LayerCount: 2
Fore
SplineSet
-171 1001 m 257,0,-1
 -47 797 l 257,1,-1
 13 851 l 257,2,-1
 -111 1056 l 257,3,-1
 -171 1001 l 257,0,-1
EndSplineSet
EndChar

StartChar: greater
Encoding: 62 62 212
GlifName: greater
Width: 1024
VWidth: 0
GlyphClass: 2
Flags: W
LayerCount: 2
Fore
SplineSet
921 632 m 257,0,-1
 105 1013 l 257,1,-1
 105 952 l 257,2,-1
 921 569 l 257,3,-1
 921 632 l 257,0,-1
921 632 m 257,4,-1
 103 186 l 257,5,-1
 103 122 l 257,6,-1
 921 569 l 257,7,-1
 921 632 l 257,4,-1
EndSplineSet
EndChar

StartChar: greaterequal
Encoding: 8805 8805 213
GlifName: greaterequal
Width: 1024
VWidth: 0
GlyphClass: 2
Flags: W
LayerCount: 2
Fore
SplineSet
110 -5 m 257,0,-1
 110 -41 l 257,1,-1
 914 -41 l 257,2,-1
 914 -5 l 257,3,-1
 110 -5 l 257,0,-1
922 712 m 257,4,-1
 100 1012 l 257,5,-1
 100 967 l 257,6,-1
 924 664 l 257,7,-1
 922 712 l 257,4,-1
922 711 m 257,8,-1
 102 253 l 257,9,-1
 102 209 l 257,10,-1
 924 655 l 257,11,-1
 922 711 l 257,8,-1
EndSplineSet
EndChar

StartChar: guillemotleft
Encoding: 171 171 214
GlifName: guillemotleft
Width: 1024
VWidth: 0
GlyphClass: 2
Flags: W
LayerCount: 2
Fore
SplineSet
98 509 m 257,0,-1
 98 472 l 257,1,-1
 535 757 l 257,2,-1
 535 784 l 257,3,-1
 98 509 l 257,0,-1
98 509 m 257,4,-1
 98 472 l 257,5,-1
 466 122 l 257,6,-1
 474 160 l 257,7,-1
 98 509 l 257,4,-1
516 527 m 257,8,-1
 516 498 l 257,9,-1
 926 783 l 257,10,-1
 926 823 l 257,11,-1
 516 527 l 257,8,-1
515 527 m 257,12,-1
 515 497 l 257,13,-1
 881 122 l 257,14,-1
 898 149 l 257,15,-1
 515 527 l 257,12,-1
EndSplineSet
EndChar

StartChar: guillemotright
Encoding: 187 187 215
GlifName: guillemotright
Width: 1024
VWidth: 0
GlyphClass: 2
Flags: W
LayerCount: 2
Fore
SplineSet
926 509 m 257,0,-1
 489 784 l 257,1,-1
 489 757 l 257,2,-1
 925 472 l 257,3,-1
 926 509 l 257,0,-1
926 509 m 257,4,-1
 550 160 l 257,5,-1
 558 122 l 257,6,-1
 925 472 l 257,7,-1
 926 509 l 257,4,-1
508 527 m 257,8,-1
 98 823 l 257,9,-1
 98 783 l 257,10,-1
 509 498 l 257,11,-1
 508 527 l 257,8,-1
509 527 m 257,12,-1
 126 149 l 257,13,-1
 143 122 l 257,14,-1
 509 497 l 257,15,-1
 509 527 l 257,12,-1
EndSplineSet
EndChar

StartChar: guilsinglleft
Encoding: 8249 8249 216
GlifName: guilsinglleft
Width: 1024
VWidth: 0
GlyphClass: 2
Flags: W
LayerCount: 2
Fore
SplineSet
103 652 m 257,0,-1
 103 569 l 257,1,-1
 921 946 l 257,2,-1
 921 1013 l 257,3,-1
 103 652 l 257,0,-1
103 652 m 257,4,-1
 103 569 l 257,5,-1
 915 122 l 257,6,-1
 915 199 l 257,7,-1
 103 652 l 257,4,-1
EndSplineSet
EndChar

StartChar: guilsinglright
Encoding: 8250 8250 217
GlifName: guilsinglright
Width: 1024
VWidth: 0
GlyphClass: 2
Flags: W
LayerCount: 2
Fore
SplineSet
921 632 m 257,0,-1
 105 1013 l 257,1,-1
 105 952 l 257,2,-1
 921 569 l 257,3,-1
 921 632 l 257,0,-1
921 632 m 257,4,-1
 103 186 l 257,5,-1
 103 122 l 257,6,-1
 921 569 l 257,7,-1
 921 632 l 257,4,-1
EndSplineSet
EndChar

StartChar: h
Encoding: 104 104 218
GlifName: h
Width: 1024
VWidth: 0
GlyphClass: 2
Flags: W
AnchorPoint: "top" 248 1646 basechar 0
AnchorPoint: "base" 512 -46 basechar 0
LayerCount: 2
Fore
SplineSet
174 1525 m 257,0,-1
 174 6 l 257,1,-1
 233 6 l 257,2,-1
 233 1525 l 257,3,-1
 174 1525 l 257,0,-1
214 1028 m 257,4,-1
 214 968 l 257,5,-1
 803 968 l 257,6,-1
 803 1028 l 257,7,-1
 214 1028 l 257,4,-1
791 1028 m 257,8,-1
 791 0 l 257,9,-1
 850 0 l 257,10,-1
 850 1028 l 257,11,-1
 791 1028 l 257,8,-1
EndSplineSet
EndChar

StartChar: hbar
Encoding: 295 295 219
GlifName: hbar
Width: 1024
VWidth: 0
GlyphClass: 2
Flags: W
LayerCount: 2
Fore
SplineSet
242 1541 m 257,0,-1
 242 6 l 257,1,-1
 302 6 l 257,2,-1
 302 1541 l 257,3,-1
 242 1541 l 257,0,-1
276 1023 m 257,4,-1
 276 966 l 257,5,-1
 910 966 l 257,6,-1
 910 1023 l 257,7,-1
 276 1023 l 257,4,-1
859 1023 m 257,8,-1
 859 0 l 257,9,-1
 918 0 l 257,10,-1
 918 1023 l 257,11,-1
 859 1023 l 257,8,-1
106 1429 m 257,12,-1
 106 1369 l 257,13,-1
 562 1369 l 257,14,-1
 562 1429 l 257,15,-1
 106 1429 l 257,12,-1
EndSplineSet
EndChar

StartChar: hookabovecomb
Encoding: 777 777 221
GlifName: hookabovecomb
Width: 0
VWidth: 0
GlyphClass: 4
Flags: W
AnchorPoint: "top" -6 756 mark 0
LayerCount: 2
Fore
SplineSet
-111 1225 m 257,0,-1
 -111 1177 l 257,1,-1
 142 1177 l 257,2,-1
 142 1225 l 257,3,-1
 -111 1225 l 257,0,-1
109 1225 m 257,4,-1
 109 993 l 257,5,-1
 145 993 l 257,6,-1
 145 1225 l 257,7,-1
 109 1225 l 257,4,-1
-62 1007 m 257,8,-1
 -62 962 l 257,9,-1
 145 962 l 257,10,-1
 145 1007 l 257,11,-1
 -62 1007 l 257,8,-1
-62 1007 m 257,12,-1
 -62 829 l 257,13,-1
 -27 829 l 257,14,-1
 -27 1007 l 257,15,-1
 -62 1007 l 257,12,-1
EndSplineSet
EndChar

StartChar: hungarumlaut
Encoding: 733 733 222
GlifName: hungarumlaut
Width: 1024
VWidth: 0
GlyphClass: 2
Flags: W
LayerCount: 2
Fore
SplineSet
202 122 m 257,0,-1
 267 122 l 257,1,-1
 267 370 l 257,2,-1
 202 370 l 257,3,-1
 202 122 l 257,0,-1
605 122 m 257,4,-1
 665 122 l 257,5,-1
 665 370 l 257,6,-1
 605 370 l 257,7,-1
 605 122 l 257,4,-1
EndSplineSet
EndChar

StartChar: hyphen
Encoding: 45 45 223
GlifName: hyphen
Width: 1024
VWidth: 0
GlyphClass: 2
Flags: W
LayerCount: 2
Fore
SplineSet
99 793 m 257,0,-1
 99 695 l 257,1,-1
 925 695 l 257,2,-1
 925 793 l 257,3,-1
 99 793 l 257,0,-1
EndSplineSet
EndChar

StartChar: i
Encoding: 105 105 224
GlifName: i
Width: 1024
VWidth: 0
GlyphClass: 2
Flags: W
AnchorPoint: "top" 438 1440 basechar 0
AnchorPoint: "base" 548 -78 basechar 0
LayerCount: 2
Fore
SplineSet
510 1023 m 257,0,-1
 510 52 l 257,1,-1
 570 52 l 257,2,-1
 570 1023 l 257,3,-1
 510 1023 l 257,0,-1
141 60 m 257,4,-1
 141 0 l 257,5,-1
 883 0 l 257,6,-1
 883 60 l 257,7,-1
 141 60 l 257,4,-1
324 1292 m 257,8,-1
 324 1174 l 257,9,-1
 437 1174 l 257,10,-1
 437 1292 l 257,11,-1
 324 1292 l 257,8,-1
191 1023 m 257,12,-1
 191 962 l 257,13,-1
 527 962 l 257,14,-1
 527 1023 l 257,15,-1
 191 1023 l 257,12,-1
EndSplineSet
EndChar

StartChar: j
Encoding: 106 106 234
GlifName: j
Width: 1024
VWidth: 0
GlyphClass: 2
Flags: W
AnchorPoint: "top" 800 1306 basechar 0
AnchorPoint: "base" 550 -476 basechar 0
LayerCount: 2
Fore
SplineSet
768 1023 m 257,0,-1
 768 -411 l 257,1,-1
 826 -411 l 257,2,-1
 826 1023 l 257,3,-1
 768 1023 l 257,0,-1
198 -348 m 257,4,-1
 198 -406 l 257,5,-1
 788 -406 l 257,6,-1
 788 -348 l 257,7,-1
 198 -348 l 257,4,-1
198 -6 m 257,8,-1
 198 -378 l 257,9,-1
 258 -378 l 257,10,-1
 258 -6 l 257,11,-1
 198 -6 l 257,8,-1
766 1201 m 257,12,-1
 766 1142 l 257,13,-1
 826 1142 l 257,14,-1
 826 1201 l 257,15,-1
 766 1201 l 257,12,-1
EndSplineSet
EndChar

StartChar: k
Encoding: 107 107 237
GlifName: k
Width: 1024
VWidth: 0
GlyphClass: 2
Flags: W
AnchorPoint: "base" 457 -75 basechar 0
AnchorPoint: "top" 103 1641 basechar 0
LayerCount: 2
Fore
SplineSet
76 1535 m 257,0,-1
 76 5 l 257,1,-1
 136 5 l 257,2,-1
 136 1535 l 257,3,-1
 76 1535 l 257,0,-1
125 421 m 257,4,-1
 125 352 l 257,5,-1
 782 1023 l 257,6,-1
 722 1023 l 257,7,-1
 125 421 l 257,4,-1
372 612 m 257,8,-1
 330 569 l 257,9,-1
 887 0 l 257,10,-1
 948 0 l 257,11,-1
 372 612 l 257,8,-1
EndSplineSet
EndChar

StartChar: kgreenlandic
Encoding: 312 312 238
GlifName: kgreenlandic
Width: 1024
VWidth: 0
GlyphClass: 2
Flags: W
AnchorPoint: "base" 180 -104 basechar 0
AnchorPoint: "top" 140 1110 basechar 0
LayerCount: 2
Fore
SplineSet
76 1033 m 257,0,-1
 76 5 l 257,1,-1
 136 5 l 257,2,-1
 136 1033 l 257,3,-1
 76 1033 l 257,0,-1
125 421 m 257,4,-1
 125 352 l 257,5,-1
 985 1023 l 257,6,-1
 925 1023 l 257,7,-1
 125 421 l 257,4,-1
372 582 m 257,8,-1
 330 539 l 257,9,-1
 887 0 l 257,10,-1
 948 0 l 257,11,-1
 372 582 l 257,8,-1
EndSplineSet
EndChar

StartChar: l
Encoding: 108 108 239
GlifName: l
Width: 1024
VWidth: 0
GlyphClass: 2
Flags: W
AnchorPoint: "base" 538 -68 basechar 0
AnchorPoint: "top" 520 1654 basechar 0
LayerCount: 2
Fore
SplineSet
195 72 m 257,0,-1
 195 0 l 257,1,-1
 829 0 l 257,2,-1
 829 72 l 257,3,-1
 195 72 l 257,0,-1
482 1553 m 257,4,-1
 482 57 l 257,5,-1
 542 57 l 257,6,-1
 542 1553 l 257,7,-1
 482 1553 l 257,4,-1
256 1553 m 257,8,-1
 256 1494 l 257,9,-1
 491 1494 l 257,10,-1
 491 1553 l 257,11,-1
 256 1553 l 257,8,-1
EndSplineSet
EndChar

StartChar: lcaron
Encoding: 318 318 241
GlifName: lcaron
Width: 1024
VWidth: 0
GlyphClass: 2
Flags: W
LayerCount: 2
Fore
SplineSet
196 62 m 257,0,-1
 196 0 l 257,1,-1
 830 0 l 257,2,-1
 830 62 l 257,3,-1
 196 62 l 257,0,-1
492 1550 m 257,4,-1
 492 46 l 257,5,-1
 550 46 l 257,6,-1
 550 1550 l 257,7,-1
 492 1550 l 257,4,-1
194 1550 m 257,8,-1
 194 1489 l 257,9,-1
 506 1489 l 257,10,-1
 506 1550 l 257,11,-1
 194 1550 l 257,8,-1
630 1496 m 257,12,-1
 630 1264 l 257,13,-1
 682 1264 l 257,14,-1
 682 1496 l 257,15,-1
 630 1496 l 257,12,-1
EndSplineSet
EndChar

StartChar: less
Encoding: 60 60 243
GlifName: less
Width: 1024
VWidth: 0
GlyphClass: 2
Flags: W
LayerCount: 2
Fore
SplineSet
103 652 m 257,0,-1
 103 569 l 257,1,-1
 921 946 l 257,2,-1
 921 1013 l 257,3,-1
 103 652 l 257,0,-1
103 652 m 257,4,-1
 103 569 l 257,5,-1
 915 122 l 257,6,-1
 915 199 l 257,7,-1
 103 652 l 257,4,-1
EndSplineSet
EndChar

StartChar: lessequal
Encoding: 8804 8804 244
GlifName: lessequal
Width: 1024
VWidth: 0
GlyphClass: 2
Flags: W
LayerCount: 2
Fore
SplineSet
116 0 m 257,0,-1
 115 -36 l 257,1,-1
 889 -30 l 257,2,-1
 890 0 l 257,3,-1
 116 0 l 257,0,-1
92 712 m 257,4,-1
 90 664 l 257,5,-1
 914 967 l 257,6,-1
 914 1012 l 257,7,-1
 92 712 l 257,4,-1
92 711 m 257,8,-1
 90 655 l 257,9,-1
 912 209 l 257,10,-1
 912 253 l 257,11,-1
 92 711 l 257,8,-1
EndSplineSet
EndChar

StartChar: lira
Encoding: 8356 8356 245
GlifName: lira
Width: 1024
VWidth: 0
GlyphClass: 2
Flags: W
LayerCount: 2
Fore
SplineSet
54 770 m 257,0,-1
 54 688 l 257,1,-1
 780 688 l 257,2,-1
 780 770 l 257,3,-1
 54 770 l 257,0,-1
381 1543 m 257,4,-1
 381 1481 l 257,5,-1
 672 1481 l 257,6,-1
 672 1543 l 257,7,-1
 381 1543 l 257,4,-1
54 1033 m 257,8,-1
 54 959 l 257,9,-1
 780 959 l 257,10,-1
 780 1033 l 257,11,-1
 54 1033 l 257,8,-1
337 1542 m 257,12,-1
 337 0 l 257,13,-1
 399 0 l 257,14,-1
 399 1542 l 257,15,-1
 337 1542 l 257,12,-1
162 82 m 257,16,-1
 162 0 l 257,17,-1
 888 0 l 257,18,-1
 888 82 l 257,19,-1
 162 82 l 257,16,-1
EndSplineSet
EndChar

StartChar: logicalnot
Encoding: 172 172 246
GlifName: logicalnot
Width: 1024
VWidth: 0
GlyphClass: 2
Flags: W
LayerCount: 2
Fore
SplineSet
729 935 m 257,0,-1
 729 640 l 257,1,-1
 782 640 l 257,2,-1
 782 935 l 257,3,-1
 729 935 l 257,0,-1
242 935 m 257,4,-1
 242 875 l 257,5,-1
 776 875 l 257,6,-1
 776 935 l 257,7,-1
 242 935 l 257,4,-1
EndSplineSet
EndChar

StartChar: lslash
Encoding: 322 322 247
GlifName: lslash
Width: 1024
VWidth: 0
GlyphClass: 2
Flags: W
LayerCount: 2
Fore
SplineSet
195 60 m 257,0,-1
 195 0 l 257,1,-1
 829 0 l 257,2,-1
 829 60 l 257,3,-1
 195 60 l 257,0,-1
552 1553 m 257,4,-1
 552 22 l 257,5,-1
 612 22 l 257,6,-1
 612 1553 l 257,7,-1
 552 1553 l 257,4,-1
256 1553 m 257,8,-1
 256 1493 l 257,9,-1
 578 1493 l 257,10,-1
 578 1553 l 257,11,-1
 256 1553 l 257,8,-1
815 1039 m 257,12,-1
 236 702 l 257,13,-1
 338 702 l 257,14,-1
 917 1039 l 257,15,-1
 815 1039 l 257,12,-1
EndSplineSet
EndChar

StartChar: m
Encoding: 109 109 248
GlifName: m
Width: 1024
VWidth: 0
GlyphClass: 2
Flags: W
AnchorPoint: "base" 540 -112 basechar 0
AnchorPoint: "top" 550 1110 basechar 0
LayerCount: 2
Fore
SplineSet
134 993 m 257,0,-1
 134 0 l 257,1,-1
 194 0 l 257,2,-1
 194 993 l 257,3,-1
 134 993 l 257,0,-1
518 972 m 257,4,-1
 518 0 l 257,5,-1
 578 0 l 257,6,-1
 578 972 l 257,7,-1
 518 972 l 257,4,-1
904 976 m 257,8,-1
 904 0 l 257,9,-1
 964 0 l 257,10,-1
 964 976 l 257,11,-1
 904 976 l 257,8,-1
60 1023 m 257,12,-1
 60 966 l 257,13,-1
 964 966 l 257,14,-1
 964 1023 l 257,15,-1
 60 1023 l 257,12,-1
EndSplineSet
EndChar

StartChar: macron
Encoding: 175 175 249
GlifName: macron
Width: 1024
VWidth: 0
GlyphClass: 2
Flags: W
LayerCount: 2
Fore
SplineSet
263 1036 m 257,0,-1
 263 989 l 257,1,-1
 719 989 l 257,2,-1
 719 1036 l 257,3,-1
 263 1036 l 257,0,-1
EndSplineSet
EndChar

StartChar: mu
Encoding: 181 181 251
GlifName: mu
Width: 1024
VWidth: 0
GlyphClass: 2
Flags: W
LayerCount: 2
Fore
SplineSet
774 935 m 257,0,-1
 774 0 l 257,1,-1
 834 0 l 257,2,-1
 834 935 l 257,3,-1
 774 935 l 257,0,-1
236 60 m 257,4,-1
 236 0 l 257,5,-1
 804 0 l 257,6,-1
 804 60 l 257,7,-1
 236 60 l 257,4,-1
190 935 m 257,8,-1
 190 -430 l 257,9,-1
 252 -430 l 257,10,-1
 252 935 l 257,11,-1
 190 935 l 257,8,-1
EndSplineSet
EndChar

StartChar: multiply
Encoding: 215 215 252
GlifName: multiply
Width: 1024
VWidth: 0
GlyphClass: 2
Flags: W
LayerCount: 2
Fore
SplineSet
96 295 m 257,0,-1
 192 295 l 257,1,-1
 920 1323 l 257,2,-1
 838 1323 l 257,3,-1
 96 295 l 257,0,-1
94 1322 m 257,4,-1
 842 288 l 257,5,-1
 930 288 l 257,6,-1
 178 1322 l 257,7,-1
 94 1322 l 257,4,-1
EndSplineSet
EndChar

StartChar: n
Encoding: 110 110 253
GlifName: n
Width: 1024
VWidth: 0
GlyphClass: 2
Flags: W
AnchorPoint: "base" 530 -64 basechar 0
AnchorPoint: "top" 492 1158 basechar 0
LayerCount: 2
Fore
SplineSet
302 990 m 257,0,-1
 302 0 l 257,1,-1
 363 0 l 257,2,-1
 363 990 l 257,3,-1
 302 990 l 257,0,-1
842 976 m 257,4,-1
 842 0 l 257,5,-1
 902 0 l 257,6,-1
 902 976 l 257,7,-1
 842 976 l 257,4,-1
122 1023 m 257,8,-1
 122 967 l 257,9,-1
 900 967 l 257,10,-1
 900 1023 l 257,11,-1
 122 1023 l 257,8,-1
EndSplineSet
EndChar

StartChar: nine
Encoding: 57 57 256
GlifName: nine
Width: 1024
VWidth: 0
GlyphClass: 2
Flags: W
LayerCount: 2
Fore
SplineSet
921 759 m 257,0,-1
 921 59 l 257,1,-1
 79 59 l 257,2,-1
 79 0 l 257,3,-1
 977 0 l 257,4,-1
 977 1553 l 257,5,-1
 57 1553 l 257,6,-1
 57 1541 l 257,7,-1
 57 759 l 257,8,-1
 921 759 l 257,0,-1
918 818 m 257,9,-1
 117 818 l 257,10,-1
 117 1495 l 257,11,-1
 918 1495 l 257,12,-1
 918 818 l 257,9,-1
EndSplineSet
EndChar

StartChar: notequal
Encoding: 8800 8800 257
GlifName: notequal
Width: 1024
VWidth: 0
GlyphClass: 2
Flags: W
LayerCount: 2
Fore
SplineSet
755 1101 m 257,0,-1
 185 182 l 257,1,-1
 200 109 l 257,2,-1
 770 1028 l 257,3,-1
 755 1101 l 257,0,-1
104 837 m 257,4,-1
 104 775 l 257,5,-1
 920 775 l 257,6,-1
 920 837 l 257,7,-1
 104 837 l 257,4,-1
104 500 m 257,8,-1
 104 432 l 257,9,-1
 920 432 l 257,10,-1
 920 500 l 257,11,-1
 104 500 l 257,8,-1
EndSplineSet
EndChar

StartChar: numbersign
Encoding: 35 35 259
GlifName: numbersign
Width: 1024
VWidth: 0
GlyphClass: 2
Flags: W
LayerCount: 2
Fore
SplineSet
229 1184 m 257,0,-1
 229 99 l 257,1,-1
 288 99 l 257,2,-1
 288 1184 l 257,3,-1
 229 1184 l 257,0,-1
724 1192 m 257,4,-1
 724 95 l 257,5,-1
 795 95 l 257,6,-1
 795 1192 l 257,7,-1
 724 1192 l 257,4,-1
105 995 m 257,8,-1
 105 937 l 257,9,-1
 906 937 l 257,10,-1
 906 995 l 257,11,-1
 105 995 l 257,8,-1
109 493 m 257,12,-1
 109 417 l 257,13,-1
 919 417 l 257,14,-1
 919 493 l 257,15,-1
 109 493 l 257,12,-1
EndSplineSet
EndChar

StartChar: o
Encoding: 111 111 260
GlifName: o
Width: 1024
VWidth: 0
GlyphClass: 2
Flags: W
AnchorPoint: "top" 504 1158 basechar 0
AnchorPoint: "base" 536 -38 basechar 0
LayerCount: 2
Fore
SplineSet
103 1023 m 257,0,-1
 103 0 l 257,1,-1
 162 0 l 257,2,-1
 162 1023 l 257,3,-1
 103 1023 l 257,0,-1
860 1023 m 257,4,-1
 860 0 l 257,5,-1
 921 0 l 257,6,-1
 921 1023 l 257,7,-1
 860 1023 l 257,4,-1
164 1023 m 257,8,-1
 164 967 l 257,9,-1
 865 967 l 257,10,-1
 865 1023 l 257,11,-1
 164 1023 l 257,8,-1
149 62 m 257,12,-1
 149 0 l 257,13,-1
 868 0 l 257,14,-1
 868 62 l 257,15,-1
 149 62 l 257,12,-1
EndSplineSet
EndChar

StartChar: oe
Encoding: 339 339 265
GlifName: oe
Width: 1024
VWidth: 0
GlyphClass: 2
Flags: W
AnchorPoint: "top" 534 1132 basechar 0
AnchorPoint: "base" 558 -80 basechar 0
LayerCount: 2
Fore
SplineSet
587 506 m 257,0,-1
 587 446 l 257,1,-1
 887 446 l 257,2,-1
 887 506 l 257,3,-1
 587 506 l 257,0,-1
862 1023 m 257,4,-1
 862 445 l 257,5,-1
 921 445 l 257,6,-1
 921 1023 l 257,7,-1
 862 1023 l 257,4,-1
93 1023 m 257,8,-1
 93 0 l 257,9,-1
 152 0 l 257,10,-1
 152 1023 l 257,11,-1
 93 1023 l 257,8,-1
548 1023 m 257,12,-1
 548 0 l 257,13,-1
 609 0 l 257,14,-1
 609 1023 l 257,15,-1
 548 1023 l 257,12,-1
148 1023 m 257,16,-1
 148 964 l 257,17,-1
 922 964 l 257,18,-1
 922 1023 l 257,19,-1
 148 1023 l 257,16,-1
139 62 m 257,20,-1
 139 0 l 257,21,-1
 931 0 l 257,22,-1
 931 62 l 257,23,-1
 139 62 l 257,20,-1
EndSplineSet
EndChar

StartChar: ogonek
Encoding: 731 731 266
GlifName: ogonek
Width: 1024
VWidth: 0
GlyphClass: 2
Flags: W
LayerCount: 2
Fore
SplineSet
227 -300 m 257,0,-1
 227 -360 l 257,1,-1
 768 -360 l 257,2,-1
 768 -300 l 257,3,-1
 227 -300 l 257,0,-1
227 51 m 257,4,-1
 227 -360 l 257,5,-1
 287 -360 l 257,6,-1
 287 51 l 257,7,-1
 227 51 l 257,4,-1
227 51 m 257,8,-1
 227 -8 l 257,9,-1
 769 -8 l 257,10,-1
 769 51 l 257,11,-1
 227 51 l 257,8,-1
EndSplineSet
EndChar

StartChar: one
Encoding: 49 49 271
GlifName: one
Width: 1024
VWidth: 0
GlyphClass: 2
Flags: W
LayerCount: 2
Fore
SplineSet
551 0 m 257,0,-1
 611 0 l 257,1,-1
 611 1550 l 257,2,-1
 551 1550 l 257,3,-1
 551 0 l 257,0,-1
551 1550 m 257,4,-1
 432 1426 l 257,5,-1
 483 1398 l 257,6,-1
 611 1550 l 257,7,-1
 551 1550 l 257,4,-1
EndSplineSet
EndChar

StartChar: onehalf
Encoding: 189 189 272
GlifName: onehalf
Width: 1024
VWidth: 0
GlyphClass: 2
Flags: W
LayerCount: 2
Fore
SplineSet
684 1480 m 257,0,-1
 97 10 l 257,1,-1
 200 10 l 257,2,-1
 787 1480 l 257,3,-1
 684 1480 l 257,0,-1
297 1017 m 257,4,-1
 361 1017 l 257,5,-1
 361 1550 l 257,6,-1
 297 1550 l 257,7,-1
 297 1017 l 257,4,-1
297 1550 m 257,8,-1
 170 1508 l 257,9,-1
 224 1498 l 257,10,-1
 361 1550 l 257,11,-1
 297 1550 l 257,8,-1
605 623 m 257,12,-1
 895 623 l 257,13,-1
 895 381 l 257,14,-1
 608 381 l 257,15,-1
 608 0 l 257,16,-1
 913 0 l 257,17,-1
 913 25 l 257,18,-1
 631 25 l 257,19,-1
 631 356 l 257,20,-1
 918 356 l 257,21,-1
 918 648 l 257,22,-1
 605 648 l 257,23,-1
 605 623 l 257,12,-1
EndSplineSet
EndChar

StartChar: onequarter
Encoding: 188 188 273
GlifName: onequarter
Width: 1024
VWidth: 0
GlyphClass: 2
Flags: W
LayerCount: 2
Fore
SplineSet
666 1480 m 257,0,-1
 79 10 l 257,1,-1
 182 10 l 257,2,-1
 769 1480 l 257,3,-1
 666 1480 l 257,0,-1
307 1045 m 257,4,-1
 361 1045 l 257,5,-1
 361 1550 l 257,6,-1
 307 1550 l 257,7,-1
 307 1045 l 257,4,-1
312 1550 m 257,8,-1
 202 1428 l 257,9,-1
 222 1391 l 257,10,-1
 341 1541 l 257,11,-1
 312 1550 l 257,8,-1
568 379 m 257,12,-1
 907 379 l 257,13,-1
 907 7 l 257,14,-1
 932 7 l 257,15,-1
 932 768 l 257,16,-1
 906 768 l 257,17,-1
 906 409 l 257,18,-1
 594 409 l 257,19,-1
 594 770 l 257,20,-1
 568 770 l 257,21,-1
 568 379 l 257,12,-1
EndSplineSet
EndChar

StartChar: ordfeminine
Encoding: 170 170 274
GlifName: ordfeminine
Width: 1024
VWidth: 0
GlyphClass: 2
Flags: W
LayerCount: 2
Fore
SplineSet
181 1319 m 257,0,-1
 181 1252 l 257,1,-1
 830 1252 l 257,2,-1
 830 1319 l 257,3,-1
 181 1319 l 257,0,-1
792 1320 m 257,4,-1
 792 296 l 257,5,-1
 869 296 l 257,6,-1
 869 1320 l 257,7,-1
 792 1320 l 257,4,-1
184 895 m 257,8,-1
 184 833 l 257,9,-1
 808 833 l 257,10,-1
 808 895 l 257,11,-1
 184 895 l 257,8,-1
185 872 m 257,12,-1
 185 294 l 257,13,-1
 256 294 l 257,14,-1
 256 872 l 257,15,-1
 185 872 l 257,12,-1
194 369 m 257,16,-1
 194 294 l 257,17,-1
 858 294 l 257,18,-1
 858 369 l 257,19,-1
 194 369 l 257,16,-1
78 67 m 257,20,-1
 78 0 l 257,21,-1
 946 0 l 257,22,-1
 946 67 l 257,23,-1
 78 67 l 257,20,-1
EndSplineSet
EndChar

StartChar: ordmasculine
Encoding: 186 186 275
GlifName: ordmasculine
Width: 1024
VWidth: 0
GlyphClass: 2
Flags: W
LayerCount: 2
Fore
SplineSet
108 1423 m 257,0,-1
 108 400 l 257,1,-1
 167 400 l 257,2,-1
 167 1423 l 257,3,-1
 108 1423 l 257,0,-1
865 1423 m 257,4,-1
 865 400 l 257,5,-1
 926 400 l 257,6,-1
 926 1423 l 257,7,-1
 865 1423 l 257,4,-1
169 1423 m 257,8,-1
 169 1367 l 257,9,-1
 870 1367 l 257,10,-1
 870 1423 l 257,11,-1
 169 1423 l 257,8,-1
154 462 m 257,12,-1
 154 400 l 257,13,-1
 873 400 l 257,14,-1
 873 462 l 257,15,-1
 154 462 l 257,12,-1
94 330 m 257,16,-1
 94 264 l 257,17,-1
 921 264 l 257,18,-1
 921 330 l 257,19,-1
 94 330 l 257,16,-1
EndSplineSet
EndChar

StartChar: oslash
Encoding: 248 248 276
GlifName: oslash
Width: 1024
VWidth: 0
GlyphClass: 2
Flags: W
AnchorPoint: "top" 516 1186 basechar 0
AnchorPoint: "base" 510 -116 basechar 0
LayerCount: 2
Fore
SplineSet
916 1125 m 257,0,-1
 66 -36 l 257,1,-1
 106 -70 l 257,2,-1
 958 1073 l 257,3,-1
 916 1125 l 257,0,-1
100 1023 m 257,4,-1
 100 0 l 257,5,-1
 160 0 l 257,6,-1
 160 1023 l 257,7,-1
 100 1023 l 257,4,-1
856 1023 m 257,8,-1
 856 0 l 257,9,-1
 916 0 l 257,10,-1
 916 1023 l 257,11,-1
 856 1023 l 257,8,-1
142 1023 m 257,12,-1
 142 963 l 257,13,-1
 888 963 l 257,14,-1
 888 1023 l 257,15,-1
 142 1023 l 257,12,-1
144 63 m 257,16,-1
 144 0 l 257,17,-1
 892 0 l 257,18,-1
 892 63 l 257,19,-1
 144 63 l 257,16,-1
EndSplineSet
EndChar

StartChar: p
Encoding: 112 112 279
GlifName: p
Width: 1024
VWidth: 0
GlyphClass: 2
Flags: W
AnchorPoint: "base" 218 -475 basechar 0
AnchorPoint: "top" 216 1315 basechar 0
LayerCount: 2
Fore
SplineSet
191 1181 m 257,0,-1
 191 -406 l 257,1,-1
 251 -406 l 257,2,-1
 251 1181 l 257,3,-1
 191 1181 l 257,0,-1
235 1023 m 257,4,-1
 235 964 l 257,5,-1
 821 964 l 257,6,-1
 821 1023 l 257,7,-1
 235 1023 l 257,4,-1
237 61 m 257,8,-1
 237 0 l 257,9,-1
 833 0 l 257,10,-1
 833 61 l 257,11,-1
 237 61 l 257,8,-1
773 1023 m 257,12,-1
 773 0 l 257,13,-1
 831 0 l 257,14,-1
 831 1023 l 257,15,-1
 773 1023 l 257,12,-1
EndSplineSet
EndChar

StartChar: paragraph
Encoding: 182 182 280
GlifName: paragraph
Width: 1024
VWidth: 0
GlyphClass: 2
Flags: W
LayerCount: 2
Fore
SplineSet
90 1044 m 257,0,-1
 90 985 l 257,1,-1
 654 985 l 257,2,-1
 654 1044 l 257,3,-1
 90 1044 l 257,0,-1
90 1550 m 257,4,-1
 90 1000 l 257,5,-1
 152 1000 l 257,6,-1
 152 1550 l 257,7,-1
 90 1550 l 257,4,-1
90 1550 m 257,8,-1
 90 1493 l 257,9,-1
 910 1493 l 257,10,-1
 910 1550 l 257,11,-1
 90 1550 l 257,8,-1
640 1550 m 257,12,-1
 640 0 l 257,13,-1
 704 0 l 257,14,-1
 704 1550 l 257,15,-1
 640 1550 l 257,12,-1
872 1550 m 257,16,-1
 872 0 l 257,17,-1
 934 0 l 257,18,-1
 934 1550 l 257,19,-1
 872 1550 l 257,16,-1
EndSplineSet
EndChar

StartChar: parenleft
Encoding: 40 40 281
GlifName: parenleft
Width: 1024
VWidth: 0
GlyphClass: 2
Flags: W
LayerCount: 2
Fore
SplineSet
316 1023 m 257,0,-1
 316 179 l 257,1,-1
 444 179 l 257,2,-1
 444 1023 l 257,3,-1
 316 1023 l 257,0,-1
680 1636 m 257,4,-1
 316 1023 l 257,5,-1
 444 1023 l 257,6,-1
 708 1633 l 257,7,-1
 680 1636 l 257,4,-1
316 179 m 257,8,-1
 654 -309 l 257,9,-1
 682 -309 l 257,10,-1
 444 179 l 257,11,-1
 316 179 l 257,8,-1
EndSplineSet
EndChar

StartChar: parenright
Encoding: 41 41 282
GlifName: parenright
Width: 1024
VWidth: 0
GlyphClass: 2
Flags: W
LayerCount: 2
Fore
SplineSet
550 1023 m 257,0,-1
 550 179 l 257,1,-1
 678 179 l 257,2,-1
 678 1023 l 257,3,-1
 550 1023 l 257,0,-1
346 1635 m 257,4,-1
 550 1023 l 257,5,-1
 678 1023 l 257,6,-1
 384 1635 l 257,7,-1
 346 1635 l 257,4,-1
550 179 m 257,8,-1
 346 -309 l 257,9,-1
 374 -309 l 257,10,-1
 678 179 l 257,11,-1
 550 179 l 257,8,-1
EndSplineSet
EndChar

StartChar: percent
Encoding: 37 37 283
GlifName: percent
Width: 1024
VWidth: 0
GlyphClass: 2
Flags: W
LayerCount: 2
Fore
SplineSet
122 444 m 257,0,-1
 151 417 l 257,1,-1
 898 775 l 257,2,-1
 879 801 l 257,3,-1
 122 444 l 257,0,-1
228 1148 m 257,4,-1
 228 803 l 257,5,-1
 259 803 l 257,6,-1
 259 1148 l 257,7,-1
 228 1148 l 257,4,-1
228 1152 m 257,8,-1
 228 1126 l 257,9,-1
 575 1126 l 257,10,-1
 575 1152 l 257,11,-1
 228 1152 l 257,8,-1
228 826 m 257,12,-1
 228 789 l 257,13,-1
 572 789 l 257,14,-1
 572 826 l 257,15,-1
 228 826 l 257,12,-1
539 1152 m 257,16,-1
 539 791 l 257,17,-1
 575 791 l 257,18,-1
 575 1152 l 257,19,-1
 539 1152 l 257,16,-1
555 436 m 257,20,-1
 555 94 l 257,21,-1
 598 94 l 257,22,-1
 598 436 l 257,23,-1
 555 436 l 257,20,-1
555 440 m 257,24,-1
 555 397 l 257,25,-1
 902 397 l 257,26,-1
 902 440 l 257,27,-1
 555 440 l 257,24,-1
555 109 m 257,28,-1
 555 77 l 257,29,-1
 899 77 l 257,30,-1
 899 109 l 257,31,-1
 555 109 l 257,28,-1
868 440 m 257,32,-1
 868 79 l 257,33,-1
 902 79 l 257,34,-1
 902 440 l 257,35,-1
 868 440 l 257,32,-1
EndSplineSet
EndChar

StartChar: period
Encoding: 46 46 284
GlifName: period
Width: 1024
VWidth: 0
GlyphClass: 2
Flags: W
LayerCount: 2
Fore
SplineSet
440 113 m 257,0,-1
 440 0 l 257,1,-1
 584 0 l 257,2,-1
 584 113 l 257,3,-1
 440 113 l 257,0,-1
EndSplineSet
EndChar

StartChar: periodcentered
Encoding: 183 183 285
GlifName: periodcentered
Width: 1024
VWidth: 0
GlyphClass: 2
Flags: W
LayerCount: 2
Fore
SplineSet
464 1056 m 257,0,-1
 464 955 l 257,1,-1
 560 955 l 257,2,-1
 560 1056 l 257,3,-1
 464 1056 l 257,0,-1
EndSplineSet
EndChar

StartChar: perthousand
Encoding: 8240 8240 286
GlifName: perthousand
Width: 1024
VWidth: 0
GlyphClass: 2
Flags: W
LayerCount: 2
Fore
SplineSet
662 436 m 257,0,-1
 662 110 l 257,1,-1
 706 110 l 257,2,-1
 706 436 l 257,3,-1
 662 436 l 257,0,-1
662 440 m 257,4,-1
 662 386 l 257,5,-1
 1008 386 l 257,6,-1
 1008 440 l 257,7,-1
 662 440 l 257,4,-1
662 125 m 257,8,-1
 662 77 l 257,9,-1
 1006 77 l 257,10,-1
 1006 125 l 257,11,-1
 662 125 l 257,8,-1
960 440 m 257,12,-1
 960 79 l 257,13,-1
 1008 79 l 257,14,-1
 1008 440 l 257,15,-1
 960 440 l 257,12,-1
16 522 m 257,16,-1
 58 463 l 257,17,-1
 882 802 l 257,18,-1
 838 860 l 257,19,-1
 16 522 l 257,16,-1
156 1148 m 257,20,-1
 156 822 l 257,21,-1
 200 822 l 257,22,-1
 200 1148 l 257,23,-1
 156 1148 l 257,20,-1
156 1152 m 257,24,-1
 156 1092 l 257,25,-1
 502 1092 l 257,26,-1
 502 1152 l 257,27,-1
 156 1152 l 257,24,-1
156 837 m 257,28,-1
 156 789 l 257,29,-1
 500 789 l 257,30,-1
 500 837 l 257,31,-1
 156 837 l 257,28,-1
456 1152 m 257,32,-1
 456 791 l 257,33,-1
 502 791 l 257,34,-1
 502 1152 l 257,35,-1
 456 1152 l 257,32,-1
260 436 m 257,36,-1
 260 110 l 257,37,-1
 306 110 l 257,38,-1
 306 436 l 257,39,-1
 260 436 l 257,36,-1
260 440 m 257,40,-1
 260 386 l 257,41,-1
 608 386 l 257,42,-1
 608 440 l 257,43,-1
 260 440 l 257,40,-1
260 125 m 257,44,-1
 260 77 l 257,45,-1
 604 77 l 257,46,-1
 604 125 l 257,47,-1
 260 125 l 257,44,-1
560 440 m 257,48,-1
 560 79 l 257,49,-1
 608 79 l 257,50,-1
 608 440 l 257,51,-1
 560 440 l 257,48,-1
EndSplineSet
EndChar

StartChar: peseta
Encoding: 8359 8359 287
GlifName: peseta
Width: 1024
VWidth: 0
GlyphClass: 2
Flags: W
LayerCount: 2
Fore
SplineSet
220 1548 m 257,0,-1
 220 0 l 257,1,-1
 271 0 l 257,2,-1
 271 1548 l 257,3,-1
 220 1548 l 257,0,-1
250 1548 m 257,4,-1
 250 1494 l 257,5,-1
 492 1494 l 257,6,-1
 492 1548 l 257,7,-1
 250 1548 l 257,4,-1
445 1548 m 257,8,-1
 445 881 l 257,9,-1
 499 881 l 257,10,-1
 499 1548 l 257,11,-1
 445 1548 l 257,8,-1
244 934 m 257,12,-1
 244 868 l 257,13,-1
 498 868 l 257,14,-1
 498 934 l 257,15,-1
 244 934 l 257,12,-1
596 1547 m 257,16,-1
 596 0 l 257,17,-1
 643 0 l 257,18,-1
 643 1547 l 257,19,-1
 596 1547 l 257,16,-1
599 68 m 257,20,-1
 599 0 l 257,21,-1
 728 0 l 257,22,-1
 728 68 l 257,23,-1
 599 68 l 257,20,-1
518 977 m 257,24,-1
 518 915 l 257,25,-1
 740 915 l 257,26,-1
 740 977 l 257,27,-1
 518 977 l 257,24,-1
778 609 m 257,28,-1
 778 563 l 257,29,-1
 933 563 l 257,30,-1
 933 609 l 257,31,-1
 778 609 l 257,28,-1
778 609 m 257,32,-1
 778 438 l 257,33,-1
 829 438 l 257,34,-1
 829 609 l 257,35,-1
 778 609 l 257,32,-1
779 61 m 257,36,-1
 779 -2 l 257,37,-1
 932 -2 l 257,38,-1
 932 61 l 257,39,-1
 779 61 l 257,36,-1
881 173 m 257,40,-1
 881 5 l 257,41,-1
 932 5 l 257,42,-1
 932 173 l 257,43,-1
 881 173 l 257,40,-1
779 438 m 257,44,-1
 881 173 l 257,45,-1
 932 173 l 257,46,-1
 829 438 l 257,47,-1
 779 438 l 257,44,-1
EndSplineSet
EndChar

StartChar: plus
Encoding: 43 43 288
GlifName: plus
Width: 1024
VWidth: 0
GlyphClass: 2
Flags: W
LayerCount: 2
Fore
SplineSet
434 1221 m 257,0,-1
 434 165 l 257,1,-1
 544 165 l 257,2,-1
 544 1221 l 257,3,-1
 434 1221 l 257,0,-1
61 796 m 257,4,-1
 61 693 l 257,5,-1
 963 693 l 257,6,-1
 963 796 l 257,7,-1
 61 796 l 257,4,-1
EndSplineSet
EndChar

StartChar: plusminus
Encoding: 177 177 289
GlifName: plusminus
Width: 1024
VWidth: 0
GlyphClass: 2
Flags: W
LayerCount: 2
Fore
SplineSet
99 110 m 257,0,-1
 99 48 l 257,1,-1
 925 48 l 257,2,-1
 925 110 l 257,3,-1
 99 110 l 257,0,-1
466 1221 m 257,4,-1
 466 228 l 257,5,-1
 527 228 l 257,6,-1
 527 1221 l 257,7,-1
 466 1221 l 257,4,-1
61 744 m 257,8,-1
 61 686 l 257,9,-1
 963 686 l 257,10,-1
 963 744 l 257,11,-1
 61 744 l 257,8,-1
EndSplineSet
EndChar

StartChar: q
Encoding: 113 113 290
GlifName: q
Width: 1024
VWidth: 0
GlyphClass: 2
Flags: W
AnchorPoint: "top" 738 1300 basechar 0
AnchorPoint: "base" 758 -496 basechar 0
LayerCount: 2
Fore
SplineSet
750 1188 m 257,0,-1
 750 -406 l 257,1,-1
 810 -406 l 257,2,-1
 810 1188 l 257,3,-1
 750 1188 l 257,0,-1
146 1023 m 257,4,-1
 146 961 l 257,5,-1
 794 961 l 257,6,-1
 794 1023 l 257,7,-1
 146 1023 l 257,4,-1
152 57 m 257,8,-1
 152 0 l 257,9,-1
 768 0 l 257,10,-1
 768 57 l 257,11,-1
 152 57 l 257,8,-1
138 1023 m 257,12,-1
 138 0 l 257,13,-1
 196 0 l 257,14,-1
 196 1023 l 257,15,-1
 138 1023 l 257,12,-1
754 -344 m 257,16,-1
 754 -406 l 257,17,-1
 886 -406 l 257,18,-1
 886 -344 l 257,19,-1
 754 -344 l 257,16,-1
EndSplineSet
EndChar

StartChar: question
Encoding: 63 63 291
GlifName: question
Width: 1024
VWidth: 0
GlyphClass: 2
Flags: W
LayerCount: 2
Fore
SplineSet
368 134 m 257,0,-1
 368 0 l 257,1,-1
 480 0 l 257,2,-1
 480 134 l 257,3,-1
 368 134 l 257,0,-1
192 1519 m 257,4,-1
 192 1426 l 257,5,-1
 828 1426 l 257,6,-1
 828 1519 l 257,7,-1
 192 1519 l 257,4,-1
746 1514 m 257,8,-1
 746 966 l 257,9,-1
 832 966 l 257,10,-1
 832 1514 l 257,11,-1
 746 1514 l 257,8,-1
368 1015 m 257,12,-1
 368 948 l 257,13,-1
 832 948 l 257,14,-1
 832 1015 l 257,15,-1
 368 1015 l 257,12,-1
368 1011 m 257,16,-1
 368 392 l 257,17,-1
 464 392 l 257,18,-1
 464 1011 l 257,19,-1
 368 1011 l 257,16,-1
EndSplineSet
EndChar

StartChar: questiondown
Encoding: 191 191 292
GlifName: questiondown
Width: 1024
VWidth: 0
GlyphClass: 2
Flags: W
LayerCount: 2
Fore
SplineSet
656 1273 m 257,0,-1
 656 1519 l 257,1,-1
 598 1519 l 257,2,-1
 598 1272 l 257,3,-1
 656 1273 l 257,0,-1
832 0 m 257,4,-1
 832 61 l 257,5,-1
 196 61 l 257,6,-1
 196 0 l 257,7,-1
 832 0 l 257,4,-1
252 5 m 257,8,-1
 252 553 l 257,9,-1
 192 553 l 257,10,-1
 192 5 l 257,11,-1
 252 5 l 257,8,-1
656 504 m 257,12,-1
 656 566 l 257,13,-1
 192 566 l 257,14,-1
 192 504 l 257,15,-1
 656 504 l 257,12,-1
656 508 m 257,16,-1
 656 1127 l 257,17,-1
 598 1127 l 257,18,-1
 598 508 l 257,19,-1
 656 508 l 257,16,-1
EndSplineSet
EndChar

StartChar: quotedbl
Encoding: 34 34 293
GlifName: quotedbl
Width: 1024
VWidth: 0
GlyphClass: 2
Flags: W
LayerCount: 2
Fore
SplineSet
280 1326 m 257,0,-1
 346 1326 l 257,1,-1
 346 1574 l 257,2,-1
 280 1574 l 257,3,-1
 280 1326 l 257,0,-1
684 1326 m 257,4,-1
 744 1326 l 257,5,-1
 744 1574 l 257,6,-1
 684 1574 l 257,7,-1
 684 1326 l 257,4,-1
EndSplineSet
EndChar

StartChar: quotedblbase
Encoding: 8222 8222 294
GlifName: quotedblbase
Width: 1024
VWidth: 0
GlyphClass: 2
Flags: W
LayerCount: 2
Fore
SplineSet
453 126 m 257,0,-1
 453 8 l 257,1,-1
 562 8 l 257,2,-1
 562 126 l 257,3,-1
 453 126 l 257,0,-1
453 8 m 257,4,-1
 383 -118 l 257,5,-1
 437 -129 l 257,6,-1
 562 8 l 257,7,-1
 453 8 l 257,4,-1
678 126 m 257,8,-1
 678 8 l 257,9,-1
 787 8 l 257,10,-1
 787 126 l 257,11,-1
 678 126 l 257,8,-1
678 8 m 257,12,-1
 608 -118 l 257,13,-1
 662 -129 l 257,14,-1
 787 8 l 257,15,-1
 678 8 l 257,12,-1
EndSplineSet
EndChar

StartChar: quotedblleft
Encoding: 8220 8220 295
GlifName: quotedblleft
Width: 1024
VWidth: 0
GlyphClass: 2
Flags: W
LayerCount: 2
Fore
SplineSet
485 1953 m 257,0,-1
 485 2067 l 257,1,-1
 361 2067 l 257,2,-1
 361 1953 l 257,3,-1
 485 1953 l 257,0,-1
436 2004 m 257,4,-1
 495 2144 l 257,5,-1
 423 2174 l 257,6,-1
 362 2069 l 257,7,-1
 436 2004 l 257,4,-1
653 1953 m 257,8,-1
 653 2067 l 257,9,-1
 529 2067 l 257,10,-1
 529 1953 l 257,11,-1
 653 1953 l 257,8,-1
604 2004 m 257,12,-1
 663 2144 l 257,13,-1
 591 2174 l 257,14,-1
 530 2069 l 257,15,-1
 604 2004 l 257,12,-1
EndSplineSet
EndChar

StartChar: quotedblright
Encoding: 8221 8221 296
GlifName: quotedblright
Width: 1024
VWidth: 0
GlyphClass: 2
Flags: W
LayerCount: 2
Fore
SplineSet
534 2174 m 257,0,-1
 534 2060 l 257,1,-1
 658 2060 l 257,2,-1
 658 2174 l 257,3,-1
 534 2174 l 257,0,-1
584 2123 m 257,4,-1
 525 1983 l 257,5,-1
 596 1953 l 257,6,-1
 657 2058 l 257,7,-1
 584 2123 l 257,4,-1
375 2174 m 257,8,-1
 375 2060 l 257,9,-1
 499 2060 l 257,10,-1
 499 2174 l 257,11,-1
 375 2174 l 257,8,-1
425 2123 m 257,12,-1
 366 1983 l 257,13,-1
 437 1953 l 257,14,-1
 498 2058 l 257,15,-1
 425 2123 l 257,12,-1
EndSplineSet
EndChar

StartChar: quoteleft
Encoding: 8216 8216 297
GlifName: quoteleft
Width: 1024
VWidth: 0
GlyphClass: 2
Flags: W
LayerCount: 2
Fore
SplineSet
519 1913 m 257,0,-1
 519 2078 l 257,1,-1
 387 2078 l 257,2,-1
 387 1917 l 257,3,-1
 519 1913 l 257,0,-1
484 2066 m 257,4,-1
 550 2275 l 257,5,-1
 480 2285 l 257,6,-1
 394 2054 l 257,7,-1
 484 2066 l 257,4,-1
EndSplineSet
EndChar

StartChar: quoteright
Encoding: 8217 8217 298
GlifName: quoteright
Width: 1024
VWidth: 0
GlyphClass: 2
Flags: W
LayerCount: 2
Fore
SplineSet
530 2168 m 257,0,-1
 530 2056 l 257,1,-1
 646 2056 l 257,2,-1
 646 2168 l 257,3,-1
 530 2168 l 257,0,-1
589 2140 m 257,4,-1
 544 1927 l 257,5,-1
 598 1882 l 257,6,-1
 646 2056 l 257,7,-1
 589 2140 l 257,4,-1
EndSplineSet
EndChar

StartChar: quotesinglbase
Encoding: 8218 8218 299
GlifName: quotesinglbase
Width: 1024
VWidth: 0
GlyphClass: 2
Flags: W
LayerCount: 2
Fore
SplineSet
537 126 m 257,0,-1
 537 8 l 257,1,-1
 646 8 l 257,2,-1
 646 126 l 257,3,-1
 537 126 l 257,0,-1
537 8 m 257,4,-1
 467 -118 l 257,5,-1
 521 -129 l 257,6,-1
 646 8 l 257,7,-1
 537 8 l 257,4,-1
EndSplineSet
EndChar

StartChar: quotesingle
Encoding: 39 39 300
GlifName: quotesingle
Width: 1024
VWidth: 0
GlyphClass: 2
Flags: W
LayerCount: 2
Fore
SplineSet
480 1496 m 257,0,-1
 480 1317 l 257,1,-1
 544 1317 l 257,2,-1
 544 1496 l 257,3,-1
 480 1496 l 257,0,-1
EndSplineSet
EndChar

StartChar: r
Encoding: 114 114 301
GlifName: r
Width: 1024
VWidth: 0
GlyphClass: 2
Flags: W
AnchorPoint: "top" 587 1112 basechar 0
AnchorPoint: "base" 400 -70 basechar 0
LayerCount: 2
Fore
SplineSet
146 1023 m 257,0,-1
 146 961 l 257,1,-1
 878 961 l 257,2,-1
 878 1023 l 257,3,-1
 146 1023 l 257,0,-1
360 989 m 257,4,-1
 360 0 l 257,5,-1
 420 0 l 257,6,-1
 420 989 l 257,7,-1
 360 989 l 257,4,-1
818 976 m 257,8,-1
 818 650 l 257,9,-1
 878 650 l 257,10,-1
 878 976 l 257,11,-1
 818 976 l 257,8,-1
EndSplineSet
EndChar

StartChar: registered
Encoding: 174 174 304
GlifName: registered
Width: 1024
VWidth: 0
GlyphClass: 2
Flags: W
LayerCount: 2
Fore
SplineSet
397 1032 m 257,0,-1
 397 501 l 257,1,-1
 434 501 l 257,2,-1
 434 1032 l 257,3,-1
 397 1032 l 257,0,-1
422 1032 m 257,4,-1
 422 994 l 257,5,-1
 651 994 l 257,6,-1
 651 1032 l 257,7,-1
 422 1032 l 257,4,-1
622 1032 m 257,8,-1
 622 802 l 257,9,-1
 660 802 l 257,10,-1
 660 1032 l 257,11,-1
 622 1032 l 257,8,-1
418 848 m 257,12,-1
 418 801 l 257,13,-1
 656 801 l 257,14,-1
 656 848 l 257,15,-1
 418 848 l 257,12,-1
465 809 m 257,16,-1
 664 500 l 257,17,-1
 707 500 l 257,18,-1
 500 809 l 257,19,-1
 465 809 l 257,16,-1
41 1540 m 257,20,-1
 41 0 l 257,21,-1
 103 0 l 257,22,-1
 103 1540 l 257,23,-1
 41 1540 l 257,20,-1
921 1537 m 257,24,-1
 921 0 l 257,25,-1
 983 0 l 257,26,-1
 983 1537 l 257,27,-1
 921 1537 l 257,24,-1
80 1538 m 257,28,-1
 80 1478 l 257,29,-1
 952 1478 l 257,30,-1
 952 1538 l 257,31,-1
 80 1538 l 257,28,-1
76 61 m 257,32,-1
 76 0 l 257,33,-1
 968 0 l 257,34,-1
 968 61 l 257,35,-1
 76 61 l 257,32,-1
EndSplineSet
EndChar

StartChar: ring
Encoding: 730 730 305
GlifName: ring
Width: 1024
VWidth: 0
GlyphClass: 2
Flags: W
LayerCount: 2
Fore
SplineSet
418 1302 m 257,0,-1
 708 1302 l 257,1,-1
 708 1049 l 257,2,-1
 418 1049 l 257,3,-1
 418 1302 l 257,0,-1
384 1331 m 257,4,-1
 384 1023 l 257,5,-1
 744 1023 l 257,6,-1
 744 1331 l 257,7,-1
 384 1331 l 257,4,-1
EndSplineSet
EndChar

StartChar: s
Encoding: 115 115 306
GlifName: s
Width: 1024
VWidth: 0
GlyphClass: 2
Flags: W
AnchorPoint: "top" 472 1134 basechar 0
AnchorPoint: "base" 512 -66 basechar 0
LayerCount: 2
Fore
SplineSet
208 1023 m 257,0,-1
 208 964 l 257,1,-1
 816 964 l 257,2,-1
 816 1023 l 257,3,-1
 208 1023 l 257,0,-1
208 1023 m 257,4,-1
 208 736 l 257,5,-1
 268 736 l 257,6,-1
 268 1023 l 257,7,-1
 208 1023 l 257,4,-1
208 59 m 257,8,-1
 208 0 l 257,9,-1
 814 0 l 257,10,-1
 814 59 l 257,11,-1
 208 59 l 257,8,-1
752 299 m 257,12,-1
 752 12 l 257,13,-1
 814 12 l 257,14,-1
 814 299 l 257,15,-1
 752 299 l 257,12,-1
208 736 m 257,16,-1
 752 299 l 257,17,-1
 814 299 l 257,18,-1
 268 736 l 257,19,-1
 208 736 l 257,16,-1
EndSplineSet
EndChar

StartChar: section
Encoding: 167 167 311
GlifName: section
Width: 1024
VWidth: 0
GlyphClass: 2
Flags: W
LayerCount: 2
Fore
SplineSet
126 1237 m 257,0,-1
 126 1178 l 257,1,-1
 724 1178 l 257,2,-1
 724 1237 l 257,3,-1
 126 1237 l 257,0,-1
126 1237 m 257,4,-1
 126 605 l 257,5,-1
 189 605 l 257,6,-1
 189 1237 l 257,7,-1
 126 1237 l 257,4,-1
163 -200 m 257,8,-1
 163 -260 l 257,9,-1
 871 -260 l 257,10,-1
 871 -200 l 257,11,-1
 163 -200 l 257,8,-1
838 -259 m 257,12,-1
 898 -259 l 257,13,-1
 898 95 l 257,14,-1
 838 95 l 257,15,-1
 838 -259 l 257,12,-1
126 606 m 257,16,-1
 837 88 l 257,17,-1
 898 88 l 257,18,-1
 184 606 l 257,19,-1
 126 606 l 257,16,-1
126 1626 m 257,20,-1
 126 1566 l 257,21,-1
 724 1566 l 257,22,-1
 724 1626 l 257,23,-1
 126 1626 l 257,20,-1
126 1629 m 257,24,-1
 126 1237 l 257,25,-1
 189 1237 l 257,26,-1
 189 1629 l 257,27,-1
 126 1629 l 257,24,-1
154 88 m 257,28,-1
 154 39 l 257,29,-1
 862 39 l 257,30,-1
 862 88 l 257,31,-1
 154 88 l 257,28,-1
837 88 m 257,32,-1
 898 88 l 257,33,-1
 898 442 l 257,34,-1
 837 442 l 257,35,-1
 837 88 l 257,32,-1
126 1237 m 257,36,-1
 838 442 l 257,37,-1
 898 442 l 257,38,-1
 189 1237 l 257,39,-1
 126 1237 l 257,36,-1
EndSplineSet
EndChar

StartChar: semicolon
Encoding: 59 59 312
GlifName: semicolon
Width: 1024
VWidth: 0
GlyphClass: 2
Flags: W
LayerCount: 2
Fore
SplineSet
444 164 m 257,0,-1
 444 7 l 257,1,-1
 580 7 l 257,2,-1
 580 164 l 257,3,-1
 444 164 l 257,0,-1
528 135 m 257,4,-1
 486 -99 l 257,5,-1
 536 -148 l 257,6,-1
 578 26 l 257,7,-1
 528 135 l 257,4,-1
450 997 m 257,8,-1
 450 840 l 257,9,-1
 586 840 l 257,10,-1
 586 997 l 257,11,-1
 450 997 l 257,8,-1
EndSplineSet
EndChar

StartChar: seven
Encoding: 55 55 313
GlifName: seven
Width: 1024
VWidth: 0
GlyphClass: 2
Flags: W
LayerCount: 2
Fore
SplineSet
54 1495 m 257,0,-1
 905 1495 l 257,1,-1
 905 0 l 257,2,-1
 967 0 l 257,3,-1
 967 1553 l 257,4,-1
 54 1553 l 257,5,-1
 54 1495 l 257,0,-1
EndSplineSet
EndChar

StartChar: six
Encoding: 54 54 314
GlifName: six
Width: 1024
VWidth: 0
GlyphClass: 2
Flags: W
LayerCount: 2
Fore
SplineSet
41 1550 m 257,0,-1
 41 201 l 257,1,-1
 41 0 l 257,2,-1
 980 0 l 257,3,-1
 980 819 l 257,4,-1
 103 819 l 257,5,-1
 103 1488 l 257,6,-1
 985 1488 l 257,7,-1
 985 1550 l 257,8,-1
 41 1550 l 257,0,-1
918 759 m 257,9,-1
 918 63 l 257,10,-1
 109 63 l 257,11,-1
 109 759 l 257,12,-1
 918 759 l 257,9,-1
EndSplineSet
EndChar

StartChar: slash
Encoding: 47 47 315
GlifName: slash
Width: 1024
VWidth: 0
GlyphClass: 2
Flags: W
LayerCount: 2
Fore
SplineSet
754 1480 m 257,0,-1
 167 10 l 257,1,-1
 270 10 l 257,2,-1
 857 1480 l 257,3,-1
 754 1480 l 257,0,-1
EndSplineSet
EndChar

StartChar: sterling
Encoding: 163 163 317
GlifName: sterling
Width: 1024
VWidth: 0
GlyphClass: 2
Flags: W
LayerCount: 2
Fore
SplineSet
435 1543 m 257,0,-1
 435 1482 l 257,1,-1
 624 1482 l 257,2,-1
 624 1543 l 257,3,-1
 435 1543 l 257,0,-1
97 770 m 257,4,-1
 97 705 l 257,5,-1
 823 705 l 257,6,-1
 823 770 l 257,7,-1
 97 770 l 257,4,-1
411 1542 m 257,8,-1
 411 0 l 257,9,-1
 487 0 l 257,10,-1
 487 1542 l 257,11,-1
 411 1542 l 257,8,-1
201 72 m 257,12,-1
 201 0 l 257,13,-1
 927 0 l 257,14,-1
 927 72 l 257,15,-1
 201 72 l 257,12,-1
EndSplineSet
EndChar

StartChar: t
Encoding: 116 116 318
GlifName: t
Width: 1024
VWidth: 0
GlyphClass: 2
Flags: W
AnchorPoint: "top" 500 1642 basechar 0
AnchorPoint: "base" 500 -82 basechar 0
LayerCount: 2
Fore
SplineSet
464 1529 m 257,0,-1
 464 0 l 257,1,-1
 524 0 l 257,2,-1
 524 1529 l 257,3,-1
 464 1529 l 257,0,-1
476 60 m 257,4,-1
 476 0 l 257,5,-1
 868 0 l 257,6,-1
 868 60 l 257,7,-1
 476 60 l 257,4,-1
156 1023 m 257,8,-1
 156 965 l 257,9,-1
 830 965 l 257,10,-1
 830 1023 l 257,11,-1
 156 1023 l 257,8,-1
EndSplineSet
EndChar

StartChar: tcaron
Encoding: 357 357 319
GlifName: tcaron
Width: 1024
VWidth: 0
GlyphClass: 2
Flags: W
LayerCount: 2
Fore
SplineSet
464 1529 m 257,0,-1
 464 0 l 257,1,-1
 524 0 l 257,2,-1
 524 1529 l 257,3,-1
 464 1529 l 257,0,-1
476 60 m 257,4,-1
 476 0 l 257,5,-1
 868 0 l 257,6,-1
 868 60 l 257,7,-1
 476 60 l 257,4,-1
156 1023 m 257,8,-1
 156 965 l 257,9,-1
 830 965 l 257,10,-1
 830 1023 l 257,11,-1
 156 1023 l 257,8,-1
654 1496 m 257,12,-1
 654 1317 l 257,13,-1
 716 1317 l 257,14,-1
 716 1496 l 257,15,-1
 654 1496 l 257,12,-1
EndSplineSet
EndChar

StartChar: thorn
Encoding: 254 254 320
GlifName: thorn
Width: 1024
VWidth: 0
GlyphClass: 2
Flags: W
LayerCount: 2
Fore
SplineSet
142 1034 m 257,0,-1
 142 -406 l 257,1,-1
 200 -406 l 257,2,-1
 200 1034 l 257,3,-1
 142 1034 l 257,0,-1
194 667 m 257,4,-1
 194 605 l 257,5,-1
 882 605 l 257,6,-1
 882 667 l 257,7,-1
 194 667 l 257,4,-1
180 -135 m 257,8,-1
 180 -195 l 257,9,-1
 882 -195 l 257,10,-1
 882 -135 l 257,11,-1
 180 -135 l 257,8,-1
822 646 m 257,12,-1
 822 -170 l 257,13,-1
 882 -170 l 257,14,-1
 882 646 l 257,15,-1
 822 646 l 257,12,-1
EndSplineSet
EndChar

StartChar: three
Encoding: 51 51 321
GlifName: three
Width: 1024
VWidth: 0
GlyphClass: 2
Flags: W
LayerCount: 2
Fore
SplineSet
101 736 m 257,0,-1
 903 736 l 257,1,-1
 903 52 l 257,2,-1
 59 52 l 257,3,-1
 68 -8 l 257,4,-1
 963 -8 l 257,5,-1
 963 1550 l 257,6,-1
 89 1550 l 257,7,-1
 89 1493 l 257,8,-1
 901 1493 l 257,9,-1
 901 796 l 257,10,-1
 101 796 l 257,11,-1
 101 736 l 257,0,-1
EndSplineSet
EndChar

StartChar: threequarters
Encoding: 190 190 322
GlifName: threequarters
Width: 1024
VWidth: 0
GlyphClass: 2
Flags: W
LayerCount: 2
Fore
SplineSet
703 1483 m 257,0,-1
 133 6 l 257,1,-1
 176 -67 l 257,2,-1
 746 1410 l 257,3,-1
 703 1483 l 257,0,-1
77 1272 m 257,4,-1
 395 1272 l 257,5,-1
 395 1084 l 257,6,-1
 59 1084 l 257,7,-1
 59 1015 l 257,8,-1
 441 1015 l 257,9,-1
 441 1553 l 257,10,-1
 72 1553 l 257,11,-1
 72 1484 l 257,12,-1
 394 1484 l 257,13,-1
 394 1340 l 257,14,-1
 77 1340 l 257,15,-1
 77 1272 l 257,4,-1
643 340 m 257,16,-1
 946 340 l 257,17,-1
 946 7 l 257,18,-1
 989 7 l 257,19,-1
 989 687 l 257,20,-1
 945 687 l 257,21,-1
 945 386 l 257,22,-1
 690 386 l 257,23,-1
 690 689 l 257,24,-1
 643 689 l 257,25,-1
 643 340 l 257,16,-1
EndSplineSet
EndChar

StartChar: tilde
Encoding: 732 732 323
GlifName: tilde
Width: 1024
VWidth: 0
GlyphClass: 2
Flags: W
LayerCount: 2
Fore
SplineSet
418 279 m 257,0,-1
 418 229 l 257,1,-1
 768 158 l 257,2,-1
 768 208 l 257,3,-1
 418 279 l 257,0,-1
178 223 m 257,4,-1
 192 165 l 257,5,-1
 418 229 l 257,6,-1
 418 279 l 257,7,-1
 178 223 l 257,4,-1
768 208 m 257,8,-1
 768 158 l 257,9,-1
 950 309 l 257,10,-1
 936 356 l 257,11,-1
 768 208 l 257,8,-1
EndSplineSet
EndChar

StartChar: tildecomb
Encoding: 771 771 324
GlifName: tildecomb
Width: 0
VWidth: 0
GlyphClass: 4
Flags: W
HStem: 1539 50
AnchorPoint: "top" 2 784 mark 0
LayerCount: 2
Fore
SplineSet
-168 903 m 257,0,-1
 -168 853 l 257,1,-1
 182 782 l 257,2,-1
 182 832 l 257,3,-1
 -168 903 l 257,0,-1
-408 847 m 257,4,-1
 -394 789 l 257,5,-1
 -168 853 l 257,6,-1
 -168 903 l 257,7,-1
 -408 847 l 257,4,-1
182 832 m 257,8,-1
 182 782 l 257,9,-1
 364 933 l 257,10,-1
 350 980 l 257,11,-1
 182 832 l 257,8,-1
EndSplineSet
PickledDataWithLists: "(dp0
Vcom.fontlab.hintData
p1
(dp2
Vhhints
p3
(lp4
(dp5
Vposition
p6
I1539
sVwidth
p7
I50
sass."
EndChar

StartChar: two
Encoding: 50 50 326
GlifName: two
Width: 1024
VWidth: 0
GlyphClass: 2
Flags: W
LayerCount: 2
Fore
SplineSet
109 1484 m 257,0,-1
 843 1484 l 257,1,-1
 843 908 l 257,2,-1
 116 908 l 257,3,-1
 116 0 l 257,4,-1
 889 0 l 257,5,-1
 889 59 l 257,6,-1
 176 59 l 257,7,-1
 176 849 l 257,8,-1
 903 849 l 257,9,-1
 903 1544 l 257,10,-1
 109 1544 l 257,11,-1
 109 1484 l 257,0,-1
EndSplineSet
EndChar

StartChar: u
Encoding: 117 117 327
GlifName: u
Width: 1024
VWidth: 0
GlyphClass: 2
Flags: W
AnchorPoint: "top" 440 1146 basechar 0
AnchorPoint: "base" 724 -50 basechar 0
LayerCount: 2
Fore
SplineSet
138 1034 m 257,0,-1
 138 0 l 257,1,-1
 198 0 l 257,2,-1
 198 1034 l 257,3,-1
 138 1034 l 257,0,-1
712 1033 m 257,4,-1
 712 0 l 257,5,-1
 770 0 l 257,6,-1
 770 1033 l 257,7,-1
 712 1033 l 257,4,-1
184 61 m 257,8,-1
 184 0 l 257,9,-1
 886 0 l 257,10,-1
 886 61 l 257,11,-1
 184 61 l 257,8,-1
EndSplineSet
EndChar

StartChar: underscore
Encoding: 95 95 336
GlifName: underscore
Width: 1024
VWidth: 0
GlyphClass: 2
Flags: W
LayerCount: 2
Fore
SplineSet
0 0 m 257,0,-1
 0 -40 l 257,1,-1
 1024 -40 l 257,2,-1
 1024 0 l 257,3,-1
 0 0 l 257,0,-1
EndSplineSet
EndChar

StartChar: uni00B2
Encoding: 178 178 338
GlifName: uni00B_2
Width: 1024
VWidth: 0
GlyphClass: 2
Flags: W
LayerCount: 2
Fore
SplineSet
371 1522 m 257,0,-1
 724 1522 l 257,1,-1
 724 1307 l 257,2,-1
 374 1307 l 257,3,-1
 374 969 l 257,4,-1
 746 969 l 257,5,-1
 746 991 l 257,6,-1
 403 991 l 257,7,-1
 403 1285 l 257,8,-1
 753 1285 l 257,9,-1
 753 1544 l 257,10,-1
 371 1544 l 257,11,-1
 371 1522 l 257,0,-1
EndSplineSet
EndChar

StartChar: uni00B3
Encoding: 179 179 339
GlifName: uni00B_3
Width: 1024
VWidth: 0
GlyphClass: 2
Flags: W
LayerCount: 2
Fore
SplineSet
248 1246 m 257,0,-1
 705 1246 l 257,1,-1
 705 989 l 257,2,-1
 223 989 l 257,3,-1
 229 967 l 257,4,-1
 739 967 l 257,5,-1
 739 1550 l 257,6,-1
 240 1550 l 257,7,-1
 240 1529 l 257,8,-1
 703 1529 l 257,9,-1
 703 1268 l 257,10,-1
 248 1268 l 257,11,-1
 248 1246 l 257,0,-1
EndSplineSet
EndChar

StartChar: uni00B9
Encoding: 185 185 340
GlifName: uni00B_9
Width: 1024
VWidth: 0
GlyphClass: 2
Flags: W
LayerCount: 2
Fore
SplineSet
536 888 m 257,0,-1
 566 888 l 257,1,-1
 566 1662 l 257,2,-1
 536 1662 l 257,3,-1
 536 888 l 257,0,-1
536 1662 m 257,4,-1
 477 1600 l 257,5,-1
 502 1586 l 257,6,-1
 566 1662 l 257,7,-1
 536 1662 l 257,4,-1
EndSplineSet
EndChar

StartChar: uni018F
Encoding: 399 399 353
GlifName: uni018F_
Width: 1024
VWidth: 0
GlyphClass: 2
Flags: W
AnchorPoint: "top" 568 1630 basechar 0
AnchorPoint: "base" 690 -117 basechar 0
LayerCount: 2
Fore
SplineSet
804 0 m 257,0,-1
 804 80 l 257,1,-1
 265 80 l 257,2,-1
 265 0 l 257,3,-1
 804 0 l 257,0,-1
854 0 m 257,4,-1
 854 1543 l 257,5,-1
 778 1543 l 257,6,-1
 778 0 l 257,7,-1
 854 0 l 257,4,-1
785 1465 m 257,8,-1
 785 1543 l 257,9,-1
 170 1543 l 257,10,-1
 170 1465 l 257,11,-1
 785 1465 l 257,8,-1
784 801 m 257,12,-1
 784 868 l 257,13,-1
 130 868 l 257,14,-1
 130 801 l 257,15,-1
 784 801 l 257,12,-1
344 30 m 257,16,-1
 184 869 l 257,17,-1
 107 869 l 257,18,-1
 267 30 l 257,19,-1
 344 30 l 257,16,-1
EndSplineSet
EndChar

StartChar: uni0192
Encoding: 402 402 354
GlifName: uni0192
Width: 1024
VWidth: 0
GlyphClass: 2
Flags: W
LayerCount: 2
Fore
SplineSet
485 1023 m 257,0,-1
 485 -406 l 257,1,-1
 546 -406 l 257,2,-1
 546 1023 l 257,3,-1
 485 1023 l 257,0,-1
512 1023 m 257,4,-1
 512 966 l 257,5,-1
 957 966 l 257,6,-1
 957 1023 l 257,7,-1
 512 1023 l 257,4,-1
229 559 m 257,8,-1
 229 500 l 257,9,-1
 860 500 l 257,10,-1
 860 559 l 257,11,-1
 229 559 l 257,8,-1
167 -345 m 257,12,-1
 167 -406 l 257,13,-1
 539 -406 l 257,14,-1
 539 -345 l 257,15,-1
 167 -345 l 257,12,-1
EndSplineSet
EndChar

StartChar: uni0237
Encoding: 567 567 401
GlifName: uni0237
Width: 1024
VWidth: 0
GlyphClass: 2
Flags: W
AnchorPoint: "top" 720 1182 basechar 0
LayerCount: 2
Fore
SplineSet
768 1023 m 257,0,-1
 768 -411 l 257,1,-1
 826 -411 l 257,2,-1
 826 1023 l 257,3,-1
 768 1023 l 257,0,-1
198 -348 m 257,4,-1
 198 -406 l 257,5,-1
 788 -406 l 257,6,-1
 788 -348 l 257,7,-1
 198 -348 l 257,4,-1
198 -6 m 257,8,-1
 198 -378 l 257,9,-1
 258 -378 l 257,10,-1
 258 -6 l 257,11,-1
 198 -6 l 257,8,-1
EndSplineSet
EndChar

StartChar: uni0259
Encoding: 601 601 402
GlifName: uni0259
Width: 1024
VWidth: 0
GlyphClass: 2
Flags: W
LayerCount: 2
Fore
SplineSet
804 0 m 257,0,-1
 804 107 l 257,1,-1
 240 174 l 257,2,-1
 240 67 l 257,3,-1
 804 0 l 257,0,-1
854 0 m 257,4,-1
 854 1023 l 257,5,-1
 753 1023 l 257,6,-1
 753 0 l 257,7,-1
 854 0 l 257,4,-1
752 914 m 257,8,-1
 752 1023 l 257,9,-1
 170 1023 l 257,10,-1
 170 914 l 257,11,-1
 752 914 l 257,8,-1
784 494 m 257,12,-1
 784 577 l 257,13,-1
 194 577 l 257,14,-1
 194 494 l 257,15,-1
 784 494 l 257,12,-1
318 97 m 257,16,-1
 247 578 l 257,17,-1
 171 578 l 257,18,-1
 242 97 l 257,19,-1
 318 97 l 257,16,-1
EndSplineSet
EndChar

StartChar: uni02C9
Encoding: 713 713 406
GlifName: uni02C_9
Width: 1024
VWidth: 0
GlyphClass: 2
Flags: W
LayerCount: 2
Fore
SplineSet
232 1630 m 257,0,-1
 232 1550 l 257,1,-1
 792 1550 l 257,2,-1
 792 1630 l 257,3,-1
 232 1630 l 257,0,-1
EndSplineSet
EndChar

StartChar: uni02CA
Encoding: 714 714 407
GlifName: uni02C_A_
Width: 1024
VWidth: 0
GlyphClass: 2
Flags: W
LayerCount: 2
Fore
SplineSet
525 949 m 257,0,-1
 446 764 l 257,1,-1
 499 730 l 257,2,-1
 578 915 l 257,3,-1
 525 949 l 257,0,-1
EndSplineSet
EndChar

StartChar: uni02CB
Encoding: 715 715 408
GlifName: uni02C_B_
Width: 1024
VWidth: 0
GlyphClass: 2
Flags: W
LayerCount: 2
Fore
SplineSet
420 877 m 257,0,-1
 544 673 l 257,1,-1
 604 727 l 257,2,-1
 480 932 l 257,3,-1
 420 877 l 257,0,-1
EndSplineSet
EndChar

StartChar: uni0302
Encoding: 770 770 409
GlifName: uni0302
Width: 0
VWidth: 0
GlyphClass: 4
Flags: W
AnchorPoint: "top" 4 780 mark 0
LayerCount: 2
Fore
SplineSet
7 1105 m 257,0,-1
 -29 1105 l 257,1,-1
 -161 795 l 257,2,-1
 -134 778 l 257,3,-1
 7 1105 l 257,0,-1
-26 1107 m 257,4,-1
 136 773 l 257,5,-1
 177 791 l 257,6,-1
 11 1107 l 257,7,-1
 -26 1107 l 257,4,-1
EndSplineSet
EndChar

StartChar: uni0304
Encoding: 772 772 410
GlifName: uni0304
Width: 0
VWidth: 0
GlyphClass: 4
Flags: W
AnchorPoint: "top" 2 776 mark 0
LayerCount: 2
Fore
SplineSet
-317 860 m 257,0,-1
 -317 808 l 257,1,-1
 243 808 l 257,2,-1
 243 860 l 257,3,-1
 -317 860 l 257,0,-1
EndSplineSet
EndChar

StartChar: uni0305
Encoding: 773 773 411
GlifName: uni0305
Width: 0
VWidth: 0
GlyphClass: 4
Flags: W
AnchorPoint: "top" 18 1480 mark 0
LayerCount: 2
Fore
SplineSet
-377 1602 m 257,0,-1
 -377 1542 l 257,1,-1
 377 1542 l 257,2,-1
 377 1602 l 257,3,-1
 -377 1602 l 257,0,-1
EndSplineSet
EndChar

StartChar: uni0306
Encoding: 774 774 412
GlifName: uni0306
Width: 0
VWidth: 0
GlyphClass: 4
Flags: W
AnchorPoint: "top" -6 765 mark 0
LayerCount: 2
Fore
SplineSet
137 858 m 257,0,-1
 137 788 l 257,1,-1
 302 858 l 257,2,-1
 302 953 l 257,3,-1
 137 858 l 257,0,-1
-187 858 m 257,4,-1
 -187 788 l 257,5,-1
 137 788 l 257,6,-1
 137 858 l 257,7,-1
 -187 858 l 257,4,-1
-358 938 m 257,8,-1
 -358 858 l 257,9,-1
 -187 788 l 257,10,-1
 -187 858 l 257,11,-1
 -358 938 l 257,8,-1
EndSplineSet
EndChar

StartChar: uni0307
Encoding: 775 775 413
GlifName: uni0307
Width: 0
VWidth: 0
GlyphClass: 4
Flags: W
AnchorPoint: "top" 2 772 mark 0
LayerCount: 2
Fore
SplineSet
-39 917 m 257,0,-1
 -39 816 l 257,1,-1
 73 816 l 257,2,-1
 73 917 l 257,3,-1
 -39 917 l 257,0,-1
EndSplineSet
EndChar

StartChar: uni0308
Encoding: 776 776 414
GlifName: uni0308
Width: 0
VWidth: 0
GlyphClass: 4
Flags: W
AnchorPoint: "top" 4 1592 mark 0
LayerCount: 2
Fore
SplineSet
-177 1738 m 257,0,-1
 -177 1637 l 257,1,-1
 -65 1637 l 257,2,-1
 -65 1738 l 257,3,-1
 -177 1738 l 257,0,-1
65 1738 m 257,4,-1
 65 1637 l 257,5,-1
 177 1637 l 257,6,-1
 177 1738 l 257,7,-1
 65 1738 l 257,4,-1
EndSplineSet
EndChar

StartChar: uni030A
Encoding: 778 778 415
GlifName: uni030A_
Width: 0
VWidth: 0
GlyphClass: 4
Flags: W
AnchorPoint: "top" -4 777 mark 0
LayerCount: 2
Fore
SplineSet
-146 1091 m 257,0,-1
 144 1091 l 257,1,-1
 144 838 l 257,2,-1
 -146 838 l 257,3,-1
 -146 1091 l 257,0,-1
-180 1120 m 257,4,-1
 -180 811 l 257,5,-1
 180 811 l 257,6,-1
 180 1120 l 257,7,-1
 -180 1120 l 257,4,-1
EndSplineSet
EndChar

StartChar: uni030B
Encoding: 779 779 416
GlifName: uni030B_
Width: 0
VWidth: 0
GlyphClass: 4
Flags: W
AnchorPoint: "top" -13 772 mark 0
LayerCount: 2
Fore
SplineSet
-257 777 m 257,0,-1
 -191 777 l 257,1,-1
 -191 1025 l 257,2,-1
 -257 1025 l 257,3,-1
 -257 777 l 257,0,-1
147 777 m 257,4,-1
 207 777 l 257,5,-1
 207 1025 l 257,6,-1
 147 1025 l 257,7,-1
 147 777 l 257,4,-1
EndSplineSet
EndChar

StartChar: uni030C
Encoding: 780 780 417
GlifName: uni030C_
Width: 0
VWidth: 0
GlyphClass: 4
Flags: W
AnchorPoint: "top" 4 716 mark 0
LayerCount: 2
Fore
SplineSet
24 803 m 257,0,-1
 -117 1130 l 257,1,-1
 -144 1113 l 257,2,-1
 -12 803 l 257,3,-1
 24 803 l 257,0,-1
-9 802 m 257,4,-1
 28 802 l 257,5,-1
 194 1117 l 257,6,-1
 153 1135 l 257,7,-1
 -9 802 l 257,4,-1
EndSplineSet
EndChar

StartChar: uni030F
Encoding: 783 783 418
GlifName: uni030F_
Width: 0
VWidth: 0
GlyphClass: 4
Flags: W
AnchorPoint: "top" -8 769 mark 0
LayerCount: 2
Fore
SplineSet
-3 1000 m 257,0,-1
 117 764 l 257,1,-1
 144 810 l 257,2,-1
 25 1047 l 257,3,-1
 -3 1000 l 257,0,-1
-221 1000 m 257,4,-1
 -101 764 l 257,5,-1
 -71 803 l 257,6,-1
 -190 1040 l 257,7,-1
 -221 1000 l 257,4,-1
EndSplineSet
EndChar

StartChar: uni0311
Encoding: 785 785 419
GlifName: uni0311
Width: 0
VWidth: 0
GlyphClass: 4
Flags: W
AnchorPoint: "top" -5 764 mark 0
LayerCount: 2
Fore
SplineSet
-156 821 m 257,0,-1
 -156 889 l 257,1,-1
 -321 821 l 257,2,-1
 -321 724 l 257,3,-1
 -156 821 l 257,0,-1
168 821 m 257,4,-1
 168 889 l 257,5,-1
 -156 889 l 257,6,-1
 -156 821 l 257,7,-1
 168 821 l 257,4,-1
339 739 m 257,8,-1
 339 821 l 257,9,-1
 168 889 l 257,10,-1
 168 821 l 257,11,-1
 339 739 l 257,8,-1
EndSplineSet
EndChar

StartChar: uni031B
Encoding: 795 795 420
GlifName: uni031B_
Width: 0
VWidth: 0
GlyphClass: 4
Flags: W
AnchorPoint: "top" 10 774 mark 0
LayerCount: 2
Fore
SplineSet
-65 1125 m 257,0,-1
 -65 968 l 257,1,-1
 71 968 l 257,2,-1
 71 1125 l 257,3,-1
 -65 1125 l 257,0,-1
19 1095 m 257,4,-1
 -23 861 l 257,5,-1
 27 812 l 257,6,-1
 69 986 l 257,7,-1
 19 1095 l 257,4,-1
EndSplineSet
EndChar

StartChar: uni0326
Encoding: 806 806 421
GlifName: uni0326
Width: 0
VWidth: 0
GlyphClass: 4
Flags: W
AnchorPoint: "base" 22 -5 mark 0
LayerCount: 2
Fore
SplineSet
-34 0 m 257,0,-1
 -34 -132 l 257,1,-1
 78 -132 l 257,2,-1
 78 0 l 257,3,-1
 -34 0 l 257,0,-1
-34 -132 m 257,4,-1
 -78 -246 l 257,5,-1
 -14 -273 l 257,6,-1
 78 -132 l 257,7,-1
 -34 -132 l 257,4,-1
EndSplineSet
EndChar

StartChar: uni0327
Encoding: 807 807 422
GlifName: uni0327
Width: 0
VWidth: 0
GlyphClass: 4
Flags: W
AnchorPoint: "base" -446 90 mark 0
LayerCount: 2
Fore
SplineSet
-226 180 m 257,0,-1
 -226 -60 l 257,1,-1
 -168 -60 l 257,2,-1
 -168 180 l 257,3,-1
 -226 180 l 257,0,-1
-220 -347 m 257,4,-1
 -220 -406 l 257,5,-1
 226 -406 l 257,6,-1
 226 -347 l 257,7,-1
 -220 -347 l 257,4,-1
167 0 m 257,8,-1
 167 -372 l 257,9,-1
 226 -372 l 257,10,-1
 226 0 l 257,11,-1
 167 0 l 257,8,-1
-220 0 m 257,12,-1
 -220 -60 l 257,13,-1
 226 -60 l 257,14,-1
 226 0 l 257,15,-1
 -220 0 l 257,12,-1
EndSplineSet
EndChar

StartChar: uni0328
Encoding: 808 808 423
GlifName: uni0328
Width: 0
VWidth: 0
GlyphClass: 4
Flags: W
AnchorPoint: "base" -167 0 mark 0
LayerCount: 2
Fore
SplineSet
-271 -351 m 257,0,-1
 -271 -411 l 257,1,-1
 270 -411 l 257,2,-1
 270 -351 l 257,3,-1
 -271 -351 l 257,0,-1
-271 0 m 257,4,-1
 -271 -411 l 257,5,-1
 -211 -411 l 257,6,-1
 -211 0 l 257,7,-1
 -271 0 l 257,4,-1
-271 0 m 257,8,-1
 -271 -59 l 257,9,-1
 271 -59 l 257,10,-1
 271 0 l 257,11,-1
 -271 0 l 257,8,-1
EndSplineSet
EndChar

StartChar: uni0331
Encoding: 817 817 424
GlifName: uni0331
Width: 0
VWidth: 0
GlyphClass: 4
Flags: W
AnchorPoint: "base" 4 -163 mark 0
LayerCount: 2
Fore
SplineSet
-280 -204 m 257,0,-1
 -280 -248 l 257,1,-1
 280 -248 l 257,2,-1
 280 -204 l 257,3,-1
 -280 -204 l 257,0,-1
EndSplineSet
EndChar

StartChar: uni0900
Encoding: 2304 2304 425
GlifName: uni0900
Width: 0
VWidth: 0
GlyphClass: 4
Flags: W
AnchorPoint: "abvm_deva" 42 1648 mark 0
LayerCount: 2
Fore
SplineSet
-332 2121 m 257,0,-1
 -332 1639 l 257,1,-1
 -272 1639 l 257,2,-1
 -272 2121 l 257,3,-1
 -332 2121 l 257,0,-1
-318 2122 m 257,4,-1
 -318 2061 l 257,5,-1
 294 2061 l 257,6,-1
 294 2122 l 257,7,-1
 -318 2122 l 257,4,-1
-46 1919 m 257,8,-1
 -46 1796 l 257,9,-1
 70 1796 l 257,10,-1
 70 1919 l 257,11,-1
 -46 1919 l 257,8,-1
272 2122 m 257,12,-1
 272 1636 l 257,13,-1
 332 1636 l 257,14,-1
 332 2122 l 257,15,-1
 272 2122 l 257,12,-1
EndSplineSet
EndChar

StartChar: uni0901
Encoding: 2305 2305 426
GlifName: uni0901
Width: 0
VWidth: 0
GlyphClass: 4
Flags: W
AnchorPoint: "abvm_deva" 0 1618 mark 0
LayerCount: 2
Fore
SplineSet
-349 2124 m 257,0,-1
 -349 1639 l 257,1,-1
 -289 1639 l 257,2,-1
 -289 2124 l 257,3,-1
 -349 2124 l 257,0,-1
-314 1699 m 257,4,-1
 -314 1639 l 257,5,-1
 320 1639 l 257,6,-1
 320 1699 l 257,7,-1
 -314 1699 l 257,4,-1
-47 1962 m 257,8,-1
 -47 1839 l 257,9,-1
 70 1839 l 257,10,-1
 70 1962 l 257,11,-1
 -47 1962 l 257,8,-1
289 2130 m 257,12,-1
 289 1639 l 257,13,-1
 349 1639 l 257,14,-1
 349 2130 l 257,15,-1
 289 2130 l 257,12,-1
EndSplineSet
EndChar

StartChar: uni0902
Encoding: 2306 2306 427
GlifName: uni0902
Width: 0
VWidth: 0
GlyphClass: 4
Flags: W
AnchorPoint: "abvm_deva" -156 1621 mark 0
LayerCount: 2
Fore
SplineSet
-60 1700 m 257,0,-1
 -60 1580 l 257,1,-1
 60 1580 l 257,2,-1
 60 1700 l 257,3,-1
 -60 1700 l 257,0,-1
EndSplineSet
EndChar

StartChar: uni0903
Encoding: 2307 2307 428
GlifName: uni0903
Width: 1024
VWidth: 0
GlyphClass: 2
Flags: W
LayerCount: 2
Fore
SplineSet
471 410 m 257,0,-1
 471 290 l 257,1,-1
 591 290 l 257,2,-1
 591 410 l 257,3,-1
 471 410 l 257,0,-1
433 1302 m 257,4,-1
 433 1182 l 257,5,-1
 553 1182 l 257,6,-1
 553 1302 l 257,7,-1
 433 1302 l 257,4,-1
EndSplineSet
EndChar

StartChar: uni0904
Encoding: 2308 2308 429
GlifName: uni0904
Width: 1024
VWidth: 0
GlyphClass: 2
Flags: W
AnchorPoint: "abvm_deva" 636 1972 basechar 0
LayerCount: 2
Fore
SplineSet
259 2062 m 257,0,-1
 259 1823 l 257,1,-1
 320 1823 l 257,2,-1
 320 2062 l 257,3,-1
 259 2062 l 257,0,-1
258 1866 m 257,4,-1
 258 1809 l 257,5,-1
 941 1809 l 257,6,-1
 941 1866 l 257,7,-1
 258 1866 l 257,4,-1
881 1863 m 257,8,-1
 881 1545 l 257,9,-1
 941 1545 l 257,10,-1
 941 1863 l 257,11,-1
 881 1863 l 257,8,-1
729 1550 m 257,12,-1
 729 1488 l 257,13,-1
 1026 1488 l 257,14,-1
 1026 1550 l 257,15,-1
 729 1550 l 257,12,-1
908 1518 m 257,16,-1
 908 0 l 257,17,-1
 969 0 l 257,18,-1
 969 1518 l 257,19,-1
 908 1518 l 257,16,-1
43 1550 m 257,20,-1
 43 1487 l 257,21,-1
 566 1487 l 257,22,-1
 566 1550 l 257,23,-1
 43 1550 l 257,20,-1
533 1550 m 257,24,-1
 533 34 l 257,25,-1
 592 34 l 257,26,-1
 592 1550 l 257,27,-1
 533 1550 l 257,24,-1
127 894 m 257,28,-1
 127 835 l 257,29,-1
 935 835 l 257,30,-1
 935 894 l 257,31,-1
 127 894 l 257,28,-1
18 65 m 257,32,-1
 18 0 l 257,33,-1
 592 0 l 257,34,-1
 592 65 l 257,35,-1
 18 65 l 257,32,-1
EndSplineSet
EndChar

StartChar: uni0905
Encoding: 2309 2309 430
GlifName: uni0905
Width: 1024
VWidth: 0
GlyphClass: 2
Flags: W
AnchorPoint: "abvm_deva" 852 1618 basechar 0
LayerCount: 2
Fore
SplineSet
728 1550 m 257,0,-1
 728 1488 l 257,1,-1
 1025 1488 l 257,2,-1
 1025 1550 l 257,3,-1
 728 1550 l 257,0,-1
908 1518 m 257,4,-1
 908 0 l 257,5,-1
 969 0 l 257,6,-1
 969 1518 l 257,7,-1
 908 1518 l 257,4,-1
43 1550 m 257,8,-1
 43 1487 l 257,9,-1
 566 1487 l 257,10,-1
 566 1550 l 257,11,-1
 43 1550 l 257,8,-1
533 1550 m 257,12,-1
 533 34 l 257,13,-1
 592 34 l 257,14,-1
 592 1550 l 257,15,-1
 533 1550 l 257,12,-1
127 894 m 257,16,-1
 127 835 l 257,17,-1
 935 835 l 257,18,-1
 935 894 l 257,19,-1
 127 894 l 257,16,-1
18 65 m 257,20,-1
 18 0 l 257,21,-1
 592 0 l 257,22,-1
 592 65 l 257,23,-1
 18 65 l 257,20,-1
EndSplineSet
EndChar

StartChar: uni0906
Encoding: 2310 2310 431
GlifName: uni0906
Width: 1024
VWidth: 0
GlyphClass: 2
Flags: W
AnchorPoint: "abvm_deva" 762 1606 basechar 0
LayerCount: 2
Fore
SplineSet
525 1550 m 257,0,-1
 525 1488 l 257,1,-1
 1026 1488 l 257,2,-1
 1026 1550 l 257,3,-1
 525 1550 l 257,0,-1
708 1518 m 257,4,-1
 708 0 l 257,5,-1
 769 0 l 257,6,-1
 769 1518 l 257,7,-1
 708 1518 l 257,4,-1
41 1550 m 257,8,-1
 41 1487 l 257,9,-1
 364 1487 l 257,10,-1
 364 1550 l 257,11,-1
 41 1550 l 257,8,-1
331 1550 m 257,12,-1
 331 34 l 257,13,-1
 390 34 l 257,14,-1
 390 1550 l 257,15,-1
 331 1550 l 257,12,-1
125 894 m 257,16,-1
 125 835 l 257,17,-1
 733 835 l 257,18,-1
 733 894 l 257,19,-1
 125 894 l 257,16,-1
16 65 m 257,20,-1
 16 0 l 257,21,-1
 390 0 l 257,22,-1
 390 65 l 257,23,-1
 16 65 l 257,20,-1
891 1518 m 257,24,-1
 891 0 l 257,25,-1
 952 0 l 257,26,-1
 952 1518 l 257,27,-1
 891 1518 l 257,24,-1
EndSplineSet
EndChar

StartChar: uni0907
Encoding: 2311 2311 432
GlifName: uni0907
Width: 1024
VWidth: 0
GlyphClass: 2
Flags: W
AnchorPoint: "abvm_deva" 630 1600 basechar 0
LayerCount: 2
Fore
SplineSet
-6 1550 m 257,0,-1
 -6 1488 l 257,1,-1
 1028 1488 l 257,2,-1
 1028 1550 l 257,3,-1
 -6 1550 l 257,0,-1
690 1518 m 257,4,-1
 690 1173 l 257,5,-1
 749 1173 l 257,6,-1
 749 1518 l 257,7,-1
 690 1518 l 257,4,-1
168 1205 m 257,8,-1
 168 1144 l 257,9,-1
 748 1144 l 257,10,-1
 748 1205 l 257,11,-1
 168 1205 l 257,8,-1
168 1181 m 257,12,-1
 168 845 l 257,13,-1
 226 845 l 257,14,-1
 226 1181 l 257,15,-1
 168 1181 l 257,12,-1
168 881 m 257,16,-1
 168 819 l 257,17,-1
 814 819 l 257,18,-1
 814 881 l 257,19,-1
 168 881 l 257,16,-1
780 881 m 257,20,-1
 780 285 l 257,21,-1
 840 285 l 257,22,-1
 840 881 l 257,23,-1
 780 881 l 257,20,-1
146 298 m 257,24,-1
 146 237 l 257,25,-1
 841 237 l 257,26,-1
 841 298 l 257,27,-1
 146 298 l 257,24,-1
262 298 m 257,28,-1
 262 -244 l 257,29,-1
 322 -244 l 257,30,-1
 322 298 l 257,31,-1
 262 298 l 257,28,-1
EndSplineSet
EndChar

StartChar: uni0908
Encoding: 2312 2312 433
GlifName: uni0908
Width: 1024
VWidth: 0
GlyphClass: 2
Flags: W
AnchorPoint: "abvm_deva" 780 1624 basechar 0
LayerCount: 2
Fore
SplineSet
-6 1550 m 257,0,-1
 -6 1488 l 257,1,-1
 1031 1488 l 257,2,-1
 1031 1550 l 257,3,-1
 -6 1550 l 257,0,-1
692 1529 m 257,4,-1
 692 1183 l 257,5,-1
 752 1183 l 257,6,-1
 752 1529 l 257,7,-1
 692 1529 l 257,4,-1
170 1207 m 257,8,-1
 170 1146 l 257,9,-1
 752 1146 l 257,10,-1
 752 1207 l 257,11,-1
 170 1207 l 257,8,-1
170 1181 m 257,12,-1
 170 849 l 257,13,-1
 230 849 l 257,14,-1
 230 1181 l 257,15,-1
 170 1181 l 257,12,-1
170 881 m 257,16,-1
 170 821 l 257,17,-1
 822 821 l 257,18,-1
 822 881 l 257,19,-1
 170 881 l 257,16,-1
784 881 m 257,20,-1
 784 285 l 257,21,-1
 844 285 l 257,22,-1
 844 881 l 257,23,-1
 784 881 l 257,20,-1
148 298 m 257,24,-1
 148 237 l 257,25,-1
 846 237 l 257,26,-1
 846 298 l 257,27,-1
 148 298 l 257,24,-1
264 298 m 257,28,-1
 264 -244 l 257,29,-1
 324 -244 l 257,30,-1
 324 298 l 257,31,-1
 264 298 l 257,28,-1
316 1860 m 257,32,-1
 547 1550 l 257,33,-1
 651 1550 l 257,34,-1
 394 1908 l 257,35,-1
 316 1860 l 257,32,-1
EndSplineSet
EndChar

StartChar: uni0909
Encoding: 2313 2313 434
GlifName: uni0909
Width: 1024
VWidth: 0
GlyphClass: 2
Flags: W
AnchorPoint: "abvm_deva" 558 1606 basechar 0
LayerCount: 2
Fore
SplineSet
0 1550 m 257,0,-1
 0 1488 l 257,1,-1
 1025 1488 l 257,2,-1
 1025 1550 l 257,3,-1
 0 1550 l 257,0,-1
623 1530 m 257,4,-1
 623 1001 l 257,5,-1
 682 1001 l 257,6,-1
 682 1530 l 257,7,-1
 623 1530 l 257,4,-1
238 1044 m 257,8,-1
 238 985 l 257,9,-1
 880 985 l 257,10,-1
 880 1044 l 257,11,-1
 238 1044 l 257,8,-1
821 994 m 257,12,-1
 821 0 l 257,13,-1
 880 0 l 257,14,-1
 880 994 l 257,15,-1
 821 994 l 257,12,-1
133 61 m 257,16,-1
 133 0 l 257,17,-1
 870 0 l 257,18,-1
 870 61 l 257,19,-1
 133 61 l 257,16,-1
133 346 m 257,20,-1
 133 19 l 257,21,-1
 192 19 l 257,22,-1
 192 346 l 257,23,-1
 133 346 l 257,20,-1
EndSplineSet
EndChar

StartChar: uni090A
Encoding: 2314 2314 435
GlifName: uni090A_
Width: 1024
VWidth: 0
GlyphClass: 2
Flags: W
AnchorPoint: "abvm_deva" 516 1612 basechar 0
LayerCount: 2
Fore
SplineSet
0 1550 m 257,0,-1
 0 1488 l 257,1,-1
 1025 1488 l 257,2,-1
 1025 1550 l 257,3,-1
 0 1550 l 257,0,-1
334 1530 m 257,4,-1
 334 1001 l 257,5,-1
 395 1001 l 257,6,-1
 395 1530 l 257,7,-1
 334 1530 l 257,4,-1
154 1044 m 257,8,-1
 154 983 l 257,9,-1
 959 983 l 257,10,-1
 959 1044 l 257,11,-1
 154 1044 l 257,8,-1
629 994 m 257,12,-1
 629 33 l 257,13,-1
 690 33 l 257,14,-1
 690 994 l 257,15,-1
 629 994 l 257,12,-1
49 61 m 257,16,-1
 49 0 l 257,17,-1
 690 0 l 257,18,-1
 690 61 l 257,19,-1
 49 61 l 257,16,-1
49 346 m 257,20,-1
 49 19 l 257,21,-1
 110 19 l 257,22,-1
 110 346 l 257,23,-1
 49 346 l 257,20,-1
899 1023 m 257,24,-1
 899 197 l 257,25,-1
 959 197 l 257,26,-1
 959 1023 l 257,27,-1
 899 1023 l 257,24,-1
EndSplineSet
EndChar

StartChar: uni090B
Encoding: 2315 2315 436
GlifName: uni090B_
Width: 1024
VWidth: 0
GlyphClass: 2
Flags: W
AnchorPoint: "abvm_deva" 600 1600 basechar 0
LayerCount: 2
Fore
SplineSet
0 1550 m 257,0,-1
 0 1488 l 257,1,-1
 1017 1488 l 257,2,-1
 1017 1550 l 257,3,-1
 0 1550 l 257,0,-1
508 1533 m 257,4,-1
 508 0 l 257,5,-1
 556 0 l 257,6,-1
 556 1545 l 257,7,-1
 508 1533 l 257,4,-1
18 1043 m 257,8,-1
 18 983 l 257,9,-1
 321 983 l 257,10,-1
 321 1043 l 257,11,-1
 18 1043 l 257,8,-1
529 471 m 257,12,-1
 82 422 l 257,13,-1
 167 376 l 257,14,-1
 564 417 l 257,15,-1
 529 471 l 257,12,-1
321 1043 m 257,16,-1
 321 983 l 257,17,-1
 555 902 l 257,18,-1
 555 958 l 257,19,-1
 321 1043 l 257,16,-1
555 897 m 257,20,-1
 555 837 l 257,21,-1
 896 837 l 257,22,-1
 896 897 l 257,23,-1
 555 897 l 257,20,-1
854 897 m 257,24,-1
 854 265 l 257,25,-1
 915 265 l 257,26,-1
 915 897 l 257,27,-1
 854 897 l 257,24,-1
854 324 m 257,28,-1
 854 264 l 257,29,-1
 1024 264 l 257,30,-1
 1024 324 l 257,31,-1
 854 324 l 257,28,-1
EndSplineSet
EndChar

StartChar: uni090C
Encoding: 2316 2316 437
GlifName: uni090C_
Width: 1024
VWidth: 0
GlyphClass: 2
Flags: W
AnchorPoint: "abvm_deva" 618 1588 basechar 0
LayerCount: 2
Fore
SplineSet
-7 1550 m 257,0,-1
 -7 1488 l 257,1,-1
 1032 1488 l 257,2,-1
 1032 1550 l 257,3,-1
 -7 1550 l 257,0,-1
706 1550 m 257,4,-1
 706 759 l 257,5,-1
 766 759 l 257,6,-1
 766 1550 l 257,7,-1
 706 1550 l 257,4,-1
964 791 m 257,8,-1
 48 791 l 257,9,-1
 48 731 l 257,10,-1
 964 731 l 257,11,-1
 964 791 l 257,8,-1
50 777 m 257,12,-1
 50 252 l 257,13,-1
 110 252 l 257,14,-1
 110 777 l 257,15,-1
 50 777 l 257,12,-1
472 791 m 257,16,-1
 472 433 l 257,17,-1
 532 433 l 257,18,-1
 532 791 l 257,19,-1
 472 791 l 257,16,-1
894 792 m 257,20,-1
 894 73 l 257,21,-1
 954 73 l 257,22,-1
 954 792 l 257,23,-1
 894 792 l 257,20,-1
938 132 m 257,24,-1
 938 71 l 257,25,-1
 1030 71 l 257,26,-1
 1030 132 l 257,27,-1
 938 132 l 257,24,-1
EndSplineSet
EndChar

StartChar: uni090D
Encoding: 2317 2317 438
GlifName: uni090D_
Width: 1024
VWidth: 0
GlyphClass: 2
Flags: W
AnchorPoint: "abvm_deva" 1011 1644 basechar 0
LayerCount: 2
Fore
SplineSet
-5 1550 m 257,0,-1
 -5 1488 l 257,1,-1
 1030 1488 l 257,2,-1
 1030 1550 l 257,3,-1
 -5 1550 l 257,0,-1
868 1545 m 257,4,-1
 868 779 l 257,5,-1
 928 779 l 257,6,-1
 928 1545 l 257,7,-1
 868 1545 l 257,4,-1
634 839 m 257,8,-1
 634 779 l 257,9,-1
 928 779 l 257,10,-1
 928 839 l 257,11,-1
 634 839 l 257,8,-1
142 1542 m 257,12,-1
 142 338 l 257,13,-1
 202 338 l 257,14,-1
 202 1542 l 257,15,-1
 142 1542 l 257,12,-1
142 358 m 257,16,-1
 142 297 l 257,17,-1
 742 297 l 257,18,-1
 742 358 l 257,19,-1
 142 358 l 257,16,-1
688 358 m 257,20,-1
 688 -98 l 257,21,-1
 748 -98 l 257,22,-1
 748 358 l 257,23,-1
 688 358 l 257,20,-1
386 -38 m 257,24,-1
 386 -98 l 257,25,-1
 746 -98 l 257,26,-1
 746 -38 l 257,27,-1
 386 -38 l 257,24,-1
156 2124 m 257,28,-1
 156 1639 l 257,29,-1
 216 1639 l 257,30,-1
 216 2124 l 257,31,-1
 156 2124 l 257,28,-1
202 1702 m 257,32,-1
 202 1641 l 257,33,-1
 796 1641 l 257,34,-1
 796 1702 l 257,35,-1
 202 1702 l 257,32,-1
760 2132 m 257,36,-1
 760 1641 l 257,37,-1
 820 1641 l 257,38,-1
 820 2132 l 257,39,-1
 760 2132 l 257,36,-1
EndSplineSet
EndChar

StartChar: uni090E
Encoding: 2318 2318 439
GlifName: uni090E_
Width: 1024
VWidth: 0
GlyphClass: 2
Flags: W
AnchorPoint: "abvm_deva" 1049 1622 basechar 0
LayerCount: 2
Fore
SplineSet
-5 1550 m 257,0,-1
 -5 1488 l 257,1,-1
 1030 1488 l 257,2,-1
 1030 1550 l 257,3,-1
 -5 1550 l 257,0,-1
868 1545 m 257,4,-1
 868 779 l 257,5,-1
 928 779 l 257,6,-1
 928 1545 l 257,7,-1
 868 1545 l 257,4,-1
634 839 m 257,8,-1
 634 779 l 257,9,-1
 928 779 l 257,10,-1
 928 839 l 257,11,-1
 634 839 l 257,8,-1
142 1542 m 257,12,-1
 142 338 l 257,13,-1
 202 338 l 257,14,-1
 202 1542 l 257,15,-1
 142 1542 l 257,12,-1
142 358 m 257,16,-1
 142 297 l 257,17,-1
 742 297 l 257,18,-1
 742 358 l 257,19,-1
 142 358 l 257,16,-1
688 358 m 257,20,-1
 688 -98 l 257,21,-1
 748 -98 l 257,22,-1
 748 358 l 257,23,-1
 688 358 l 257,20,-1
386 -38 m 257,24,-1
 386 -98 l 257,25,-1
 746 -98 l 257,26,-1
 746 -38 l 257,27,-1
 386 -38 l 257,24,-1
270 2062 m 257,28,-1
 270 1823 l 257,29,-1
 330 1823 l 257,30,-1
 330 2062 l 257,31,-1
 270 2062 l 257,28,-1
268 1866 m 257,32,-1
 268 1809 l 257,33,-1
 952 1809 l 257,34,-1
 952 1866 l 257,35,-1
 268 1866 l 257,32,-1
894 1858 m 257,36,-1
 894 1540 l 257,37,-1
 954 1540 l 257,38,-1
 954 1858 l 257,39,-1
 894 1858 l 257,36,-1
EndSplineSet
EndChar

StartChar: uni090F
Encoding: 2319 2319 440
GlifName: uni090F_
Width: 1024
VWidth: 0
GlyphClass: 2
Flags: W
AnchorPoint: "abvm_deva" 522 1630 basechar 0
LayerCount: 2
Fore
SplineSet
-5 1550 m 257,0,-1
 -5 1488 l 257,1,-1
 1030 1488 l 257,2,-1
 1030 1550 l 257,3,-1
 -5 1550 l 257,0,-1
868 1545 m 257,4,-1
 868 779 l 257,5,-1
 928 779 l 257,6,-1
 928 1545 l 257,7,-1
 868 1545 l 257,4,-1
634 839 m 257,8,-1
 634 779 l 257,9,-1
 928 779 l 257,10,-1
 928 839 l 257,11,-1
 634 839 l 257,8,-1
142 1542 m 257,12,-1
 142 338 l 257,13,-1
 202 338 l 257,14,-1
 202 1542 l 257,15,-1
 142 1542 l 257,12,-1
142 358 m 257,16,-1
 142 297 l 257,17,-1
 742 297 l 257,18,-1
 742 358 l 257,19,-1
 142 358 l 257,16,-1
688 358 m 257,20,-1
 688 -98 l 257,21,-1
 748 -98 l 257,22,-1
 748 358 l 257,23,-1
 688 358 l 257,20,-1
386 -38 m 257,24,-1
 386 -98 l 257,25,-1
 746 -98 l 257,26,-1
 746 -38 l 257,27,-1
 386 -38 l 257,24,-1
EndSplineSet
EndChar

StartChar: uni0910
Encoding: 2320 2320 441
GlifName: uni0910
Width: 1024
VWidth: 0
GlyphClass: 2
Flags: W
AnchorPoint: "abvm_deva" 936 1702 basechar 0
LayerCount: 2
Fore
SplineSet
-5 1549 m 257,0,-1
 -5 1489 l 257,1,-1
 1030 1489 l 257,2,-1
 1030 1549 l 257,3,-1
 -5 1549 l 257,0,-1
866 1545 m 257,4,-1
 866 779 l 257,5,-1
 928 779 l 257,6,-1
 928 1545 l 257,7,-1
 866 1545 l 257,4,-1
634 840 m 257,8,-1
 634 779 l 257,9,-1
 928 779 l 257,10,-1
 928 840 l 257,11,-1
 634 840 l 257,8,-1
142 1542 m 257,12,-1
 142 338 l 257,13,-1
 202 338 l 257,14,-1
 202 1542 l 257,15,-1
 142 1542 l 257,12,-1
142 359 m 257,16,-1
 142 297 l 257,17,-1
 742 297 l 257,18,-1
 742 359 l 257,19,-1
 142 359 l 257,16,-1
702 358 m 257,20,-1
 702 -98 l 257,21,-1
 760 -98 l 257,22,-1
 760 358 l 257,23,-1
 702 358 l 257,20,-1
386 -37 m 257,24,-1
 386 -98 l 257,25,-1
 746 -98 l 257,26,-1
 746 -37 l 257,27,-1
 386 -37 l 257,24,-1
556 1962 m 257,28,-1
 854 1550 l 257,29,-1
 926 1550 l 257,30,-1
 610 1998 l 257,31,-1
 556 1962 l 257,28,-1
EndSplineSet
EndChar

StartChar: uni0911
Encoding: 2321 2321 442
GlifName: uni0911
Width: 1024
VWidth: 0
GlyphClass: 2
Flags: W
AnchorPoint: "abvm_deva" 774 2170 basechar 0
LayerCount: 2
Fore
SplineSet
536 1548 m 257,0,-1
 536 1488 l 257,1,-1
 1024 1488 l 257,2,-1
 1024 1548 l 257,3,-1
 536 1548 l 257,0,-1
544 1506 m 257,4,-1
 544 0 l 257,5,-1
 606 0 l 257,6,-1
 606 1506 l 257,7,-1
 544 1506 l 257,4,-1
26 1550 m 257,8,-1
 26 1488 l 257,9,-1
 386 1488 l 257,10,-1
 386 1550 l 257,11,-1
 26 1550 l 257,8,-1
352 1550 m 257,12,-1
 352 30 l 257,13,-1
 412 30 l 257,14,-1
 412 1550 l 257,15,-1
 352 1550 l 257,12,-1
110 894 m 257,16,-1
 110 834 l 257,17,-1
 582 834 l 257,18,-1
 582 894 l 257,19,-1
 110 894 l 257,16,-1
0 61 m 257,20,-1
 0 0 l 257,21,-1
 412 0 l 257,22,-1
 412 61 l 257,23,-1
 0 61 l 257,20,-1
812 1504 m 257,24,-1
 812 0 l 257,25,-1
 872 0 l 257,26,-1
 872 1504 l 257,27,-1
 812 1504 l 257,24,-1
526 2085 m 257,28,-1
 526 1639 l 257,29,-1
 588 1639 l 257,30,-1
 588 2085 l 257,31,-1
 526 2085 l 257,28,-1
532 1701 m 257,32,-1
 532 1641 l 257,33,-1
 1024 1641 l 257,34,-1
 1024 1701 l 257,35,-1
 532 1701 l 257,32,-1
952 2083 m 257,36,-1
 952 1641 l 257,37,-1
 1024 1641 l 257,38,-1
 1024 2083 l 257,39,-1
 952 2083 l 257,36,-1
EndSplineSet
EndChar

StartChar: uni0912
Encoding: 2322 2322 443
GlifName: uni0912
Width: 1024
VWidth: 0
GlyphClass: 2
Flags: W
AnchorPoint: "abvm_deva" 1029 1599 basechar 0
LayerCount: 2
Fore
SplineSet
507 1553 m 257,0,-1
 507 1494 l 257,1,-1
 1008 1494 l 257,2,-1
 1008 1553 l 257,3,-1
 507 1553 l 257,0,-1
708 1518 m 257,4,-1
 708 0 l 257,5,-1
 769 0 l 257,6,-1
 769 1518 l 257,7,-1
 708 1518 l 257,4,-1
41 1550 m 257,8,-1
 41 1487 l 257,9,-1
 364 1487 l 257,10,-1
 364 1550 l 257,11,-1
 41 1550 l 257,8,-1
331 1550 m 257,12,-1
 331 34 l 257,13,-1
 390 34 l 257,14,-1
 390 1550 l 257,15,-1
 331 1550 l 257,12,-1
125 894 m 257,16,-1
 125 835 l 257,17,-1
 733 835 l 257,18,-1
 733 894 l 257,19,-1
 125 894 l 257,16,-1
16 65 m 257,20,-1
 16 0 l 257,21,-1
 390 0 l 257,22,-1
 390 65 l 257,23,-1
 16 65 l 257,20,-1
891 1518 m 257,24,-1
 891 0 l 257,25,-1
 952 0 l 257,26,-1
 952 1518 l 257,27,-1
 891 1518 l 257,24,-1
257 2062 m 257,28,-1
 257 1823 l 257,29,-1
 318 1823 l 257,30,-1
 318 2062 l 257,31,-1
 257 2062 l 257,28,-1
256 1866 m 257,32,-1
 256 1809 l 257,33,-1
 939 1809 l 257,34,-1
 939 1866 l 257,35,-1
 256 1866 l 257,32,-1
879 1863 m 257,36,-1
 879 1545 l 257,37,-1
 939 1545 l 257,38,-1
 939 1863 l 257,39,-1
 879 1863 l 257,36,-1
EndSplineSet
EndChar

StartChar: uni0913
Encoding: 2323 2323 444
GlifName: uni0913
Width: 1024
VWidth: 0
GlyphClass: 2
Flags: W
AnchorPoint: "abvm_deva" 1032 1582 basechar 0
LayerCount: 2
Fore
SplineSet
523 1549 m 257,0,-1
 523 1489 l 257,1,-1
 1024 1489 l 257,2,-1
 1024 1549 l 257,3,-1
 523 1549 l 257,0,-1
708 1518 m 257,4,-1
 708 0 l 257,5,-1
 769 0 l 257,6,-1
 769 1518 l 257,7,-1
 708 1518 l 257,4,-1
41 1550 m 257,8,-1
 41 1487 l 257,9,-1
 364 1487 l 257,10,-1
 364 1550 l 257,11,-1
 41 1550 l 257,8,-1
331 1550 m 257,12,-1
 331 34 l 257,13,-1
 390 34 l 257,14,-1
 390 1550 l 257,15,-1
 331 1550 l 257,12,-1
125 894 m 257,16,-1
 125 835 l 257,17,-1
 733 835 l 257,18,-1
 733 894 l 257,19,-1
 125 894 l 257,16,-1
16 65 m 257,20,-1
 16 0 l 257,21,-1
 390 0 l 257,22,-1
 390 65 l 257,23,-1
 16 65 l 257,20,-1
891 1518 m 257,24,-1
 891 0 l 257,25,-1
 952 0 l 257,26,-1
 952 1518 l 257,27,-1
 891 1518 l 257,24,-1
689 1807 m 257,28,-1
 770 1529 l 257,29,-1
 846 1550 l 257,30,-1
 762 1826 l 257,31,-1
 689 1807 l 257,28,-1
EndSplineSet
EndChar

StartChar: uni0914
Encoding: 2324 2324 445
GlifName: uni0914
Width: 1024
VWidth: 0
GlyphClass: 2
Flags: W
AnchorPoint: "abvm_deva" 1050 1564 basechar 0
LayerCount: 2
Fore
SplineSet
507 1553 m 257,0,-1
 507 1494 l 257,1,-1
 1008 1494 l 257,2,-1
 1008 1553 l 257,3,-1
 507 1553 l 257,0,-1
708 1518 m 257,4,-1
 708 0 l 257,5,-1
 769 0 l 257,6,-1
 769 1518 l 257,7,-1
 708 1518 l 257,4,-1
41 1550 m 257,8,-1
 41 1487 l 257,9,-1
 364 1487 l 257,10,-1
 364 1550 l 257,11,-1
 41 1550 l 257,8,-1
331 1550 m 257,12,-1
 331 34 l 257,13,-1
 390 34 l 257,14,-1
 390 1550 l 257,15,-1
 331 1550 l 257,12,-1
125 894 m 257,16,-1
 125 835 l 257,17,-1
 733 835 l 257,18,-1
 733 894 l 257,19,-1
 125 894 l 257,16,-1
16 65 m 257,20,-1
 16 0 l 257,21,-1
 390 0 l 257,22,-1
 390 65 l 257,23,-1
 16 65 l 257,20,-1
891 1518 m 257,24,-1
 891 0 l 257,25,-1
 952 0 l 257,26,-1
 952 1518 l 257,27,-1
 891 1518 l 257,24,-1
326 1767 m 257,28,-1
 704 1525 l 257,29,-1
 768 1540 l 257,30,-1
 367 1816 l 257,31,-1
 326 1767 l 257,28,-1
575 1905 m 257,32,-1
 778 1550 l 257,33,-1
 859 1550 l 257,34,-1
 628 1937 l 257,35,-1
 575 1905 l 257,32,-1
EndSplineSet
EndChar

StartChar: uni0915
Encoding: 2325 2325 446
GlifName: uni0915
Width: 1024
VWidth: 0
GlyphClass: 2
Flags: W
AnchorPoint: "abvm_deva" 636 1582 basechar 0
AnchorPoint: "blwm_deva" 615 -50 basechar 0
LayerCount: 2
Fore
SplineSet
0 1553 m 257,0,-1
 0 1492 l 257,1,-1
 1024 1492 l 257,2,-1
 1024 1553 l 257,3,-1
 0 1553 l 257,0,-1
598 1509 m 257,4,-1
 598 0 l 257,5,-1
 658 0 l 257,6,-1
 658 1509 l 257,7,-1
 598 1509 l 257,4,-1
181 1069 m 257,8,-1
 181 1008 l 257,9,-1
 540 1008 l 257,10,-1
 540 1069 l 257,11,-1
 181 1069 l 257,8,-1
170 1068 m 257,12,-1
 170 510 l 257,13,-1
 230 510 l 257,14,-1
 230 1068 l 257,15,-1
 170 1068 l 257,12,-1
185 572 m 257,16,-1
 185 511 l 257,17,-1
 645 511 l 257,18,-1
 645 572 l 257,19,-1
 185 572 l 257,16,-1
623 999 m 257,20,-1
 623 938 l 257,21,-1
 888 938 l 257,22,-1
 888 999 l 257,23,-1
 623 999 l 257,20,-1
838 1000 m 257,24,-1
 838 779 l 257,25,-1
 900 779 l 257,26,-1
 900 1000 l 257,27,-1
 838 1000 l 257,24,-1
EndSplineSet
EndChar

StartChar: uni0915_uni0930_uni094D.vatu
Encoding: 65536 -1 447
GlifName: uni0915_uni0930_uni094D_.vatu
Width: 1024
VWidth: 0
GlyphClass: 3
Flags: W
LayerCount: 2
Fore
SplineSet
0 1553 m 257,0,-1
 0 1492 l 257,1,-1
 1024 1492 l 257,2,-1
 1024 1553 l 257,3,-1
 0 1553 l 257,0,-1
598 1509 m 257,4,-1
 598 0 l 257,5,-1
 658 0 l 257,6,-1
 658 1509 l 257,7,-1
 598 1509 l 257,4,-1
181 1069 m 257,8,-1
 181 1008 l 257,9,-1
 525 1008 l 257,10,-1
 525 1069 l 257,11,-1
 181 1069 l 257,8,-1
170 1068 m 257,12,-1
 170 510 l 257,13,-1
 230 510 l 257,14,-1
 230 1068 l 257,15,-1
 170 1068 l 257,12,-1
185 572 m 257,16,-1
 185 511 l 257,17,-1
 645 511 l 257,18,-1
 645 572 l 257,19,-1
 185 572 l 257,16,-1
623 999 m 257,20,-1
 623 938 l 257,21,-1
 888 938 l 257,22,-1
 888 999 l 257,23,-1
 623 999 l 257,20,-1
838 1000 m 257,24,-1
 838 779 l 257,25,-1
 900 779 l 257,26,-1
 900 1000 l 257,27,-1
 838 1000 l 257,24,-1
57 0 m 257,28,-1
 177 0 l 257,29,-1
 654 215 l 257,30,-1
 654 285 l 257,31,-1
 57 0 l 257,28,-1
EndSplineSet
Ligature2: "rkrfRakarVariantsinDevanagari2lookup0 subtable" uni0915 uni094D uni0930
EndChar

StartChar: uni0915_uni094D.half
Encoding: 65537 -1 448
GlifName: uni0915_uni094D_.half
Width: 1024
VWidth: 0
GlyphClass: 2
Flags: W
LayerCount: 2
Fore
SplineSet
0 1553 m 257,0,-1
 0 1492 l 257,1,-1
 1024 1492 l 257,2,-1
 1024 1553 l 257,3,-1
 0 1553 l 257,0,-1
598 1509 m 257,4,-1
 598 0 l 257,5,-1
 658 0 l 257,6,-1
 658 1509 l 257,7,-1
 598 1509 l 257,4,-1
181 1069 m 257,8,-1
 181 1008 l 257,9,-1
 535 1008 l 257,10,-1
 535 1069 l 257,11,-1
 181 1069 l 257,8,-1
170 1068 m 257,12,-1
 170 510 l 257,13,-1
 230 510 l 257,14,-1
 230 1068 l 257,15,-1
 170 1068 l 257,12,-1
185 572 m 257,16,-1
 185 511 l 257,17,-1
 645 511 l 257,18,-1
 645 572 l 257,19,-1
 185 572 l 257,16,-1
623 999 m 257,20,-1
 623 938 l 257,21,-1
 1031 938 l 257,22,-1
 1031 999 l 257,23,-1
 623 999 l 257,20,-1
EndSplineSet
Ligature2: "halfHalfFormsinDevanagari2lookup0 subtable" uni0915 uni094D
EndChar

StartChar: uni0915_uni094D.haln
Encoding: 65538 -1 449
GlifName: uni0915_uni094D_.haln
Width: 1024
VWidth: 0
GlyphClass: 3
Flags: W
LayerCount: 2
Fore
SplineSet
0 1553 m 257,0,-1
 0 1492 l 257,1,-1
 1024 1492 l 257,2,-1
 1024 1553 l 257,3,-1
 0 1553 l 257,0,-1
598 1509 m 257,4,-1
 598 0 l 257,5,-1
 658 0 l 257,6,-1
 658 1509 l 257,7,-1
 598 1509 l 257,4,-1
181 1069 m 257,8,-1
 181 1008 l 257,9,-1
 540 1008 l 257,10,-1
 540 1069 l 257,11,-1
 181 1069 l 257,8,-1
170 1068 m 257,12,-1
 170 510 l 257,13,-1
 230 510 l 257,14,-1
 230 1068 l 257,15,-1
 170 1068 l 257,12,-1
185 572 m 257,16,-1
 185 511 l 257,17,-1
 645 511 l 257,18,-1
 645 572 l 257,19,-1
 185 572 l 257,16,-1
623 999 m 257,20,-1
 623 938 l 257,21,-1
 888 938 l 257,22,-1
 888 999 l 257,23,-1
 623 999 l 257,20,-1
838 1000 m 257,24,-1
 838 779 l 257,25,-1
 900 779 l 257,26,-1
 900 1000 l 257,27,-1
 838 1000 l 257,24,-1
623 -16 m 257,28,-1
 623 -77 l 257,29,-1
 967 -77 l 257,30,-1
 967 -16 l 257,31,-1
 623 -16 l 257,28,-1
938 -71 m 257,32,-1
 1248 -418 l 257,33,-1
 1278 -366 l 257,34,-1
 967 -15 l 257,35,-1
 938 -71 l 257,32,-1
EndSplineSet
Ligature2: "halnHalantFormsinDevanagari2lookup0 subtable" uni0915 uni094D
EndChar

StartChar: uni0915_uni094D_uni0937.akhn
Encoding: 65539 -1 450
GlifName: uni0915_uni094D__uni0937.akhn
Width: 1024
VWidth: 0
GlyphClass: 3
Flags: W
LayerCount: 2
Fore
SplineSet
665 1550 m 257,0,-1
 665 1491 l 257,1,-1
 1024 1491 l 257,2,-1
 1024 1550 l 257,3,-1
 665 1550 l 257,0,-1
862 1511 m 257,4,-1
 862 0 l 257,5,-1
 921 0 l 257,6,-1
 921 1511 l 257,7,-1
 862 1511 l 257,4,-1
126 1078 m 257,8,-1
 126 1018 l 257,9,-1
 921 1018 l 257,10,-1
 921 1078 l 257,11,-1
 126 1078 l 257,8,-1
126 1023 m 257,12,-1
 186 1023 l 257,13,-1
 186 1422 l 257,14,-1
 126 1422 l 257,15,-1
 126 1023 l 257,12,-1
127 1435 m 257,16,-1
 127 1374 l 257,17,-1
 567 1374 l 257,18,-1
 567 1435 l 257,19,-1
 127 1435 l 257,16,-1
506 1422 m 257,20,-1
 506 1030 l 257,21,-1
 566 1030 l 257,22,-1
 566 1422 l 257,23,-1
 506 1422 l 257,20,-1
158 647 m 257,24,-1
 218 647 l 257,25,-1
 565 1028 l 257,26,-1
 507 1028 l 257,27,-1
 158 647 l 257,24,-1
158 647 m 257,28,-1
 158 200 l 257,29,-1
 218 200 l 257,30,-1
 218 647 l 257,31,-1
 158 647 l 257,28,-1
158 226 m 257,32,-1
 158 166 l 257,33,-1
 882 166 l 257,34,-1
 882 226 l 257,35,-1
 158 226 l 257,32,-1
EndSplineSet
Ligature2: "akhnAkhandinDevanagari2lookup0 subtable" uni0915 uni094D uni0937
EndChar

StartChar: uni0915_uni094D_uni0937.half
Encoding: 65540 -1 451
GlifName: uni0915_uni094D__uni0937.half
Width: 1024
VWidth: 0
GlyphClass: 3
Flags: W
LayerCount: 2
Fore
SplineSet
665 1550 m 257,0,-1
 665 1491 l 257,1,-1
 1024 1491 l 257,2,-1
 1024 1550 l 257,3,-1
 665 1550 l 257,0,-1
126 1078 m 257,4,-1
 126 1018 l 257,5,-1
 1021 1018 l 257,6,-1
 1021 1078 l 257,7,-1
 126 1078 l 257,4,-1
126 1023 m 257,8,-1
 186 1023 l 257,9,-1
 186 1422 l 257,10,-1
 126 1422 l 257,11,-1
 126 1023 l 257,8,-1
127 1435 m 257,12,-1
 127 1374 l 257,13,-1
 567 1374 l 257,14,-1
 567 1435 l 257,15,-1
 127 1435 l 257,12,-1
506 1422 m 257,16,-1
 506 1030 l 257,17,-1
 566 1030 l 257,18,-1
 566 1422 l 257,19,-1
 506 1422 l 257,16,-1
158 647 m 257,20,-1
 218 647 l 257,21,-1
 565 1028 l 257,22,-1
 507 1028 l 257,23,-1
 158 647 l 257,20,-1
158 647 m 257,24,-1
 158 200 l 257,25,-1
 218 200 l 257,26,-1
 218 647 l 257,27,-1
 158 647 l 257,24,-1
158 226 m 257,28,-1
 158 166 l 257,29,-1
 982 166 l 257,30,-1
 982 226 l 257,31,-1
 158 226 l 257,28,-1
EndSplineSet
Ligature2: "halfHalfFormsinDevanagari2lookup0 subtable" uni0915_uni094D_uni0937.akhn uni094D
EndChar

StartChar: uni0915_uni094D_uni0937_uni094D
Encoding: 65541 -1 452
GlifName: uni0915_uni094D__uni0937_uni094D_
Width: 1024
VWidth: 0
GlyphClass: 2
Flags: W
LayerCount: 2
Fore
SplineSet
665 1550 m 257,0,-1
 665 1491 l 257,1,-1
 1024 1491 l 257,2,-1
 1024 1550 l 257,3,-1
 665 1550 l 257,0,-1
862 1511 m 257,4,-1
 862 0 l 257,5,-1
 921 0 l 257,6,-1
 921 1511 l 257,7,-1
 862 1511 l 257,4,-1
126 1078 m 257,8,-1
 126 1018 l 257,9,-1
 921 1018 l 257,10,-1
 921 1078 l 257,11,-1
 126 1078 l 257,8,-1
126 1023 m 257,12,-1
 186 1023 l 257,13,-1
 186 1422 l 257,14,-1
 126 1422 l 257,15,-1
 126 1023 l 257,12,-1
127 1435 m 257,16,-1
 127 1374 l 257,17,-1
 567 1374 l 257,18,-1
 567 1435 l 257,19,-1
 127 1435 l 257,16,-1
506 1422 m 257,20,-1
 506 1030 l 257,21,-1
 566 1030 l 257,22,-1
 566 1422 l 257,23,-1
 506 1422 l 257,20,-1
158 647 m 257,24,-1
 218 647 l 257,25,-1
 565 1028 l 257,26,-1
 507 1028 l 257,27,-1
 158 647 l 257,24,-1
158 647 m 257,28,-1
 158 200 l 257,29,-1
 218 200 l 257,30,-1
 218 647 l 257,31,-1
 158 647 l 257,28,-1
158 226 m 257,32,-1
 158 166 l 257,33,-1
 882 166 l 257,34,-1
 882 226 l 257,35,-1
 158 226 l 257,32,-1
776 -16 m 257,36,-1
 776 -77 l 257,37,-1
 1120 -77 l 257,38,-1
 1120 -16 l 257,39,-1
 776 -16 l 257,36,-1
1091 -71 m 257,40,-1
 1401 -418 l 257,41,-1
 1431 -366 l 257,42,-1
 1120 -15 l 257,43,-1
 1091 -71 l 257,40,-1
EndSplineSet
Ligature2: "halnHalantFormsinDevanagari2lookup0 subtable" uni0915_uni094D_uni0937.akhn uni094D
EndChar

StartChar: uni0916
Encoding: 2326 2326 453
GlifName: uni0916
Width: 1024
VWidth: 0
GlyphClass: 2
Flags: W
AnchorPoint: "abvm_deva" 855 1621 basechar 0
AnchorPoint: "blwm_deva" 877 -46 basechar 0
LayerCount: 2
Fore
SplineSet
0 1553 m 257,0,-1
 0 1496 l 257,1,-1
 1026 1496 l 257,2,-1
 1026 1553 l 257,3,-1
 0 1553 l 257,0,-1
832 1514 m 257,4,-1
 832 0 l 257,5,-1
 894 0 l 257,6,-1
 894 1514 l 257,7,-1
 832 1514 l 257,4,-1
414 979 m 257,8,-1
 414 919 l 257,9,-1
 676 919 l 257,10,-1
 676 979 l 257,11,-1
 414 979 l 257,8,-1
384 979 m 257,12,-1
 384 414 l 257,13,-1
 444 414 l 257,14,-1
 444 979 l 257,15,-1
 384 979 l 257,12,-1
384 429 m 257,16,-1
 384 368 l 257,17,-1
 848 368 l 257,18,-1
 848 429 l 257,19,-1
 384 429 l 257,16,-1
186 1510 m 257,20,-1
 186 120 l 257,21,-1
 248 120 l 257,22,-1
 248 1510 l 257,23,-1
 186 1510 l 257,20,-1
16 714 m 257,24,-1
 16 654 l 257,25,-1
 246 654 l 257,26,-1
 246 714 l 257,27,-1
 16 714 l 257,24,-1
186 130 m 257,28,-1
 186 70 l 257,29,-1
 830 70 l 257,30,-1
 830 130 l 257,31,-1
 186 130 l 257,28,-1
EndSplineSet
EndChar

StartChar: uni0916_uni0930_uni094D.vatu
Encoding: 65542 -1 454
GlifName: uni0916_uni0930_uni094D_.vatu
Width: 1024
VWidth: 0
GlyphClass: 3
Flags: W
LayerCount: 2
Fore
SplineSet
239 0 m 257,0,-1
 359 0 l 257,1,-1
 836 215 l 257,2,-1
 836 285 l 257,3,-1
 239 0 l 257,0,-1
0 1553 m 257,4,-1
 0 1496 l 257,5,-1
 1026 1496 l 257,6,-1
 1026 1553 l 257,7,-1
 0 1553 l 257,4,-1
832 1514 m 257,8,-1
 832 0 l 257,9,-1
 894 0 l 257,10,-1
 894 1514 l 257,11,-1
 832 1514 l 257,8,-1
414 1279 m 257,12,-1
 414 1219 l 257,13,-1
 676 1219 l 257,14,-1
 676 1279 l 257,15,-1
 414 1279 l 257,12,-1
384 1279 m 257,16,-1
 384 714 l 257,17,-1
 444 714 l 257,18,-1
 444 1279 l 257,19,-1
 384 1279 l 257,16,-1
384 729 m 257,20,-1
 384 668 l 257,21,-1
 848 668 l 257,22,-1
 848 729 l 257,23,-1
 384 729 l 257,20,-1
186 1510 m 257,24,-1
 186 420 l 257,25,-1
 248 420 l 257,26,-1
 248 1510 l 257,27,-1
 186 1510 l 257,24,-1
16 1014 m 257,28,-1
 16 954 l 257,29,-1
 246 954 l 257,30,-1
 246 1014 l 257,31,-1
 16 1014 l 257,28,-1
186 430 m 257,32,-1
 186 370 l 257,33,-1
 830 370 l 257,34,-1
 830 430 l 257,35,-1
 186 430 l 257,32,-1
EndSplineSet
Ligature2: "rkrfRakarVariantsinDevanagari2lookup0 subtable" uni0916 uni094D uni0930
EndChar

StartChar: uni0916_uni094D.half
Encoding: 65543 -1 455
GlifName: uni0916_uni094D_.half
Width: 1024
VWidth: 0
GlyphClass: 2
Flags: W
LayerCount: 2
Fore
SplineSet
0 1553 m 257,0,-1
 0 1496 l 257,1,-1
 1026 1496 l 257,2,-1
 1026 1553 l 257,3,-1
 0 1553 l 257,0,-1
414 979 m 257,4,-1
 414 919 l 257,5,-1
 851 919 l 257,6,-1
 851 979 l 257,7,-1
 414 979 l 257,4,-1
384 979 m 257,8,-1
 384 414 l 257,9,-1
 444 414 l 257,10,-1
 444 979 l 257,11,-1
 384 979 l 257,8,-1
384 429 m 257,12,-1
 384 368 l 257,13,-1
 1024 368 l 257,14,-1
 1024 429 l 257,15,-1
 384 429 l 257,12,-1
186 1510 m 257,16,-1
 186 120 l 257,17,-1
 248 120 l 257,18,-1
 248 1510 l 257,19,-1
 186 1510 l 257,16,-1
16 714 m 257,20,-1
 16 654 l 257,21,-1
 246 654 l 257,22,-1
 246 714 l 257,23,-1
 16 714 l 257,20,-1
186 130 m 257,24,-1
 186 70 l 257,25,-1
 1006 70 l 257,26,-1
 1006 130 l 257,27,-1
 186 130 l 257,24,-1
EndSplineSet
Ligature2: "halfHalfFormsinDevanagari2lookup0 subtable" uni0916 uni094D
EndChar

StartChar: uni0916_uni094D.haln
Encoding: 65544 -1 456
GlifName: uni0916_uni094D_.haln
Width: 1024
VWidth: 0
GlyphClass: 3
Flags: W
LayerCount: 2
Fore
SplineSet
0 1553 m 257,0,-1
 0 1496 l 257,1,-1
 1026 1496 l 257,2,-1
 1026 1553 l 257,3,-1
 0 1553 l 257,0,-1
832 1514 m 257,4,-1
 832 0 l 257,5,-1
 894 0 l 257,6,-1
 894 1514 l 257,7,-1
 832 1514 l 257,4,-1
414 979 m 257,8,-1
 414 919 l 257,9,-1
 676 919 l 257,10,-1
 676 979 l 257,11,-1
 414 979 l 257,8,-1
384 979 m 257,12,-1
 384 414 l 257,13,-1
 444 414 l 257,14,-1
 444 979 l 257,15,-1
 384 979 l 257,12,-1
384 429 m 257,16,-1
 384 368 l 257,17,-1
 848 368 l 257,18,-1
 848 429 l 257,19,-1
 384 429 l 257,16,-1
186 1510 m 257,20,-1
 186 120 l 257,21,-1
 248 120 l 257,22,-1
 248 1510 l 257,23,-1
 186 1510 l 257,20,-1
16 714 m 257,24,-1
 16 654 l 257,25,-1
 246 654 l 257,26,-1
 246 714 l 257,27,-1
 16 714 l 257,24,-1
186 130 m 257,28,-1
 186 70 l 257,29,-1
 830 70 l 257,30,-1
 830 130 l 257,31,-1
 186 130 l 257,28,-1
623 -16 m 257,32,-1
 623 -77 l 257,33,-1
 967 -77 l 257,34,-1
 967 -16 l 257,35,-1
 623 -16 l 257,32,-1
938 -71 m 257,36,-1
 1248 -418 l 257,37,-1
 1278 -366 l 257,38,-1
 967 -15 l 257,39,-1
 938 -71 l 257,36,-1
EndSplineSet
Ligature2: "halnHalantFormsinDevanagari2lookup0 subtable" uni0916 uni094D
EndChar

StartChar: uni0917
Encoding: 2327 2327 457
GlifName: uni0917
Width: 1024
VWidth: 0
GlyphClass: 2
Flags: W
AnchorPoint: "abvm_deva" 852 1554 basechar 0
AnchorPoint: "blwm_deva" 867 -64 basechar 0
LayerCount: 2
Fore
SplineSet
57 853 m 257,0,-1
 127 853 l 257,1,-1
 127 1044 l 257,2,-1
 57 1044 l 257,3,-1
 57 853 l 257,0,-1
57 882 m 257,4,-1
 57 812 l 257,5,-1
 404 812 l 257,6,-1
 404 882 l 257,7,-1
 57 882 l 257,4,-1
334 1553 m 257,8,-1
 334 812 l 257,9,-1
 404 812 l 257,10,-1
 404 1553 l 257,11,-1
 334 1553 l 257,8,-1
967 1553 m 257,12,-1
 216 1553 l 257,13,-1
 216 1496 l 257,14,-1
 967 1496 l 257,15,-1
 967 1553 l 257,12,-1
816 1523 m 257,16,-1
 816 0 l 257,17,-1
 886 0 l 257,18,-1
 886 1523 l 257,19,-1
 816 1523 l 257,16,-1
EndSplineSet
EndChar

StartChar: uni0917_uni0930_uni094D.vatu
Encoding: 65545 -1 458
GlifName: uni0917_uni0930_uni094D_.vatu
Width: 1024
VWidth: 0
GlyphClass: 3
Flags: W
LayerCount: 2
Fore
SplineSet
238 0 m 257,0,-1
 358 0 l 257,1,-1
 835 215 l 257,2,-1
 835 285 l 257,3,-1
 238 0 l 257,0,-1
57 853 m 257,4,-1
 127 853 l 257,5,-1
 127 1044 l 257,6,-1
 57 1044 l 257,7,-1
 57 853 l 257,4,-1
57 882 m 257,8,-1
 57 812 l 257,9,-1
 404 812 l 257,10,-1
 404 882 l 257,11,-1
 57 882 l 257,8,-1
334 1553 m 257,12,-1
 334 812 l 257,13,-1
 404 812 l 257,14,-1
 404 1553 l 257,15,-1
 334 1553 l 257,12,-1
967 1553 m 257,16,-1
 216 1553 l 257,17,-1
 216 1496 l 257,18,-1
 967 1496 l 257,19,-1
 967 1553 l 257,16,-1
816 1523 m 257,20,-1
 816 0 l 257,21,-1
 886 0 l 257,22,-1
 886 1523 l 257,23,-1
 816 1523 l 257,20,-1
EndSplineSet
Ligature2: "rkrfRakarVariantsinDevanagari2lookup0 subtable" uni0917 uni094D uni0930
EndChar

StartChar: uni0917_uni094D.half
Encoding: 65546 -1 459
GlifName: uni0917_uni094D_.half
Width: 1024
VWidth: 0
GlyphClass: 3
Flags: W
LayerCount: 2
Fore
SplineSet
57 853 m 257,0,-1
 127 853 l 257,1,-1
 127 1044 l 257,2,-1
 57 1044 l 257,3,-1
 57 853 l 257,0,-1
57 882 m 257,4,-1
 57 812 l 257,5,-1
 404 812 l 257,6,-1
 404 882 l 257,7,-1
 57 882 l 257,4,-1
334 1553 m 257,8,-1
 334 812 l 257,9,-1
 404 812 l 257,10,-1
 404 1553 l 257,11,-1
 334 1553 l 257,8,-1
967 1553 m 257,12,-1
 216 1553 l 257,13,-1
 216 1496 l 257,14,-1
 967 1496 l 257,15,-1
 967 1553 l 257,12,-1
EndSplineSet
Ligature2: "halfHalfFormsinDevanagari2lookup0 subtable" uni0917 uni094D
EndChar

StartChar: uni0917_uni094D.haln
Encoding: 65547 -1 460
GlifName: uni0917_uni094D_.haln
Width: 1024
VWidth: 0
GlyphClass: 3
Flags: W
LayerCount: 2
Fore
SplineSet
57 853 m 257,0,-1
 127 853 l 257,1,-1
 127 1044 l 257,2,-1
 57 1044 l 257,3,-1
 57 853 l 257,0,-1
57 882 m 257,4,-1
 57 812 l 257,5,-1
 404 812 l 257,6,-1
 404 882 l 257,7,-1
 57 882 l 257,4,-1
334 1553 m 257,8,-1
 334 812 l 257,9,-1
 404 812 l 257,10,-1
 404 1553 l 257,11,-1
 334 1553 l 257,8,-1
967 1553 m 257,12,-1
 216 1553 l 257,13,-1
 216 1496 l 257,14,-1
 967 1496 l 257,15,-1
 967 1553 l 257,12,-1
816 1523 m 257,16,-1
 816 0 l 257,17,-1
 886 0 l 257,18,-1
 886 1523 l 257,19,-1
 816 1523 l 257,16,-1
623 -16 m 257,20,-1
 623 -77 l 257,21,-1
 967 -77 l 257,22,-1
 967 -16 l 257,23,-1
 623 -16 l 257,20,-1
938 -71 m 257,24,-1
 1248 -418 l 257,25,-1
 1278 -366 l 257,26,-1
 967 -15 l 257,27,-1
 938 -71 l 257,24,-1
EndSplineSet
Ligature2: "halnHalantFormsinDevanagari2lookup0 subtable" uni0917 uni094D
EndChar

StartChar: uni0918
Encoding: 2328 2328 461
GlifName: uni0918
Width: 1024
VWidth: 0
GlyphClass: 2
Flags: W
AnchorPoint: "abvm_deva" 732 1618 basechar 0
AnchorPoint: "blwm_deva" 886 -27 basechar 0
LayerCount: 2
Fore
SplineSet
0 1553 m 257,0,-1
 0 1495 l 257,1,-1
 1022 1495 l 257,2,-1
 1022 1553 l 257,3,-1
 0 1553 l 257,0,-1
842 1522 m 257,4,-1
 842 13 l 257,5,-1
 902 13 l 257,6,-1
 902 1522 l 257,7,-1
 842 1522 l 257,4,-1
174 1515 m 257,8,-1
 174 859 l 257,9,-1
 232 859 l 257,10,-1
 232 1515 l 257,11,-1
 174 1515 l 257,8,-1
218 867 m 257,12,-1
 218 807 l 257,13,-1
 462 807 l 257,14,-1
 462 867 l 257,15,-1
 218 867 l 257,12,-1
180 328 m 257,16,-1
 180 269 l 257,17,-1
 878 269 l 257,18,-1
 878 328 l 257,19,-1
 180 328 l 257,16,-1
174 269 m 257,20,-1
 234 269 l 257,21,-1
 234 814 l 257,22,-1
 174 814 l 257,23,-1
 174 269 l 257,20,-1
EndSplineSet
EndChar

StartChar: uni0918_uni0930_uni094D.vatu
Encoding: 65548 -1 462
GlifName: uni0918_uni0930_uni094D_.vatu
Width: 1024
VWidth: 0
GlyphClass: 3
Flags: W
LayerCount: 2
Fore
SplineSet
261 0 m 257,0,-1
 381 0 l 257,1,-1
 858 215 l 257,2,-1
 858 285 l 257,3,-1
 261 0 l 257,0,-1
0 1553 m 257,4,-1
 0 1495 l 257,5,-1
 1022 1495 l 257,6,-1
 1022 1553 l 257,7,-1
 0 1553 l 257,4,-1
842 1522 m 257,8,-1
 842 13 l 257,9,-1
 902 13 l 257,10,-1
 902 1522 l 257,11,-1
 842 1522 l 257,8,-1
174 1515 m 257,12,-1
 174 859 l 257,13,-1
 232 859 l 257,14,-1
 232 1515 l 257,15,-1
 174 1515 l 257,12,-1
218 867 m 257,16,-1
 218 807 l 257,17,-1
 462 807 l 257,18,-1
 462 867 l 257,19,-1
 218 867 l 257,16,-1
180 328 m 257,20,-1
 180 269 l 257,21,-1
 878 269 l 257,22,-1
 878 328 l 257,23,-1
 180 328 l 257,20,-1
174 269 m 257,24,-1
 234 269 l 257,25,-1
 234 814 l 257,26,-1
 174 814 l 257,27,-1
 174 269 l 257,24,-1
EndSplineSet
Ligature2: "rkrfRakarVariantsinDevanagari2lookup0 subtable" uni0918 uni094D uni0930
EndChar

StartChar: uni0918_uni094D.half
Encoding: 65549 -1 463
GlifName: uni0918_uni094D_.half
Width: 1024
VWidth: 0
GlyphClass: 3
Flags: W
LayerCount: 2
Fore
SplineSet
0 1553 m 257,0,-1
 0 1495 l 257,1,-1
 1022 1495 l 257,2,-1
 1022 1553 l 257,3,-1
 0 1553 l 257,0,-1
174 1515 m 257,4,-1
 174 859 l 257,5,-1
 232 859 l 257,6,-1
 232 1515 l 257,7,-1
 174 1515 l 257,4,-1
218 867 m 257,8,-1
 218 807 l 257,9,-1
 462 807 l 257,10,-1
 462 867 l 257,11,-1
 218 867 l 257,8,-1
180 328 m 257,12,-1
 180 269 l 257,13,-1
 1078 269 l 257,14,-1
 1078 328 l 257,15,-1
 180 328 l 257,12,-1
174 269 m 257,16,-1
 234 269 l 257,17,-1
 234 814 l 257,18,-1
 174 814 l 257,19,-1
 174 269 l 257,16,-1
EndSplineSet
Ligature2: "halfHalfFormsinDevanagari2lookup0 subtable" uni0918 uni094D
EndChar

StartChar: uni0918_uni094D.haln
Encoding: 65550 -1 464
GlifName: uni0918_uni094D_.haln
Width: 1024
VWidth: 0
GlyphClass: 3
Flags: W
LayerCount: 2
Fore
SplineSet
0 1553 m 257,0,-1
 0 1495 l 257,1,-1
 1022 1495 l 257,2,-1
 1022 1553 l 257,3,-1
 0 1553 l 257,0,-1
842 1522 m 257,4,-1
 842 13 l 257,5,-1
 902 13 l 257,6,-1
 902 1522 l 257,7,-1
 842 1522 l 257,4,-1
174 1515 m 257,8,-1
 174 859 l 257,9,-1
 232 859 l 257,10,-1
 232 1515 l 257,11,-1
 174 1515 l 257,8,-1
218 867 m 257,12,-1
 218 807 l 257,13,-1
 462 807 l 257,14,-1
 462 867 l 257,15,-1
 218 867 l 257,12,-1
180 328 m 257,16,-1
 180 269 l 257,17,-1
 878 269 l 257,18,-1
 878 328 l 257,19,-1
 180 328 l 257,16,-1
174 269 m 257,20,-1
 234 269 l 257,21,-1
 234 814 l 257,22,-1
 174 814 l 257,23,-1
 174 269 l 257,20,-1
623 -16 m 257,24,-1
 623 -77 l 257,25,-1
 967 -77 l 257,26,-1
 967 -16 l 257,27,-1
 623 -16 l 257,24,-1
938 -71 m 257,28,-1
 1248 -418 l 257,29,-1
 1278 -366 l 257,30,-1
 967 -15 l 257,31,-1
 938 -71 l 257,28,-1
EndSplineSet
Ligature2: "halnHalantFormsinDevanagari2lookup0 subtable" uni0918 uni094D
EndChar

StartChar: uni0919
Encoding: 2329 2329 465
GlifName: uni0919
Width: 1024
VWidth: 0
GlyphClass: 2
Flags: W
AnchorPoint: "abvm_deva" 630 1582 basechar 0
AnchorPoint: "blwm_deva" 485 -145 basechar 0
LayerCount: 2
Fore
SplineSet
0 1553 m 257,0,-1
 0 1494 l 257,1,-1
 1025 1494 l 257,2,-1
 1025 1553 l 257,3,-1
 0 1553 l 257,0,-1
652 1543 m 257,4,-1
 652 1023 l 257,5,-1
 712 1023 l 257,6,-1
 712 1543 l 257,7,-1
 652 1543 l 257,4,-1
703 1086 m 257,8,-1
 240 1086 l 257,9,-1
 240 1023 l 257,10,-1
 703 1023 l 257,11,-1
 703 1086 l 257,8,-1
228 1083 m 257,12,-1
 228 629 l 257,13,-1
 300 629 l 257,14,-1
 300 1083 l 257,15,-1
 228 1083 l 257,12,-1
234 680 m 257,16,-1
 234 620 l 257,17,-1
 789 620 l 257,18,-1
 789 680 l 257,19,-1
 234 680 l 257,16,-1
726 680 m 257,20,-1
 726 29 l 257,21,-1
 789 29 l 257,22,-1
 789 680 l 257,23,-1
 726 680 l 257,20,-1
115 61 m 257,24,-1
 115 0 l 257,25,-1
 790 0 l 257,26,-1
 790 61 l 257,27,-1
 115 61 l 257,24,-1
115 202 m 257,28,-1
 115 8 l 257,29,-1
 175 8 l 257,30,-1
 175 202 l 257,31,-1
 115 202 l 257,28,-1
774 931 m 257,32,-1
 774 835 l 257,33,-1
 870 835 l 257,34,-1
 870 931 l 257,35,-1
 774 931 l 257,32,-1
EndSplineSet
EndChar

StartChar: uni0919_uni0930_uni094D.vatu
Encoding: 65551 -1 466
GlifName: uni0919_uni0930_uni094D_.vatu
Width: 1024
VWidth: 0
GlyphClass: 3
Flags: W
LayerCount: 2
Fore
SplineSet
394 220 m 257,0,-1
 577 -119 l 257,1,-1
 645 -119 l 257,2,-1
 438 287 l 257,3,-1
 394 220 l 257,0,-1
438 287 m 257,4,-1
 178 -106 l 257,5,-1
 246 -106 l 257,6,-1
 468 228 l 257,7,-1
 438 287 l 257,4,-1
0 1553 m 257,8,-1
 0 1494 l 257,9,-1
 1025 1494 l 257,10,-1
 1025 1553 l 257,11,-1
 0 1553 l 257,8,-1
652 1543 m 257,12,-1
 652 1326 l 257,13,-1
 712 1326 l 257,14,-1
 712 1543 l 257,15,-1
 652 1543 l 257,12,-1
703 1386 m 257,16,-1
 240 1386 l 257,17,-1
 240 1326 l 257,18,-1
 703 1326 l 257,19,-1
 703 1386 l 257,16,-1
228 1383 m 257,20,-1
 228 929 l 257,21,-1
 300 929 l 257,22,-1
 300 1383 l 257,23,-1
 228 1383 l 257,20,-1
234 980 m 257,24,-1
 234 920 l 257,25,-1
 789 920 l 257,26,-1
 789 980 l 257,27,-1
 234 980 l 257,24,-1
726 980 m 257,28,-1
 726 329 l 257,29,-1
 789 329 l 257,30,-1
 789 980 l 257,31,-1
 726 980 l 257,28,-1
115 361 m 257,32,-1
 115 300 l 257,33,-1
 790 300 l 257,34,-1
 790 361 l 257,35,-1
 115 361 l 257,32,-1
115 502 m 257,36,-1
 115 308 l 257,37,-1
 175 308 l 257,38,-1
 175 502 l 257,39,-1
 115 502 l 257,36,-1
774 1231 m 257,40,-1
 774 1135 l 257,41,-1
 870 1135 l 257,42,-1
 870 1231 l 257,43,-1
 774 1231 l 257,40,-1
EndSplineSet
Ligature2: "rkrfRakarVariantsinDevanagari2lookup0 subtable" uni0919 uni094D uni0930
EndChar

StartChar: uni0919_uni094D.half
Encoding: 65552 -1 467
GlifName: uni0919_uni094D_.half
Width: 1024
VWidth: 0
GlyphClass: 3
Flags: W
LayerCount: 2
Fore
SplineSet
0 1550 m 257,0,-1
 0 1491 l 257,1,-1
 1022 1491 l 257,2,-1
 1022 1550 l 257,3,-1
 0 1550 l 257,0,-1
649 1543 m 257,4,-1
 649 1023 l 257,5,-1
 709 1023 l 257,6,-1
 709 1543 l 257,7,-1
 649 1543 l 257,4,-1
700 1083 m 257,8,-1
 226 1083 l 257,9,-1
 226 1023 l 257,10,-1
 700 1023 l 257,11,-1
 700 1083 l 257,8,-1
225 1083 m 257,12,-1
 225 629 l 257,13,-1
 292 629 l 257,14,-1
 292 1083 l 257,15,-1
 225 1083 l 257,12,-1
225 690 m 257,16,-1
 225 620 l 257,17,-1
 786 620 l 257,18,-1
 786 690 l 257,19,-1
 225 690 l 257,16,-1
724 680 m 257,20,-1
 724 254 l 257,21,-1
 786 254 l 257,22,-1
 786 680 l 257,23,-1
 724 680 l 257,20,-1
112 284 m 257,24,-1
 112 224 l 257,25,-1
 787 224 l 257,26,-1
 787 284 l 257,27,-1
 112 284 l 257,24,-1
112 559 m 257,28,-1
 112 233 l 257,29,-1
 173 233 l 257,30,-1
 173 559 l 257,31,-1
 112 559 l 257,28,-1
813 968 m 257,32,-1
 813 890 l 257,33,-1
 888 890 l 257,34,-1
 888 968 l 257,35,-1
 813 968 l 257,32,-1
339 144 m 257,36,-1
 215 83 l 257,37,-1
 572 83 l 257,38,-1
 696 144 l 257,39,-1
 339 144 l 257,36,-1
572 83 m 257,40,-1
 906 -112 l 257,41,-1
 943 -91 l 257,42,-1
 696 144 l 257,43,-1
 572 83 l 257,40,-1
EndSplineSet
Ligature2: "halfHalfFormsinDevanagari2lookup0 subtable" uni0919 uni094D
EndChar

StartChar: uni0919_uni094D.haln
Encoding: 65553 -1 468
GlifName: uni0919_uni094D_.haln
Width: 1024
VWidth: 0
GlyphClass: 3
Flags: W
LayerCount: 2
Fore
SplineSet
0 1553 m 257,0,-1
 0 1494 l 257,1,-1
 1025 1494 l 257,2,-1
 1025 1553 l 257,3,-1
 0 1553 l 257,0,-1
652 1543 m 257,4,-1
 652 1023 l 257,5,-1
 712 1023 l 257,6,-1
 712 1543 l 257,7,-1
 652 1543 l 257,4,-1
703 1086 m 257,8,-1
 240 1086 l 257,9,-1
 240 1023 l 257,10,-1
 703 1023 l 257,11,-1
 703 1086 l 257,8,-1
228 1083 m 257,12,-1
 228 629 l 257,13,-1
 300 629 l 257,14,-1
 300 1083 l 257,15,-1
 228 1083 l 257,12,-1
234 680 m 257,16,-1
 234 620 l 257,17,-1
 789 620 l 257,18,-1
 789 680 l 257,19,-1
 234 680 l 257,16,-1
726 680 m 257,20,-1
 726 29 l 257,21,-1
 789 29 l 257,22,-1
 789 680 l 257,23,-1
 726 680 l 257,20,-1
115 61 m 257,24,-1
 115 0 l 257,25,-1
 790 0 l 257,26,-1
 790 61 l 257,27,-1
 115 61 l 257,24,-1
115 202 m 257,28,-1
 115 8 l 257,29,-1
 175 8 l 257,30,-1
 175 202 l 257,31,-1
 115 202 l 257,28,-1
774 931 m 257,32,-1
 774 835 l 257,33,-1
 870 835 l 257,34,-1
 870 931 l 257,35,-1
 774 931 l 257,32,-1
623 -16 m 257,36,-1
 623 -77 l 257,37,-1
 967 -77 l 257,38,-1
 967 -16 l 257,39,-1
 623 -16 l 257,36,-1
938 -71 m 257,40,-1
 1248 -418 l 257,41,-1
 1278 -366 l 257,42,-1
 967 -15 l 257,43,-1
 938 -71 l 257,40,-1
EndSplineSet
Ligature2: "halnHalantFormsinDevanagari2lookup0 subtable" uni0919 uni094D
EndChar

StartChar: uni091A
Encoding: 2330 2330 469
GlifName: uni091A_
Width: 1024
VWidth: 0
GlyphClass: 2
Flags: W
AnchorPoint: "abvm_deva" 720 1624 basechar 0
AnchorPoint: "blwm_deva" 801 -111 basechar 0
LayerCount: 2
Fore
SplineSet
0 1553 m 257,0,-1
 0 1497 l 257,1,-1
 1023 1497 l 257,2,-1
 1023 1553 l 257,3,-1
 0 1553 l 257,0,-1
778 1553 m 257,4,-1
 778 0 l 257,5,-1
 837 0 l 257,6,-1
 837 1553 l 257,7,-1
 778 1553 l 257,4,-1
804 421 m 257,8,-1
 804 480 l 257,9,-1
 297 480 l 257,10,-1
 297 421 l 257,11,-1
 804 421 l 257,8,-1
297 837 m 257,12,-1
 297 421 l 257,13,-1
 356 421 l 257,14,-1
 356 837 l 257,15,-1
 297 837 l 257,12,-1
73 852 m 257,16,-1
 73 791 l 257,17,-1
 498 791 l 257,18,-1
 498 852 l 257,19,-1
 73 852 l 257,16,-1
EndSplineSet
EndChar

StartChar: uni091A_uni0930_uni094D.vatu
Encoding: 65554 -1 470
GlifName: uni091A__uni0930_uni094D_.vatu
Width: 1024
VWidth: 0
GlyphClass: 2
Flags: W
LayerCount: 2
Fore
SplineSet
208 0 m 257,0,-1
 328 0 l 257,1,-1
 805 215 l 257,2,-1
 805 285 l 257,3,-1
 208 0 l 257,0,-1
0 1553 m 257,4,-1
 0 1497 l 257,5,-1
 1023 1497 l 257,6,-1
 1023 1553 l 257,7,-1
 0 1553 l 257,4,-1
778 1553 m 257,8,-1
 778 0 l 257,9,-1
 837 0 l 257,10,-1
 837 1553 l 257,11,-1
 778 1553 l 257,8,-1
804 421 m 257,12,-1
 804 480 l 257,13,-1
 297 480 l 257,14,-1
 297 421 l 257,15,-1
 804 421 l 257,12,-1
297 837 m 257,16,-1
 297 421 l 257,17,-1
 356 421 l 257,18,-1
 356 837 l 257,19,-1
 297 837 l 257,16,-1
73 852 m 257,20,-1
 73 791 l 257,21,-1
 498 791 l 257,22,-1
 498 852 l 257,23,-1
 73 852 l 257,20,-1
EndSplineSet
Ligature2: "rkrfRakarVariantsinDevanagari2lookup0 subtable" uni091A uni094D uni0930
EndChar

StartChar: uni091A_uni094D.half
Encoding: 65555 -1 471
GlifName: uni091A__uni094D_.half
Width: 1024
VWidth: 0
GlyphClass: 3
Flags: W
LayerCount: 2
Fore
SplineSet
0 1553 m 257,0,-1
 0 1497 l 257,1,-1
 1023 1497 l 257,2,-1
 1023 1553 l 257,3,-1
 0 1553 l 257,0,-1
1104 421 m 257,4,-1
 1104 480 l 257,5,-1
 297 480 l 257,6,-1
 297 421 l 257,7,-1
 1104 421 l 257,4,-1
297 837 m 257,8,-1
 297 421 l 257,9,-1
 356 421 l 257,10,-1
 356 837 l 257,11,-1
 297 837 l 257,8,-1
73 852 m 257,12,-1
 73 791 l 257,13,-1
 498 791 l 257,14,-1
 498 852 l 257,15,-1
 73 852 l 257,12,-1
EndSplineSet
Ligature2: "halfHalfFormsinDevanagari2lookup0 subtable" uni091A uni094D
EndChar

StartChar: uni091A_uni094D.haln
Encoding: 65556 -1 472
GlifName: uni091A__uni094D_.haln
Width: 1024
VWidth: 0
GlyphClass: 3
Flags: W
LayerCount: 2
Fore
SplineSet
0 1553 m 257,0,-1
 0 1497 l 257,1,-1
 1023 1497 l 257,2,-1
 1023 1553 l 257,3,-1
 0 1553 l 257,0,-1
778 1553 m 257,4,-1
 778 0 l 257,5,-1
 837 0 l 257,6,-1
 837 1553 l 257,7,-1
 778 1553 l 257,4,-1
804 421 m 257,8,-1
 804 480 l 257,9,-1
 297 480 l 257,10,-1
 297 421 l 257,11,-1
 804 421 l 257,8,-1
297 837 m 257,12,-1
 297 421 l 257,13,-1
 356 421 l 257,14,-1
 356 837 l 257,15,-1
 297 837 l 257,12,-1
73 852 m 257,16,-1
 73 791 l 257,17,-1
 498 791 l 257,18,-1
 498 852 l 257,19,-1
 73 852 l 257,16,-1
623 -16 m 257,20,-1
 623 -77 l 257,21,-1
 967 -77 l 257,22,-1
 967 -16 l 257,23,-1
 623 -16 l 257,20,-1
938 -71 m 257,24,-1
 1248 -418 l 257,25,-1
 1278 -366 l 257,26,-1
 967 -15 l 257,27,-1
 938 -71 l 257,24,-1
EndSplineSet
Ligature2: "halnHalantFormsinDevanagari2lookup0 subtable" uni091A uni094D
EndChar

StartChar: uni091B
Encoding: 2331 2331 473
GlifName: uni091B_
Width: 1024
VWidth: 0
GlyphClass: 2
Flags: W
AnchorPoint: "abvm_deva" 600 1600 basechar 0
AnchorPoint: "blwm_deva" 807 -52 basechar 0
LayerCount: 2
Fore
SplineSet
0 1553 m 257,0,-1
 0 1495 l 257,1,-1
 1023 1495 l 257,2,-1
 1023 1553 l 257,3,-1
 0 1553 l 257,0,-1
537 1128 m 257,4,-1
 152 1128 l 257,5,-1
 152 1069 l 257,6,-1
 537 1069 l 257,7,-1
 537 1128 l 257,4,-1
143 1128 m 257,8,-1
 143 538 l 257,9,-1
 203 538 l 257,10,-1
 203 1128 l 257,11,-1
 143 1128 l 257,8,-1
174 547 m 257,12,-1
 174 487 l 257,13,-1
 537 487 l 257,14,-1
 537 547 l 257,15,-1
 174 547 l 257,12,-1
142 501 m 257,16,-1
 142 0 l 257,17,-1
 202 0 l 257,18,-1
 202 501 l 257,19,-1
 142 501 l 257,16,-1
198 59 m 257,20,-1
 198 0 l 257,21,-1
 833 0 l 257,22,-1
 833 59 l 257,23,-1
 198 59 l 257,20,-1
774 6 m 257,24,-1
 833 6 l 257,25,-1
 833 1515 l 257,26,-1
 774 1515 l 257,27,-1
 774 6 l 257,24,-1
666 869 m 257,28,-1
 666 808 l 257,29,-1
 1004 808 l 257,30,-1
 1004 869 l 257,31,-1
 666 869 l 257,28,-1
945 868 m 257,32,-1
 945 471 l 257,33,-1
 1004 471 l 257,34,-1
 1004 868 l 257,35,-1
 945 868 l 257,32,-1
EndSplineSet
EndChar

StartChar: uni091B_uni0930_uni094D.vatu
Encoding: 65557 -1 474
GlifName: uni091B__uni0930_uni094D_.vatu
Width: 1024
VWidth: 0
GlyphClass: 3
Flags: W
LayerCount: 2
Fore
SplineSet
208 0 m 257,0,-1
 328 0 l 257,1,-1
 805 215 l 257,2,-1
 805 285 l 257,3,-1
 208 0 l 257,0,-1
0 1553 m 257,4,-1
 0 1495 l 257,5,-1
 1023 1495 l 257,6,-1
 1023 1553 l 257,7,-1
 0 1553 l 257,4,-1
537 1428 m 257,8,-1
 152 1428 l 257,9,-1
 152 1369 l 257,10,-1
 537 1369 l 257,11,-1
 537 1428 l 257,8,-1
143 1428 m 257,12,-1
 143 838 l 257,13,-1
 203 838 l 257,14,-1
 203 1428 l 257,15,-1
 143 1428 l 257,12,-1
174 847 m 257,16,-1
 174 787 l 257,17,-1
 537 787 l 257,18,-1
 537 847 l 257,19,-1
 174 847 l 257,16,-1
142 801 m 257,20,-1
 142 300 l 257,21,-1
 202 300 l 257,22,-1
 202 801 l 257,23,-1
 142 801 l 257,20,-1
198 359 m 257,24,-1
 198 300 l 257,25,-1
 833 300 l 257,26,-1
 833 359 l 257,27,-1
 198 359 l 257,24,-1
774 0 m 257,28,-1
 833 0 l 257,29,-1
 833 1498 l 257,30,-1
 774 1498 l 257,31,-1
 774 0 l 257,28,-1
666 1169 m 257,32,-1
 666 1108 l 257,33,-1
 1004 1108 l 257,34,-1
 1004 1169 l 257,35,-1
 666 1169 l 257,32,-1
945 1168 m 257,36,-1
 945 771 l 257,37,-1
 1004 771 l 257,38,-1
 1004 1168 l 257,39,-1
 945 1168 l 257,36,-1
EndSplineSet
Ligature2: "rkrfRakarVariantsinDevanagari2lookup0 subtable" uni091B uni094D uni0930
EndChar

StartChar: uni091B_uni094D.half
Encoding: 65558 -1 475
GlifName: uni091B__uni094D_.half
Width: 1024
VWidth: 0
GlyphClass: 3
Flags: W
LayerCount: 2
Fore
SplineSet
0 1553 m 257,0,-1
 0 1495 l 257,1,-1
 1023 1495 l 257,2,-1
 1023 1553 l 257,3,-1
 0 1553 l 257,0,-1
537 1128 m 257,4,-1
 152 1128 l 257,5,-1
 152 1069 l 257,6,-1
 537 1069 l 257,7,-1
 537 1128 l 257,4,-1
143 1128 m 257,8,-1
 143 538 l 257,9,-1
 203 538 l 257,10,-1
 203 1128 l 257,11,-1
 143 1128 l 257,8,-1
174 547 m 257,12,-1
 174 487 l 257,13,-1
 537 487 l 257,14,-1
 537 547 l 257,15,-1
 174 547 l 257,12,-1
142 501 m 257,16,-1
 142 0 l 257,17,-1
 202 0 l 257,18,-1
 202 501 l 257,19,-1
 142 501 l 257,16,-1
198 59 m 257,20,-1
 198 0 l 257,21,-1
 1133 0 l 257,22,-1
 1133 59 l 257,23,-1
 198 59 l 257,20,-1
EndSplineSet
Ligature2: "halfHalfFormsinDevanagari2lookup0 subtable" uni091B uni094D
EndChar

StartChar: uni091B_uni094D.haln
Encoding: 65559 -1 476
GlifName: uni091B__uni094D_.haln
Width: 1024
VWidth: 0
GlyphClass: 3
Flags: W
LayerCount: 2
Fore
SplineSet
0 1553 m 257,0,-1
 0 1495 l 257,1,-1
 1023 1495 l 257,2,-1
 1023 1553 l 257,3,-1
 0 1553 l 257,0,-1
537 1128 m 257,4,-1
 152 1128 l 257,5,-1
 152 1069 l 257,6,-1
 537 1069 l 257,7,-1
 537 1128 l 257,4,-1
143 1128 m 257,8,-1
 143 538 l 257,9,-1
 203 538 l 257,10,-1
 203 1128 l 257,11,-1
 143 1128 l 257,8,-1
174 547 m 257,12,-1
 174 487 l 257,13,-1
 537 487 l 257,14,-1
 537 547 l 257,15,-1
 174 547 l 257,12,-1
142 501 m 257,16,-1
 142 0 l 257,17,-1
 202 0 l 257,18,-1
 202 501 l 257,19,-1
 142 501 l 257,16,-1
198 59 m 257,20,-1
 198 0 l 257,21,-1
 833 0 l 257,22,-1
 833 59 l 257,23,-1
 198 59 l 257,20,-1
774 6 m 257,24,-1
 833 6 l 257,25,-1
 833 1515 l 257,26,-1
 774 1515 l 257,27,-1
 774 6 l 257,24,-1
666 869 m 257,28,-1
 666 808 l 257,29,-1
 1004 808 l 257,30,-1
 1004 869 l 257,31,-1
 666 869 l 257,28,-1
945 868 m 257,32,-1
 945 471 l 257,33,-1
 1004 471 l 257,34,-1
 1004 868 l 257,35,-1
 945 868 l 257,32,-1
478 -7 m 257,36,-1
 478 -68 l 257,37,-1
 822 -68 l 257,38,-1
 822 -7 l 257,39,-1
 478 -7 l 257,36,-1
793 -62 m 257,40,-1
 1103 -409 l 257,41,-1
 1133 -357 l 257,42,-1
 822 -6 l 257,43,-1
 793 -62 l 257,40,-1
EndSplineSet
Ligature2: "halnHalantFormsinDevanagari2lookup0 subtable" uni091B uni094D
EndChar

StartChar: uni091C
Encoding: 2332 2332 477
GlifName: uni091C_
Width: 1024
VWidth: 0
GlyphClass: 2
Flags: W
AnchorPoint: "abvm_deva" 762 1594 basechar 0
AnchorPoint: "blwm_deva" 840 -61 basechar 0
LayerCount: 2
Fore
SplineSet
-17 1550 m 257,0,-1
 -17 1492 l 257,1,-1
 1041 1492 l 257,2,-1
 1041 1550 l 257,3,-1
 -17 1550 l 257,0,-1
833 1550 m 257,4,-1
 833 -12 l 257,5,-1
 894 -12 l 257,6,-1
 894 1550 l 257,7,-1
 833 1550 l 257,4,-1
518 860 m 257,8,-1
 518 801 l 257,9,-1
 854 801 l 257,10,-1
 854 860 l 257,11,-1
 518 860 l 257,8,-1
508 860 m 257,12,-1
 508 512 l 257,13,-1
 568 512 l 257,14,-1
 568 860 l 257,15,-1
 508 860 l 257,12,-1
58 567 m 257,16,-1
 58 508 l 257,17,-1
 568 508 l 257,18,-1
 568 567 l 257,19,-1
 58 567 l 257,16,-1
58 727 m 257,20,-1
 58 509 l 257,21,-1
 118 509 l 257,22,-1
 118 727 l 257,23,-1
 58 727 l 257,20,-1
EndSplineSet
EndChar

StartChar: uni091C_uni0930_uni094D.vatu
Encoding: 65560 -1 478
GlifName: uni091C__uni0930_uni094D_.vatu
Width: 1024
VWidth: 0
GlyphClass: 2
Flags: W
LayerCount: 2
Fore
SplineSet
208 0 m 257,0,-1
 328 0 l 257,1,-1
 852 215 l 257,2,-1
 852 285 l 257,3,-1
 208 0 l 257,0,-1
-17 1550 m 257,4,-1
 -17 1492 l 257,5,-1
 1041 1492 l 257,6,-1
 1041 1550 l 257,7,-1
 -17 1550 l 257,4,-1
833 1550 m 257,8,-1
 833 -12 l 257,9,-1
 894 -12 l 257,10,-1
 894 1550 l 257,11,-1
 833 1550 l 257,8,-1
518 860 m 257,12,-1
 518 801 l 257,13,-1
 854 801 l 257,14,-1
 854 860 l 257,15,-1
 518 860 l 257,12,-1
508 860 m 257,16,-1
 508 512 l 257,17,-1
 568 512 l 257,18,-1
 568 860 l 257,19,-1
 508 860 l 257,16,-1
58 567 m 257,20,-1
 58 508 l 257,21,-1
 568 508 l 257,22,-1
 568 567 l 257,23,-1
 58 567 l 257,20,-1
58 727 m 257,24,-1
 58 509 l 257,25,-1
 118 509 l 257,26,-1
 118 727 l 257,27,-1
 58 727 l 257,24,-1
EndSplineSet
Ligature2: "rkrfRakarVariantsinDevanagari2lookup0 subtable" uni091C uni094D uni0930
EndChar

StartChar: uni091C_uni094D.half
Encoding: 65561 -1 479
GlifName: uni091C__uni094D_.half
Width: 1024
VWidth: 0
GlyphClass: 3
Flags: W
LayerCount: 2
Fore
SplineSet
-17 1550 m 257,0,-1
 -17 1492 l 257,1,-1
 1041 1492 l 257,2,-1
 1041 1550 l 257,3,-1
 -17 1550 l 257,0,-1
518 860 m 257,4,-1
 518 801 l 257,5,-1
 1154 801 l 257,6,-1
 1154 860 l 257,7,-1
 518 860 l 257,4,-1
508 860 m 257,8,-1
 508 512 l 257,9,-1
 568 512 l 257,10,-1
 568 860 l 257,11,-1
 508 860 l 257,8,-1
58 567 m 257,12,-1
 58 508 l 257,13,-1
 568 508 l 257,14,-1
 568 567 l 257,15,-1
 58 567 l 257,12,-1
58 727 m 257,16,-1
 58 509 l 257,17,-1
 118 509 l 257,18,-1
 118 727 l 257,19,-1
 58 727 l 257,16,-1
EndSplineSet
Ligature2: "halfHalfFormsinDevanagari2lookup0 subtable" uni091C uni094D
EndChar

StartChar: uni091C_uni094D.haln
Encoding: 65562 -1 480
GlifName: uni091C__uni094D_.haln
Width: 1024
VWidth: 0
GlyphClass: 3
Flags: W
LayerCount: 2
Fore
SplineSet
-17 1550 m 257,0,-1
 -17 1492 l 257,1,-1
 1041 1492 l 257,2,-1
 1041 1550 l 257,3,-1
 -17 1550 l 257,0,-1
833 1550 m 257,4,-1
 833 -12 l 257,5,-1
 894 -12 l 257,6,-1
 894 1550 l 257,7,-1
 833 1550 l 257,4,-1
518 860 m 257,8,-1
 518 801 l 257,9,-1
 854 801 l 257,10,-1
 854 860 l 257,11,-1
 518 860 l 257,8,-1
508 860 m 257,12,-1
 508 512 l 257,13,-1
 568 512 l 257,14,-1
 568 860 l 257,15,-1
 508 860 l 257,12,-1
58 567 m 257,16,-1
 58 508 l 257,17,-1
 568 508 l 257,18,-1
 568 567 l 257,19,-1
 58 567 l 257,16,-1
58 727 m 257,20,-1
 58 509 l 257,21,-1
 118 509 l 257,22,-1
 118 727 l 257,23,-1
 58 727 l 257,20,-1
623 -16 m 257,24,-1
 623 -77 l 257,25,-1
 967 -77 l 257,26,-1
 967 -16 l 257,27,-1
 623 -16 l 257,24,-1
938 -71 m 257,28,-1
 1248 -418 l 257,29,-1
 1278 -366 l 257,30,-1
 967 -15 l 257,31,-1
 938 -71 l 257,28,-1
EndSplineSet
Ligature2: "halnHalantFormsinDevanagari2lookup0 subtable" uni091C uni094D
EndChar

StartChar: uni091C_uni094D_uni091E.akhn
Encoding: 65563 -1 481
GlifName: uni091C__uni094D__uni091E_.akhn
Width: 1024
VWidth: 0
GlyphClass: 3
Flags: W
LayerCount: 2
Fore
SplineSet
-13 1550 m 257,0,-1
 -13 1488 l 257,1,-1
 1024 1488 l 257,2,-1
 1024 1550 l 257,3,-1
 -13 1550 l 257,0,-1
817 1550 m 257,4,-1
 817 -12 l 257,5,-1
 877 -12 l 257,6,-1
 877 1550 l 257,7,-1
 817 1550 l 257,4,-1
397 860 m 257,8,-1
 397 800 l 257,9,-1
 837 800 l 257,10,-1
 837 860 l 257,11,-1
 397 860 l 257,8,-1
351 860 m 257,12,-1
 351 413 l 257,13,-1
 410 413 l 257,14,-1
 410 860 l 257,15,-1
 351 860 l 257,12,-1
41 428 m 257,16,-1
 41 367 l 257,17,-1
 410 367 l 257,18,-1
 410 428 l 257,19,-1
 41 428 l 257,16,-1
41 368 m 257,20,-1
 189 75 l 257,21,-1
 278 75 l 257,22,-1
 115 368 l 257,23,-1
 41 368 l 257,20,-1
EndSplineSet
Ligature2: "akhnAkhandinDevanagari2lookup0 subtable" uni091C uni094D uni091E
EndChar

StartChar: uni091C_uni094D_uni091E.half
Encoding: 65564 -1 482
GlifName: uni091C__uni094D__uni091E_.half
Width: 1024
VWidth: 0
GlyphClass: 3
Flags: W
LayerCount: 2
Fore
SplineSet
-13 1550 m 257,0,-1
 -13 1488 l 257,1,-1
 1024 1488 l 257,2,-1
 1024 1550 l 257,3,-1
 -13 1550 l 257,0,-1
597 860 m 257,4,-1
 597 800 l 257,5,-1
 1037 800 l 257,6,-1
 1037 860 l 257,7,-1
 597 860 l 257,4,-1
551 860 m 257,8,-1
 551 413 l 257,9,-1
 610 413 l 257,10,-1
 610 860 l 257,11,-1
 551 860 l 257,8,-1
241 428 m 257,12,-1
 241 367 l 257,13,-1
 610 367 l 257,14,-1
 610 428 l 257,15,-1
 241 428 l 257,12,-1
241 368 m 257,16,-1
 389 75 l 257,17,-1
 478 75 l 257,18,-1
 315 368 l 257,19,-1
 241 368 l 257,16,-1
EndSplineSet
Ligature2: "halfHalfFormsinDevanagari2lookup0 subtable" uni091C_uni094D_uni091E.akhn uni094D
EndChar

StartChar: uni091C_uni094D_uni091E_uni094D
Encoding: 65565 -1 483
GlifName: uni091C__uni094D__uni091E__uni094D_
Width: 1024
VWidth: 0
GlyphClass: 2
Flags: W
LayerCount: 2
Fore
SplineSet
-13 1550 m 257,0,-1
 -13 1488 l 257,1,-1
 1024 1488 l 257,2,-1
 1024 1550 l 257,3,-1
 -13 1550 l 257,0,-1
817 1550 m 257,4,-1
 817 -12 l 257,5,-1
 877 -12 l 257,6,-1
 877 1550 l 257,7,-1
 817 1550 l 257,4,-1
397 860 m 257,8,-1
 397 800 l 257,9,-1
 837 800 l 257,10,-1
 837 860 l 257,11,-1
 397 860 l 257,8,-1
351 860 m 257,12,-1
 351 413 l 257,13,-1
 410 413 l 257,14,-1
 410 860 l 257,15,-1
 351 860 l 257,12,-1
41 428 m 257,16,-1
 41 367 l 257,17,-1
 410 367 l 257,18,-1
 410 428 l 257,19,-1
 41 428 l 257,16,-1
41 368 m 257,20,-1
 189 75 l 257,21,-1
 278 75 l 257,22,-1
 115 368 l 257,23,-1
 41 368 l 257,20,-1
623 -16 m 257,24,-1
 623 -77 l 257,25,-1
 967 -77 l 257,26,-1
 967 -16 l 257,27,-1
 623 -16 l 257,24,-1
938 -71 m 257,28,-1
 1248 -418 l 257,29,-1
 1278 -366 l 257,30,-1
 967 -15 l 257,31,-1
 938 -71 l 257,28,-1
EndSplineSet
Ligature2: "halnHalantFormsinDevanagari2lookup0 subtable" uni091C_uni094D_uni091E.akhn uni094D
EndChar

StartChar: uni091D
Encoding: 2333 2333 484
GlifName: uni091D_
Width: 1024
VWidth: 0
GlyphClass: 2
Flags: W
AnchorPoint: "abvm_deva" 762 1594 basechar 0
AnchorPoint: "blwm_deva" 871 -52 basechar 0
LayerCount: 2
Fore
SplineSet
-8 1553 m 257,0,-1
 -8 1494 l 257,1,-1
 1032 1494 l 257,2,-1
 1032 1553 l 257,3,-1
 -8 1553 l 257,0,-1
828 1553 m 257,4,-1
 828 -5 l 257,5,-1
 890 -5 l 257,6,-1
 890 1553 l 257,7,-1
 828 1553 l 257,4,-1
596 1537 m 257,8,-1
 596 1023 l 257,9,-1
 656 1023 l 257,10,-1
 656 1537 l 257,11,-1
 596 1537 l 257,8,-1
134 1084 m 257,12,-1
 134 1023 l 257,13,-1
 656 1023 l 257,14,-1
 656 1084 l 257,15,-1
 134 1084 l 257,12,-1
134 1085 m 257,16,-1
 134 651 l 257,17,-1
 194 651 l 257,18,-1
 194 1085 l 257,19,-1
 134 1085 l 257,16,-1
134 698 m 257,20,-1
 134 638 l 257,21,-1
 884 638 l 257,22,-1
 884 698 l 257,23,-1
 134 698 l 257,20,-1
568 691 m 257,24,-1
 568 7 l 257,25,-1
 628 7 l 257,26,-1
 628 691 l 257,27,-1
 568 691 l 257,24,-1
134 63 m 257,28,-1
 134 0 l 257,29,-1
 628 0 l 257,30,-1
 628 63 l 257,31,-1
 134 63 l 257,28,-1
134 63 m 257,32,-1
 134 -148 l 257,33,-1
 194 -148 l 257,34,-1
 194 63 l 257,35,-1
 134 63 l 257,32,-1
EndSplineSet
EndChar

StartChar: uni091D_uni0930_uni094D.vatu
Encoding: 65566 -1 485
GlifName: uni091D__uni0930_uni094D_.vatu
Width: 1024
VWidth: 0
GlyphClass: 3
Flags: W
LayerCount: 2
Fore
SplineSet
412 0 m 257,0,-1
 532 0 l 257,1,-1
 875 215 l 257,2,-1
 875 285 l 257,3,-1
 412 0 l 257,0,-1
-8 1553 m 257,4,-1
 -8 1494 l 257,5,-1
 1032 1494 l 257,6,-1
 1032 1553 l 257,7,-1
 -8 1553 l 257,4,-1
828 1553 m 257,8,-1
 828 -5 l 257,9,-1
 890 -5 l 257,10,-1
 890 1553 l 257,11,-1
 828 1553 l 257,8,-1
596 1537 m 257,12,-1
 596 1023 l 257,13,-1
 656 1023 l 257,14,-1
 656 1537 l 257,15,-1
 596 1537 l 257,12,-1
134 1084 m 257,16,-1
 134 1023 l 257,17,-1
 656 1023 l 257,18,-1
 656 1084 l 257,19,-1
 134 1084 l 257,16,-1
134 1085 m 257,20,-1
 134 651 l 257,21,-1
 194 651 l 257,22,-1
 194 1085 l 257,23,-1
 134 1085 l 257,20,-1
134 698 m 257,24,-1
 134 638 l 257,25,-1
 884 638 l 257,26,-1
 884 698 l 257,27,-1
 134 698 l 257,24,-1
302 691 m 257,28,-1
 302 7 l 257,29,-1
 362 7 l 257,30,-1
 362 691 l 257,31,-1
 302 691 l 257,28,-1
134 63 m 257,32,-1
 134 0 l 257,33,-1
 362 0 l 257,34,-1
 362 63 l 257,35,-1
 134 63 l 257,32,-1
134 63 m 257,36,-1
 134 -148 l 257,37,-1
 194 -148 l 257,38,-1
 194 63 l 257,39,-1
 134 63 l 257,36,-1
EndSplineSet
Ligature2: "rkrfRakarVariantsinDevanagari2lookup0 subtable" uni091D uni094D uni0930
EndChar

StartChar: uni091D_uni094D.half
Encoding: 65567 -1 486
GlifName: uni091D__uni094D_.half
Width: 1024
VWidth: 0
GlyphClass: 3
Flags: W
LayerCount: 2
Fore
SplineSet
-8 1553 m 257,0,-1
 -8 1494 l 257,1,-1
 1032 1494 l 257,2,-1
 1032 1553 l 257,3,-1
 -8 1553 l 257,0,-1
596 1537 m 257,4,-1
 596 1023 l 257,5,-1
 656 1023 l 257,6,-1
 656 1537 l 257,7,-1
 596 1537 l 257,4,-1
134 1084 m 257,8,-1
 134 1023 l 257,9,-1
 656 1023 l 257,10,-1
 656 1084 l 257,11,-1
 134 1084 l 257,8,-1
134 1085 m 257,12,-1
 134 651 l 257,13,-1
 194 651 l 257,14,-1
 194 1085 l 257,15,-1
 134 1085 l 257,12,-1
134 698 m 257,16,-1
 134 638 l 257,17,-1
 1084 638 l 257,18,-1
 1084 698 l 257,19,-1
 134 698 l 257,16,-1
568 691 m 257,20,-1
 568 7 l 257,21,-1
 628 7 l 257,22,-1
 628 691 l 257,23,-1
 568 691 l 257,20,-1
134 63 m 257,24,-1
 134 0 l 257,25,-1
 628 0 l 257,26,-1
 628 63 l 257,27,-1
 134 63 l 257,24,-1
134 63 m 257,28,-1
 134 -148 l 257,29,-1
 194 -148 l 257,30,-1
 194 63 l 257,31,-1
 134 63 l 257,28,-1
EndSplineSet
Ligature2: "halfHalfFormsinDevanagari2lookup0 subtable" uni091D uni094D
EndChar

StartChar: uni091D_uni094D.haln
Encoding: 65568 -1 487
GlifName: uni091D__uni094D_.haln
Width: 1024
VWidth: 0
GlyphClass: 3
Flags: W
LayerCount: 2
Fore
SplineSet
-8 1553 m 257,0,-1
 -8 1494 l 257,1,-1
 1032 1494 l 257,2,-1
 1032 1553 l 257,3,-1
 -8 1553 l 257,0,-1
828 1553 m 257,4,-1
 828 -5 l 257,5,-1
 890 -5 l 257,6,-1
 890 1553 l 257,7,-1
 828 1553 l 257,4,-1
596 1537 m 257,8,-1
 596 1023 l 257,9,-1
 656 1023 l 257,10,-1
 656 1537 l 257,11,-1
 596 1537 l 257,8,-1
134 1084 m 257,12,-1
 134 1023 l 257,13,-1
 656 1023 l 257,14,-1
 656 1084 l 257,15,-1
 134 1084 l 257,12,-1
134 1085 m 257,16,-1
 134 651 l 257,17,-1
 194 651 l 257,18,-1
 194 1085 l 257,19,-1
 134 1085 l 257,16,-1
134 698 m 257,20,-1
 134 638 l 257,21,-1
 884 638 l 257,22,-1
 884 698 l 257,23,-1
 134 698 l 257,20,-1
568 691 m 257,24,-1
 568 7 l 257,25,-1
 628 7 l 257,26,-1
 628 691 l 257,27,-1
 568 691 l 257,24,-1
134 63 m 257,28,-1
 134 0 l 257,29,-1
 628 0 l 257,30,-1
 628 63 l 257,31,-1
 134 63 l 257,28,-1
134 63 m 257,32,-1
 134 -148 l 257,33,-1
 194 -148 l 257,34,-1
 194 63 l 257,35,-1
 134 63 l 257,32,-1
623 -16 m 257,36,-1
 623 -77 l 257,37,-1
 967 -77 l 257,38,-1
 967 -16 l 257,39,-1
 623 -16 l 257,36,-1
938 -71 m 257,40,-1
 1248 -418 l 257,41,-1
 1278 -366 l 257,42,-1
 967 -15 l 257,43,-1
 938 -71 l 257,40,-1
EndSplineSet
Ligature2: "halnHalantFormsinDevanagari2lookup0 subtable" uni091D uni094D
EndChar

StartChar: uni091E
Encoding: 2334 2334 488
GlifName: uni091E_
Width: 1024
VWidth: 0
GlyphClass: 2
Flags: W
AnchorPoint: "abvm_deva" 834 1600 basechar 0
AnchorPoint: "blwm_deva" 932 -105 basechar 0
LayerCount: 2
Fore
SplineSet
-5 1553 m 257,0,-1
 -5 1493 l 257,1,-1
 1029 1493 l 257,2,-1
 1029 1553 l 257,3,-1
 -5 1553 l 257,0,-1
875 1538 m 257,4,-1
 875 -8 l 257,5,-1
 935 -8 l 257,6,-1
 935 1538 l 257,7,-1
 875 1538 l 257,4,-1
582 672 m 257,8,-1
 582 612 l 257,9,-1
 896 612 l 257,10,-1
 896 672 l 257,11,-1
 582 672 l 257,8,-1
84 960 m 257,12,-1
 84 900 l 257,13,-1
 581 900 l 257,14,-1
 581 960 l 257,15,-1
 84 960 l 257,12,-1
551 960 m 257,16,-1
 551 316 l 257,17,-1
 611 316 l 257,18,-1
 611 960 l 257,19,-1
 551 960 l 257,16,-1
61 320 m 257,20,-1
 61 260 l 257,21,-1
 611 260 l 257,22,-1
 611 320 l 257,23,-1
 61 320 l 257,20,-1
EndSplineSet
EndChar

StartChar: uni091E_uni0930_uni094D.vatu
Encoding: 65569 -1 489
GlifName: uni091E__uni0930_uni094D_.vatu
Width: 1024
VWidth: 0
GlyphClass: 3
Flags: W
LayerCount: 2
Fore
SplineSet
289 0 m 257,0,-1
 409 0 l 257,1,-1
 886 215 l 257,2,-1
 886 285 l 257,3,-1
 289 0 l 257,0,-1
-5 1553 m 257,4,-1
 -5 1493 l 257,5,-1
 1029 1493 l 257,6,-1
 1029 1553 l 257,7,-1
 -5 1553 l 257,4,-1
875 1538 m 257,8,-1
 875 -8 l 257,9,-1
 935 -8 l 257,10,-1
 935 1538 l 257,11,-1
 875 1538 l 257,8,-1
582 672 m 257,12,-1
 582 612 l 257,13,-1
 896 612 l 257,14,-1
 896 672 l 257,15,-1
 582 672 l 257,12,-1
84 960 m 257,16,-1
 84 900 l 257,17,-1
 581 900 l 257,18,-1
 581 960 l 257,19,-1
 84 960 l 257,16,-1
551 960 m 257,20,-1
 551 316 l 257,21,-1
 611 316 l 257,22,-1
 611 960 l 257,23,-1
 551 960 l 257,20,-1
61 320 m 257,24,-1
 61 260 l 257,25,-1
 611 260 l 257,26,-1
 611 320 l 257,27,-1
 61 320 l 257,24,-1
EndSplineSet
Ligature2: "rkrfRakarVariantsinDevanagari2lookup0 subtable" uni091E uni094D uni0930
EndChar

StartChar: uni091E_uni094D.half
Encoding: 65570 -1 490
GlifName: uni091E__uni094D_.half
Width: 1024
VWidth: 0
GlyphClass: 3
Flags: W
LayerCount: 2
Fore
SplineSet
-5 1553 m 257,0,-1
 -5 1493 l 257,1,-1
 1029 1493 l 257,2,-1
 1029 1553 l 257,3,-1
 -5 1553 l 257,0,-1
582 672 m 257,4,-1
 582 612 l 257,5,-1
 1096 612 l 257,6,-1
 1096 672 l 257,7,-1
 582 672 l 257,4,-1
84 960 m 257,8,-1
 84 900 l 257,9,-1
 581 900 l 257,10,-1
 581 960 l 257,11,-1
 84 960 l 257,8,-1
551 960 m 257,12,-1
 551 316 l 257,13,-1
 611 316 l 257,14,-1
 611 960 l 257,15,-1
 551 960 l 257,12,-1
61 320 m 257,16,-1
 61 260 l 257,17,-1
 611 260 l 257,18,-1
 611 320 l 257,19,-1
 61 320 l 257,16,-1
EndSplineSet
Ligature2: "halfHalfFormsinDevanagari2lookup0 subtable" uni091E uni094D
EndChar

StartChar: uni091E_uni094D.haln
Encoding: 65571 -1 491
GlifName: uni091E__uni094D_.haln
Width: 1024
VWidth: 0
GlyphClass: 3
Flags: W
LayerCount: 2
Fore
SplineSet
-5 1553 m 257,0,-1
 -5 1493 l 257,1,-1
 1029 1493 l 257,2,-1
 1029 1553 l 257,3,-1
 -5 1553 l 257,0,-1
875 1538 m 257,4,-1
 875 -8 l 257,5,-1
 935 -8 l 257,6,-1
 935 1538 l 257,7,-1
 875 1538 l 257,4,-1
582 672 m 257,8,-1
 582 612 l 257,9,-1
 896 612 l 257,10,-1
 896 672 l 257,11,-1
 582 672 l 257,8,-1
84 960 m 257,12,-1
 84 900 l 257,13,-1
 581 900 l 257,14,-1
 581 960 l 257,15,-1
 84 960 l 257,12,-1
551 960 m 257,16,-1
 551 316 l 257,17,-1
 611 316 l 257,18,-1
 611 960 l 257,19,-1
 551 960 l 257,16,-1
61 320 m 257,20,-1
 61 260 l 257,21,-1
 611 260 l 257,22,-1
 611 320 l 257,23,-1
 61 320 l 257,20,-1
623 -16 m 257,24,-1
 623 -77 l 257,25,-1
 967 -77 l 257,26,-1
 967 -16 l 257,27,-1
 623 -16 l 257,24,-1
938 -71 m 257,28,-1
 1248 -418 l 257,29,-1
 1278 -366 l 257,30,-1
 967 -15 l 257,31,-1
 938 -71 l 257,28,-1
EndSplineSet
Ligature2: "halnHalantFormsinDevanagari2lookup0 subtable" uni091E uni094D
EndChar

StartChar: uni091F
Encoding: 2335 2335 492
GlifName: uni091F_
Width: 1024
VWidth: 0
GlyphClass: 2
Flags: W
AnchorPoint: "abvm_deva" 660 1582 basechar 0
AnchorPoint: "blwm_deva" 513 -65 basechar 0
LayerCount: 2
Fore
SplineSet
5 1553 m 257,0,-1
 5 1494 l 257,1,-1
 1019 1494 l 257,2,-1
 1019 1553 l 257,3,-1
 5 1553 l 257,0,-1
704 1528 m 257,4,-1
 704 988 l 257,5,-1
 764 988 l 257,6,-1
 764 1528 l 257,7,-1
 704 1528 l 257,4,-1
764 1023 m 257,8,-1
 115 1023 l 257,9,-1
 115 963 l 257,10,-1
 764 963 l 257,11,-1
 764 1023 l 257,8,-1
94 1023 m 257,12,-1
 94 5 l 257,13,-1
 154 5 l 257,14,-1
 154 1023 l 257,15,-1
 94 1023 l 257,12,-1
94 60 m 257,16,-1
 94 0 l 257,17,-1
 807 0 l 257,18,-1
 807 60 l 257,19,-1
 94 60 l 257,16,-1
EndSplineSet
EndChar

StartChar: uni091F_uni0930_uni094D.vatu
Encoding: 65572 -1 493
GlifName: uni091F__uni0930_uni094D_.vatu
Width: 1024
VWidth: 0
GlyphClass: 3
Flags: W
LayerCount: 2
Fore
SplineSet
394 220 m 257,0,-1
 577 -119 l 257,1,-1
 645 -119 l 257,2,-1
 438 287 l 257,3,-1
 394 220 l 257,0,-1
438 287 m 257,4,-1
 178 -106 l 257,5,-1
 246 -106 l 257,6,-1
 468 228 l 257,7,-1
 438 287 l 257,4,-1
5 1553 m 257,8,-1
 5 1494 l 257,9,-1
 1019 1494 l 257,10,-1
 1019 1553 l 257,11,-1
 5 1553 l 257,8,-1
704 1528 m 257,12,-1
 704 988 l 257,13,-1
 764 988 l 257,14,-1
 764 1528 l 257,15,-1
 704 1528 l 257,12,-1
764 1023 m 257,16,-1
 115 1023 l 257,17,-1
 115 963 l 257,18,-1
 764 963 l 257,19,-1
 764 1023 l 257,16,-1
94 1023 m 257,20,-1
 94 305 l 257,21,-1
 154 305 l 257,22,-1
 154 1023 l 257,23,-1
 94 1023 l 257,20,-1
94 360 m 257,24,-1
 94 300 l 257,25,-1
 807 300 l 257,26,-1
 807 360 l 257,27,-1
 94 360 l 257,24,-1
EndSplineSet
Ligature2: "rkrfRakarVariantsinDevanagari2lookup0 subtable" uni091F uni094D uni0930
EndChar

StartChar: uni091F_uni094D.haln
Encoding: 65573 -1 494
GlifName: uni091F__uni094D_.haln
Width: 1024
VWidth: 0
GlyphClass: 3
Flags: W
LayerCount: 2
Fore
SplineSet
5 1553 m 257,0,-1
 5 1494 l 257,1,-1
 1019 1494 l 257,2,-1
 1019 1553 l 257,3,-1
 5 1553 l 257,0,-1
704 1528 m 257,4,-1
 704 988 l 257,5,-1
 764 988 l 257,6,-1
 764 1528 l 257,7,-1
 704 1528 l 257,4,-1
764 1023 m 257,8,-1
 115 1023 l 257,9,-1
 115 963 l 257,10,-1
 764 963 l 257,11,-1
 764 1023 l 257,8,-1
94 1023 m 257,12,-1
 94 5 l 257,13,-1
 154 5 l 257,14,-1
 154 1023 l 257,15,-1
 94 1023 l 257,12,-1
94 60 m 257,16,-1
 94 0 l 257,17,-1
 807 0 l 257,18,-1
 807 60 l 257,19,-1
 94 60 l 257,16,-1
623 -16 m 257,20,-1
 623 -77 l 257,21,-1
 967 -77 l 257,22,-1
 967 -16 l 257,23,-1
 623 -16 l 257,20,-1
938 -71 m 257,24,-1
 1248 -418 l 257,25,-1
 1278 -366 l 257,26,-1
 967 -15 l 257,27,-1
 938 -71 l 257,24,-1
EndSplineSet
Ligature2: "halnHalantFormsinDevanagari2lookup0 subtable" uni091F uni094D
EndChar

StartChar: uni0920
Encoding: 2336 2336 495
GlifName: uni0920
Width: 1024
VWidth: 0
GlyphClass: 2
Flags: W
AnchorPoint: "abvm_deva" 552 1594 basechar 0
AnchorPoint: "blwm_deva" 513 -71 basechar 0
LayerCount: 2
Fore
SplineSet
0 1550 m 257,0,-1
 0 1490 l 257,1,-1
 1025 1490 l 257,2,-1
 1025 1550 l 257,3,-1
 0 1550 l 257,0,-1
597 1510 m 257,4,-1
 597 1023 l 257,5,-1
 656 1023 l 257,6,-1
 656 1510 l 257,7,-1
 597 1510 l 257,4,-1
84 1023 m 257,8,-1
 84 963 l 257,9,-1
 962 963 l 257,10,-1
 962 1023 l 257,11,-1
 84 1023 l 257,8,-1
71 1023 m 257,12,-1
 71 13 l 257,13,-1
 133 13 l 257,14,-1
 133 1023 l 257,15,-1
 71 1023 l 257,12,-1
891 1001 m 257,16,-1
 891 0 l 257,17,-1
 962 0 l 257,18,-1
 962 1001 l 257,19,-1
 891 1001 l 257,16,-1
72 58 m 257,20,-1
 72 0 l 257,21,-1
 942 0 l 257,22,-1
 942 58 l 257,23,-1
 72 58 l 257,20,-1
EndSplineSet
EndChar

StartChar: uni0920_uni0930_uni094D.vatu
Encoding: 65574 -1 496
GlifName: uni0920_uni0930_uni094D_.vatu
Width: 1024
VWidth: 0
GlyphClass: 3
Flags: W
LayerCount: 2
Fore
SplineSet
495 220 m 257,0,-1
 678 -119 l 257,1,-1
 746 -119 l 257,2,-1
 539 287 l 257,3,-1
 495 220 l 257,0,-1
539 287 m 257,4,-1
 279 -106 l 257,5,-1
 347 -106 l 257,6,-1
 569 228 l 257,7,-1
 539 287 l 257,4,-1
0 1550 m 257,8,-1
 0 1490 l 257,9,-1
 1025 1490 l 257,10,-1
 1025 1550 l 257,11,-1
 0 1550 l 257,8,-1
510 1510 m 257,12,-1
 510 1023 l 257,13,-1
 569 1023 l 257,14,-1
 569 1510 l 257,15,-1
 510 1510 l 257,12,-1
84 1023 m 257,16,-1
 84 963 l 257,17,-1
 962 963 l 257,18,-1
 962 1023 l 257,19,-1
 84 1023 l 257,16,-1
71 1023 m 257,20,-1
 71 313 l 257,21,-1
 133 313 l 257,22,-1
 133 1023 l 257,23,-1
 71 1023 l 257,20,-1
891 1001 m 257,24,-1
 891 298 l 257,25,-1
 962 298 l 257,26,-1
 962 1001 l 257,27,-1
 891 1001 l 257,24,-1
72 358 m 257,28,-1
 72 297 l 257,29,-1
 942 297 l 257,30,-1
 942 358 l 257,31,-1
 72 358 l 257,28,-1
EndSplineSet
Ligature2: "rkrfRakarVariantsinDevanagari2lookup0 subtable" uni0920 uni094D uni0930
EndChar

StartChar: uni0920_uni094D.haln
Encoding: 65575 -1 497
GlifName: uni0920_uni094D_.haln
Width: 1024
VWidth: 0
GlyphClass: 3
Flags: W
LayerCount: 2
Fore
SplineSet
0 1550 m 257,0,-1
 0 1490 l 257,1,-1
 1025 1490 l 257,2,-1
 1025 1550 l 257,3,-1
 0 1550 l 257,0,-1
597 1510 m 257,4,-1
 597 1023 l 257,5,-1
 656 1023 l 257,6,-1
 656 1510 l 257,7,-1
 597 1510 l 257,4,-1
84 1023 m 257,8,-1
 84 963 l 257,9,-1
 962 963 l 257,10,-1
 962 1023 l 257,11,-1
 84 1023 l 257,8,-1
71 1023 m 257,12,-1
 71 13 l 257,13,-1
 133 13 l 257,14,-1
 133 1023 l 257,15,-1
 71 1023 l 257,12,-1
891 1001 m 257,16,-1
 891 0 l 257,17,-1
 962 0 l 257,18,-1
 962 1001 l 257,19,-1
 891 1001 l 257,16,-1
72 58 m 257,20,-1
 72 0 l 257,21,-1
 942 0 l 257,22,-1
 942 58 l 257,23,-1
 72 58 l 257,20,-1
623 -16 m 257,24,-1
 623 -77 l 257,25,-1
 967 -77 l 257,26,-1
 967 -16 l 257,27,-1
 623 -16 l 257,24,-1
938 -71 m 257,28,-1
 1248 -418 l 257,29,-1
 1278 -366 l 257,30,-1
 967 -15 l 257,31,-1
 938 -71 l 257,28,-1
EndSplineSet
Ligature2: "halnHalantFormsinDevanagari2lookup0 subtable" uni0920 uni094D
EndChar

StartChar: uni0921
Encoding: 2337 2337 498
GlifName: uni0921
Width: 1024
VWidth: 0
GlyphClass: 2
Flags: W
AnchorPoint: "abvm_deva" 864 1606 basechar 0
AnchorPoint: "blwm_deva" 520 -85 basechar 0
LayerCount: 2
Fore
SplineSet
0 1548 m 257,0,-1
 0 1488 l 257,1,-1
 1026 1488 l 257,2,-1
 1026 1548 l 257,3,-1
 0 1548 l 257,0,-1
384 1091 m 257,4,-1
 384 579 l 257,5,-1
 444 579 l 257,6,-1
 444 1091 l 257,7,-1
 384 1091 l 257,4,-1
384 597 m 257,8,-1
 384 538 l 257,9,-1
 927 538 l 257,10,-1
 927 597 l 257,11,-1
 384 597 l 257,8,-1
867 554 m 257,12,-1
 867 5 l 257,13,-1
 927 5 l 257,14,-1
 927 554 l 257,15,-1
 867 554 l 257,12,-1
62 60 m 257,16,-1
 62 0 l 257,17,-1
 927 0 l 257,18,-1
 927 60 l 257,19,-1
 62 60 l 257,16,-1
62 331 m 257,20,-1
 62 5 l 257,21,-1
 123 5 l 257,22,-1
 123 331 l 257,23,-1
 62 331 l 257,20,-1
384 1134 m 257,24,-1
 384 1074 l 257,25,-1
 927 1074 l 257,26,-1
 927 1134 l 257,27,-1
 384 1134 l 257,24,-1
865 1503 m 257,28,-1
 865 1098 l 257,29,-1
 927 1098 l 257,30,-1
 927 1503 l 257,31,-1
 865 1503 l 257,28,-1
EndSplineSet
EndChar

StartChar: uni0921_uni0930_uni094D.vatu
Encoding: 65576 -1 499
GlifName: uni0921_uni0930_uni094D_.vatu
Width: 1024
VWidth: 0
GlyphClass: 3
Flags: W
LayerCount: 2
Fore
SplineSet
463 136 m 257,0,-1
 646 -162 l 257,1,-1
 714 -142 l 257,2,-1
 507 191 l 257,3,-1
 463 136 l 257,0,-1
507 191 m 257,4,-1
 247 -131 l 257,5,-1
 315 -152 l 257,6,-1
 537 143 l 257,7,-1
 507 191 l 257,4,-1
0 1548 m 257,8,-1
 0 1488 l 257,9,-1
 1026 1488 l 257,10,-1
 1026 1548 l 257,11,-1
 0 1548 l 257,8,-1
384 1091 m 257,12,-1
 384 799 l 257,13,-1
 444 799 l 257,14,-1
 444 1091 l 257,15,-1
 384 1091 l 257,12,-1
384 817 m 257,16,-1
 384 758 l 257,17,-1
 927 758 l 257,18,-1
 927 817 l 257,19,-1
 384 817 l 257,16,-1
867 774 m 257,20,-1
 867 225 l 257,21,-1
 927 225 l 257,22,-1
 927 774 l 257,23,-1
 867 774 l 257,20,-1
62 280 m 257,24,-1
 62 220 l 257,25,-1
 927 220 l 257,26,-1
 927 280 l 257,27,-1
 62 280 l 257,24,-1
62 551 m 257,28,-1
 62 225 l 257,29,-1
 123 225 l 257,30,-1
 123 551 l 257,31,-1
 62 551 l 257,28,-1
384 1134 m 257,32,-1
 384 1074 l 257,33,-1
 927 1074 l 257,34,-1
 927 1134 l 257,35,-1
 384 1134 l 257,32,-1
865 1503 m 257,36,-1
 865 1098 l 257,37,-1
 927 1098 l 257,38,-1
 927 1503 l 257,39,-1
 865 1503 l 257,36,-1
EndSplineSet
Ligature2: "rkrfRakarVariantsinDevanagari2lookup0 subtable" uni0921 uni094D uni0930
EndChar

StartChar: uni0921_uni094D.haln
Encoding: 65577 -1 500
GlifName: uni0921_uni094D_.haln
Width: 1024
VWidth: 0
GlyphClass: 3
Flags: W
LayerCount: 2
Fore
SplineSet
0 1548 m 257,0,-1
 0 1488 l 257,1,-1
 1026 1488 l 257,2,-1
 1026 1548 l 257,3,-1
 0 1548 l 257,0,-1
384 1091 m 257,4,-1
 384 579 l 257,5,-1
 444 579 l 257,6,-1
 444 1091 l 257,7,-1
 384 1091 l 257,4,-1
384 597 m 257,8,-1
 384 538 l 257,9,-1
 927 538 l 257,10,-1
 927 597 l 257,11,-1
 384 597 l 257,8,-1
867 554 m 257,12,-1
 867 5 l 257,13,-1
 927 5 l 257,14,-1
 927 554 l 257,15,-1
 867 554 l 257,12,-1
62 60 m 257,16,-1
 62 0 l 257,17,-1
 927 0 l 257,18,-1
 927 60 l 257,19,-1
 62 60 l 257,16,-1
62 331 m 257,20,-1
 62 5 l 257,21,-1
 123 5 l 257,22,-1
 123 331 l 257,23,-1
 62 331 l 257,20,-1
384 1134 m 257,24,-1
 384 1074 l 257,25,-1
 927 1074 l 257,26,-1
 927 1134 l 257,27,-1
 384 1134 l 257,24,-1
865 1503 m 257,28,-1
 865 1098 l 257,29,-1
 927 1098 l 257,30,-1
 927 1503 l 257,31,-1
 865 1503 l 257,28,-1
623 -16 m 257,32,-1
 623 -77 l 257,33,-1
 967 -77 l 257,34,-1
 967 -16 l 257,35,-1
 623 -16 l 257,32,-1
938 -71 m 257,36,-1
 1248 -418 l 257,37,-1
 1278 -366 l 257,38,-1
 967 -15 l 257,39,-1
 938 -71 l 257,36,-1
EndSplineSet
Ligature2: "halnHalantFormsinDevanagari2lookup0 subtable" uni0921 uni094D
EndChar

StartChar: uni0922
Encoding: 2338 2338 501
GlifName: uni0922
Width: 1024
VWidth: 0
GlyphClass: 2
Flags: W
AnchorPoint: "abvm_deva" 696 1588 basechar 0
AnchorPoint: "blwm_deva" 514 -73 basechar 0
LayerCount: 2
Fore
SplineSet
0 1550 m 257,0,-1
 0 1488 l 257,1,-1
 1024 1488 l 257,2,-1
 1024 1550 l 257,3,-1
 0 1550 l 257,0,-1
687 1528 m 257,4,-1
 687 988 l 257,5,-1
 769 988 l 257,6,-1
 769 1528 l 257,7,-1
 687 1528 l 257,4,-1
769 1023 m 257,8,-1
 120 1023 l 257,9,-1
 120 962 l 257,10,-1
 769 962 l 257,11,-1
 769 1023 l 257,8,-1
99 1023 m 257,12,-1
 99 5 l 257,13,-1
 159 5 l 257,14,-1
 159 1023 l 257,15,-1
 99 1023 l 257,12,-1
99 60 m 257,16,-1
 99 0 l 257,17,-1
 812 0 l 257,18,-1
 812 60 l 257,19,-1
 99 60 l 257,16,-1
754 544 m 257,20,-1
 754 0 l 257,21,-1
 814 0 l 257,22,-1
 814 544 l 257,23,-1
 754 544 l 257,20,-1
684 547 m 257,24,-1
 684 487 l 257,25,-1
 812 487 l 257,26,-1
 812 547 l 257,27,-1
 684 547 l 257,24,-1
EndSplineSet
EndChar

StartChar: uni0922_uni0930_uni094D.vatu
Encoding: 65578 -1 502
GlifName: uni0922_uni0930_uni094D_.vatu
Width: 1024
VWidth: 0
GlyphClass: 2
Flags: W
LayerCount: 2
Fore
SplineSet
444 220 m 257,0,-1
 627 -119 l 257,1,-1
 695 -119 l 257,2,-1
 488 287 l 257,3,-1
 444 220 l 257,0,-1
488 287 m 257,4,-1
 228 -106 l 257,5,-1
 296 -106 l 257,6,-1
 518 228 l 257,7,-1
 488 287 l 257,4,-1
0 1550 m 257,8,-1
 0 1488 l 257,9,-1
 1024 1488 l 257,10,-1
 1024 1550 l 257,11,-1
 0 1550 l 257,8,-1
687 1528 m 257,12,-1
 687 988 l 257,13,-1
 769 988 l 257,14,-1
 769 1528 l 257,15,-1
 687 1528 l 257,12,-1
769 1023 m 257,16,-1
 120 1023 l 257,17,-1
 120 962 l 257,18,-1
 769 962 l 257,19,-1
 769 1023 l 257,16,-1
99 1023 m 257,20,-1
 99 305 l 257,21,-1
 159 305 l 257,22,-1
 159 1023 l 257,23,-1
 99 1023 l 257,20,-1
99 360 m 257,24,-1
 99 300 l 257,25,-1
 812 300 l 257,26,-1
 812 360 l 257,27,-1
 99 360 l 257,24,-1
754 844 m 257,28,-1
 754 298 l 257,29,-1
 814 298 l 257,30,-1
 814 844 l 257,31,-1
 754 844 l 257,28,-1
684 847 m 257,32,-1
 684 787 l 257,33,-1
 812 787 l 257,34,-1
 812 847 l 257,35,-1
 684 847 l 257,32,-1
EndSplineSet
Ligature2: "rkrfRakarVariantsinDevanagari2lookup0 subtable" uni0922 uni094D uni0930
EndChar

StartChar: uni0922_uni094D.haln
Encoding: 65579 -1 503
GlifName: uni0922_uni094D_.haln
Width: 1024
VWidth: 0
GlyphClass: 3
Flags: W
LayerCount: 2
Fore
SplineSet
0 1550 m 257,0,-1
 0 1488 l 257,1,-1
 1024 1488 l 257,2,-1
 1024 1550 l 257,3,-1
 0 1550 l 257,0,-1
687 1528 m 257,4,-1
 687 988 l 257,5,-1
 769 988 l 257,6,-1
 769 1528 l 257,7,-1
 687 1528 l 257,4,-1
769 1023 m 257,8,-1
 120 1023 l 257,9,-1
 120 962 l 257,10,-1
 769 962 l 257,11,-1
 769 1023 l 257,8,-1
99 1023 m 257,12,-1
 99 5 l 257,13,-1
 159 5 l 257,14,-1
 159 1023 l 257,15,-1
 99 1023 l 257,12,-1
99 60 m 257,16,-1
 99 0 l 257,17,-1
 812 0 l 257,18,-1
 812 60 l 257,19,-1
 99 60 l 257,16,-1
754 544 m 257,20,-1
 754 0 l 257,21,-1
 814 0 l 257,22,-1
 814 544 l 257,23,-1
 754 544 l 257,20,-1
684 547 m 257,24,-1
 684 487 l 257,25,-1
 812 487 l 257,26,-1
 812 547 l 257,27,-1
 684 547 l 257,24,-1
623 -16 m 257,28,-1
 623 -77 l 257,29,-1
 967 -77 l 257,30,-1
 967 -16 l 257,31,-1
 623 -16 l 257,28,-1
938 -71 m 257,32,-1
 1248 -418 l 257,33,-1
 1278 -366 l 257,34,-1
 967 -15 l 257,35,-1
 938 -71 l 257,32,-1
EndSplineSet
Ligature2: "halnHalantFormsinDevanagari2lookup0 subtable" uni0922 uni094D
EndChar

StartChar: uni0923
Encoding: 2339 2339 504
GlifName: uni0923
Width: 1024
VWidth: 0
GlyphClass: 2
Flags: W
AnchorPoint: "abvm_deva" 846 1588 basechar 0
AnchorPoint: "blwm_deva" 901 -35 basechar 0
LayerCount: 2
Fore
SplineSet
0 1550 m 257,0,-1
 0 1488 l 257,1,-1
 1027 1488 l 257,2,-1
 1027 1550 l 257,3,-1
 0 1550 l 257,0,-1
859 1530 m 257,4,-1
 859 0 l 257,5,-1
 919 0 l 257,6,-1
 919 1530 l 257,7,-1
 859 1530 l 257,4,-1
107 1543 m 257,8,-1
 107 855 l 257,9,-1
 167 855 l 257,10,-1
 167 1543 l 257,11,-1
 107 1543 l 257,8,-1
603 1528 m 257,12,-1
 603 844 l 257,13,-1
 663 844 l 257,14,-1
 663 1528 l 257,15,-1
 603 1528 l 257,12,-1
107 885 m 257,16,-1
 107 825 l 257,17,-1
 663 825 l 257,18,-1
 663 885 l 257,19,-1
 107 885 l 257,16,-1
EndSplineSet
EndChar

StartChar: uni0923_uni0930_uni094D.vatu
Encoding: 65580 -1 505
GlifName: uni0923_uni0930_uni094D_.vatu
Width: 1024
VWidth: 0
GlyphClass: 2
Flags: W
LayerCount: 2
Fore
SplineSet
277 0 m 257,0,-1
 397 0 l 257,1,-1
 874 215 l 257,2,-1
 874 285 l 257,3,-1
 277 0 l 257,0,-1
0 1550 m 257,4,-1
 0 1488 l 257,5,-1
 1027 1488 l 257,6,-1
 1027 1550 l 257,7,-1
 0 1550 l 257,4,-1
859 1530 m 257,8,-1
 859 0 l 257,9,-1
 919 0 l 257,10,-1
 919 1530 l 257,11,-1
 859 1530 l 257,8,-1
107 1543 m 257,12,-1
 107 855 l 257,13,-1
 167 855 l 257,14,-1
 167 1543 l 257,15,-1
 107 1543 l 257,12,-1
603 1528 m 257,16,-1
 603 844 l 257,17,-1
 663 844 l 257,18,-1
 663 1528 l 257,19,-1
 603 1528 l 257,16,-1
107 885 m 257,20,-1
 107 825 l 257,21,-1
 663 825 l 257,22,-1
 663 885 l 257,23,-1
 107 885 l 257,20,-1
EndSplineSet
Ligature2: "rkrfRakarVariantsinDevanagari2lookup0 subtable" uni0923 uni094D uni0930
EndChar

StartChar: uni0923_uni094D.half
Encoding: 65581 -1 506
GlifName: uni0923_uni094D_.half
Width: 1024
VWidth: 0
GlyphClass: 3
Flags: W
LayerCount: 2
Fore
SplineSet
0 1550 m 257,0,-1
 0 1488 l 257,1,-1
 1027 1488 l 257,2,-1
 1027 1550 l 257,3,-1
 0 1550 l 257,0,-1
307 1543 m 257,4,-1
 307 855 l 257,5,-1
 367 855 l 257,6,-1
 367 1543 l 257,7,-1
 307 1543 l 257,4,-1
803 1528 m 257,8,-1
 803 844 l 257,9,-1
 863 844 l 257,10,-1
 863 1528 l 257,11,-1
 803 1528 l 257,8,-1
307 885 m 257,12,-1
 307 825 l 257,13,-1
 863 825 l 257,14,-1
 863 885 l 257,15,-1
 307 885 l 257,12,-1
EndSplineSet
Ligature2: "halfHalfFormsinDevanagari2lookup0 subtable" uni0923 uni094D
EndChar

StartChar: uni0923_uni094D.haln
Encoding: 65582 -1 507
GlifName: uni0923_uni094D_.haln
Width: 1024
VWidth: 0
GlyphClass: 3
Flags: W
AnchorPoint: "abvm_deva" 887 1570 basechar 0
AnchorPoint: "blwm_deva" 836 -90 basechar 0
LayerCount: 2
Fore
SplineSet
0 1550 m 257,0,-1
 0 1488 l 257,1,-1
 1027 1488 l 257,2,-1
 1027 1550 l 257,3,-1
 0 1550 l 257,0,-1
859 1530 m 257,4,-1
 859 0 l 257,5,-1
 919 0 l 257,6,-1
 919 1530 l 257,7,-1
 859 1530 l 257,4,-1
107 1543 m 257,8,-1
 107 855 l 257,9,-1
 167 855 l 257,10,-1
 167 1543 l 257,11,-1
 107 1543 l 257,8,-1
603 1528 m 257,12,-1
 603 844 l 257,13,-1
 663 844 l 257,14,-1
 663 1528 l 257,15,-1
 603 1528 l 257,12,-1
107 885 m 257,16,-1
 107 825 l 257,17,-1
 663 825 l 257,18,-1
 663 885 l 257,19,-1
 107 885 l 257,16,-1
623 -16 m 257,20,-1
 623 -77 l 257,21,-1
 967 -77 l 257,22,-1
 967 -16 l 257,23,-1
 623 -16 l 257,20,-1
938 -71 m 257,24,-1
 1248 -418 l 257,25,-1
 1278 -366 l 257,26,-1
 967 -15 l 257,27,-1
 938 -71 l 257,24,-1
EndSplineSet
Ligature2: "halnHalantFormsinDevanagari2lookup0 subtable" uni0923 uni094D
EndChar

StartChar: uni0924
Encoding: 2340 2340 508
GlifName: uni0924
Width: 1024
VWidth: 0
GlyphClass: 2
Flags: W
AnchorPoint: "abvm_deva" 744 1582 basechar 0
AnchorPoint: "blwm_deva" 880 -77 basechar 0
LayerCount: 2
Fore
SplineSet
-13 1553 m 257,0,-1
 -13 1497 l 257,1,-1
 1037 1497 l 257,2,-1
 1037 1553 l 257,3,-1
 -13 1553 l 257,0,-1
787 1534 m 257,4,-1
 787 0 l 257,5,-1
 846 0 l 257,6,-1
 846 1534 l 257,7,-1
 787 1534 l 257,4,-1
801 788 m 257,8,-1
 122 788 l 257,9,-1
 122 728 l 257,10,-1
 801 728 l 257,11,-1
 801 788 l 257,8,-1
122 766 m 257,12,-1
 122 26 l 257,13,-1
 182 26 l 257,14,-1
 182 766 l 257,15,-1
 122 766 l 257,12,-1
EndSplineSet
EndChar

StartChar: uni0924_uni0930_uni094D.vatu
Encoding: 65583 -1 509
GlifName: uni0924_uni0930_uni094D_.vatu
Width: 1024
VWidth: 0
GlyphClass: 3
Flags: W
AnchorPoint: "abvm_deva" 756 1658 basechar 0
AnchorPoint: "blwm_deva" 701 -149 basechar 0
LayerCount: 2
Fore
SplineSet
208 117 m 257,0,-1
 328 117 l 257,1,-1
 805 446 l 257,2,-1
 805 516 l 257,3,-1
 208 117 l 257,0,-1
-13 1553 m 257,4,-1
 -13 1497 l 257,5,-1
 1037 1497 l 257,6,-1
 1037 1553 l 257,7,-1
 -13 1553 l 257,4,-1
787 1534 m 257,8,-1
 787 0 l 257,9,-1
 846 0 l 257,10,-1
 846 1534 l 257,11,-1
 787 1534 l 257,8,-1
801 583 m 257,12,-1
 122 788 l 257,13,-1
 122 728 l 257,14,-1
 801 523 l 257,15,-1
 801 583 l 257,12,-1
EndSplineSet
Ligature2: "rkrfRakarVariantsinDevanagari2lookup0 subtable" uni0924 uni094D uni0930
EndChar

StartChar: uni0924_uni094D.half
Encoding: 65584 -1 510
GlifName: uni0924_uni094D_.half
Width: 1024
VWidth: 0
GlyphClass: 3
Flags: W
LayerCount: 2
Fore
SplineSet
-13 1553 m 257,0,-1
 -13 1497 l 257,1,-1
 1037 1497 l 257,2,-1
 1037 1553 l 257,3,-1
 -13 1553 l 257,0,-1
1101 788 m 257,4,-1
 422 788 l 257,5,-1
 422 728 l 257,6,-1
 1101 728 l 257,7,-1
 1101 788 l 257,4,-1
422 766 m 257,8,-1
 422 26 l 257,9,-1
 482 26 l 257,10,-1
 482 766 l 257,11,-1
 422 766 l 257,8,-1
EndSplineSet
Ligature2: "halfHalfFormsinDevanagari2lookup0 subtable" uni0924 uni094D
EndChar

StartChar: uni0924_uni094D.haln
Encoding: 65585 -1 511
GlifName: uni0924_uni094D_.haln
Width: 1024
VWidth: 0
GlyphClass: 3
Flags: W
LayerCount: 2
Fore
SplineSet
-13 1553 m 257,0,-1
 -13 1497 l 257,1,-1
 1037 1497 l 257,2,-1
 1037 1553 l 257,3,-1
 -13 1553 l 257,0,-1
787 1534 m 257,4,-1
 787 0 l 257,5,-1
 846 0 l 257,6,-1
 846 1534 l 257,7,-1
 787 1534 l 257,4,-1
801 788 m 257,8,-1
 122 788 l 257,9,-1
 122 728 l 257,10,-1
 801 728 l 257,11,-1
 801 788 l 257,8,-1
122 766 m 257,12,-1
 122 26 l 257,13,-1
 182 26 l 257,14,-1
 182 766 l 257,15,-1
 122 766 l 257,12,-1
623 -16 m 257,16,-1
 623 -77 l 257,17,-1
 967 -77 l 257,18,-1
 967 -16 l 257,19,-1
 623 -16 l 257,16,-1
938 -71 m 257,20,-1
 1248 -418 l 257,21,-1
 1278 -366 l 257,22,-1
 967 -15 l 257,23,-1
 938 -71 l 257,20,-1
EndSplineSet
Ligature2: "halnHalantFormsinDevanagari2lookup0 subtable" uni0924 uni094D
EndChar

StartChar: uni0924_uni094D_uni0924.pres
Encoding: 65586 -1 512
GlifName: uni0924_uni094D__uni0924.pres
Width: 1024
VWidth: 0
GlyphClass: 3
Flags: W
LayerCount: 2
Fore
SplineSet
-30 1553 m 257,0,-1
 -30 1493 l 257,1,-1
 1020 1493 l 257,2,-1
 1020 1553 l 257,3,-1
 -30 1553 l 257,0,-1
769 1511 m 257,4,-1
 769 0 l 257,5,-1
 829 0 l 257,6,-1
 829 1511 l 257,7,-1
 769 1511 l 257,4,-1
784 788 m 257,8,-1
 105 788 l 257,9,-1
 105 728 l 257,10,-1
 784 728 l 257,11,-1
 784 788 l 257,8,-1
105 728 m 257,12,-1
 250 -16 l 257,13,-1
 311 22 l 257,14,-1
 165 766 l 257,15,-1
 105 728 l 257,12,-1
798 1038 m 257,16,-1
 76 1038 l 257,17,-1
 76 978 l 257,18,-1
 798 978 l 257,19,-1
 798 1038 l 257,16,-1
EndSplineSet
Ligature2: "presPreBaseSubstitutionsinDevanagari2lookup0 subtable" uni0924_uni094D.half uni0924
EndChar

